%TF.GenerationSoftware,KiCad,Pcbnew,6.0.5-a6ca702e91~116~ubuntu20.04.1*%
%TF.CreationDate,2022-06-11T15:45:11-05:00*%
%TF.ProjectId,controlDeBombas,636f6e74-726f-46c4-9465-426f6d626173,rev?*%
%TF.SameCoordinates,PX623a7c0PY3fe56c0*%
%TF.FileFunction,Soldermask,Top*%
%TF.FilePolarity,Negative*%
%FSLAX46Y46*%
G04 Gerber Fmt 4.6, Leading zero omitted, Abs format (unit mm)*
G04 Created by KiCad (PCBNEW 6.0.5-a6ca702e91~116~ubuntu20.04.1) date 2022-06-11 15:45:11*
%MOMM*%
%LPD*%
G01*
G04 APERTURE LIST*
G04 Aperture macros list*
%AMRoundRect*
0 Rectangle with rounded corners*
0 $1 Rounding radius*
0 $2 $3 $4 $5 $6 $7 $8 $9 X,Y pos of 4 corners*
0 Add a 4 corners polygon primitive as box body*
4,1,4,$2,$3,$4,$5,$6,$7,$8,$9,$2,$3,0*
0 Add four circle primitives for the rounded corners*
1,1,$1+$1,$2,$3*
1,1,$1+$1,$4,$5*
1,1,$1+$1,$6,$7*
1,1,$1+$1,$8,$9*
0 Add four rect primitives between the rounded corners*
20,1,$1+$1,$2,$3,$4,$5,0*
20,1,$1+$1,$4,$5,$6,$7,0*
20,1,$1+$1,$6,$7,$8,$9,0*
20,1,$1+$1,$8,$9,$2,$3,0*%
G04 Aperture macros list end*
%ADD10C,0.800000*%
%ADD11C,6.400000*%
%ADD12C,1.600000*%
%ADD13R,1.800000X1.800000*%
%ADD14O,1.800000X1.800000*%
%ADD15C,2.100000*%
%ADD16R,2.100000X2.100000*%
%ADD17R,1.700000X1.700000*%
%ADD18O,1.700000X1.700000*%
%ADD19R,1.100000X1.800000*%
%ADD20RoundRect,0.275000X-0.275000X-0.625000X0.275000X-0.625000X0.275000X0.625000X-0.275000X0.625000X0*%
%ADD21RoundRect,0.275000X0.625000X-0.275000X0.625000X0.275000X-0.625000X0.275000X-0.625000X-0.275000X0*%
%ADD22R,1.800000X1.100000*%
%ADD23C,2.400000*%
%ADD24O,2.400000X2.400000*%
%ADD25C,1.440000*%
%ADD26C,3.000000*%
%ADD27C,2.500000*%
%ADD28R,1.600000X1.600000*%
%ADD29O,1.600000X1.600000*%
G04 APERTURE END LIST*
D10*
%TO.C,REF\u002A\u002A*%
X44697056Y-7802944D03*
X43000000Y-7100000D03*
X41302944Y-7802944D03*
X40600000Y-9500000D03*
X41302944Y-11197056D03*
X43000000Y-11900000D03*
X44697056Y-11197056D03*
X45400000Y-9500000D03*
D11*
X43000000Y-9500000D03*
%TD*%
D10*
%TO.C,REF\u002A\u002A*%
X11197056Y-7802944D03*
X9500000Y-7100000D03*
X7802944Y-7802944D03*
X7100000Y-9500000D03*
X7802944Y-11197056D03*
X9500000Y-11900000D03*
X11197056Y-11197056D03*
X11900000Y-9500000D03*
D11*
X9500000Y-9500000D03*
%TD*%
D10*
%TO.C,REF\u002A\u002A*%
X44697056Y-55802944D03*
X43000000Y-55100000D03*
X41302944Y-55802944D03*
X40600000Y-57500000D03*
X41302944Y-59197056D03*
X43000000Y-59900000D03*
X44697056Y-59197056D03*
X45400000Y-57500000D03*
D11*
X43000000Y-57500000D03*
%TD*%
D12*
%TO.C,C1*%
X26500000Y-49500000D03*
X26500000Y-54500000D03*
%TD*%
%TO.C,C2*%
X22500000Y-54500000D03*
X22500000Y-49500000D03*
%TD*%
%TO.C,C3*%
X36500000Y-58500000D03*
X31500000Y-58500000D03*
%TD*%
D13*
%TO.C,D1*%
X11840000Y-36130000D03*
D14*
X22000000Y-36130000D03*
%TD*%
%TO.C,D2*%
X39000000Y-36130000D03*
D13*
X28840000Y-36130000D03*
%TD*%
D15*
%TO.C,J1*%
X51500000Y-42500000D03*
X51500000Y-47500000D03*
D16*
X51500000Y-52500000D03*
%TD*%
D17*
%TO.C,J2*%
X42500000Y-42500000D03*
D18*
X42500000Y-45040000D03*
X42500000Y-47580000D03*
%TD*%
D16*
%TO.C,J3*%
X51500000Y-25500000D03*
D15*
X51500000Y-30500000D03*
X51500000Y-35500000D03*
%TD*%
D16*
%TO.C,J4*%
X51420000Y-13560000D03*
D15*
X51420000Y-18560000D03*
%TD*%
D19*
%TO.C,Q1*%
X8860000Y-54030000D03*
D20*
X11400000Y-54030000D03*
X10130000Y-51960000D03*
%TD*%
D21*
%TO.C,Q2*%
X35830000Y-41230000D03*
X37900000Y-39960000D03*
D22*
X37900000Y-42500000D03*
%TD*%
D23*
%TO.C,R1*%
X26620000Y-45630000D03*
D24*
X11380000Y-45630000D03*
%TD*%
D23*
%TO.C,R2*%
X11500000Y-58500000D03*
D24*
X26740000Y-58500000D03*
%TD*%
%TO.C,R3*%
X27550000Y-40990000D03*
D23*
X12310000Y-40990000D03*
%TD*%
D25*
%TO.C,RV1*%
X19530000Y-51910000D03*
X16990000Y-54450000D03*
X14450000Y-51910000D03*
%TD*%
D26*
%TO.C,U1*%
X16840000Y-32130000D03*
D27*
X10890000Y-30180000D03*
D26*
X10840000Y-17930000D03*
X22890000Y-17980000D03*
D27*
X22890000Y-30180000D03*
%TD*%
D28*
%TO.C,U2*%
X30500000Y-46500000D03*
D29*
X38120000Y-54120000D03*
X30500000Y-49040000D03*
X38120000Y-51580000D03*
X30500000Y-51580000D03*
X38120000Y-49040000D03*
X30500000Y-54120000D03*
X38120000Y-46500000D03*
%TD*%
D27*
%TO.C,U3*%
X40444999Y-30180000D03*
D26*
X40444999Y-17980000D03*
X28394999Y-17930000D03*
D27*
X28444999Y-30180000D03*
D26*
X34394999Y-32130000D03*
%TD*%
M02*
