%TF.GenerationSoftware,KiCad,Pcbnew,6.0.5-a6ca702e91~116~ubuntu20.04.1*%
%TF.CreationDate,2022-06-11T15:45:11-05:00*%
%TF.ProjectId,controlDeBombas,636f6e74-726f-46c4-9465-426f6d626173,rev?*%
%TF.SameCoordinates,PX623a7c0PY3fe56c0*%
%TF.FileFunction,AssemblyDrawing,Top*%
%FSLAX46Y46*%
G04 Gerber Fmt 4.6, Leading zero omitted, Abs format (unit mm)*
G04 Created by KiCad (PCBNEW 6.0.5-a6ca702e91~116~ubuntu20.04.1) date 2022-06-11 15:45:11*
%MOMM*%
%LPD*%
G01*
G04 APERTURE LIST*
%ADD10C,0.150000*%
%ADD11C,0.100000*%
%ADD12C,0.120000*%
G04 APERTURE END LIST*
D10*
%TO.C,REF\u002A\u002A*%
X41966666Y-9952380D02*
X41633333Y-9476190D01*
X41395238Y-9952380D02*
X41395238Y-8952380D01*
X41776190Y-8952380D01*
X41871428Y-9000000D01*
X41919047Y-9047619D01*
X41966666Y-9142857D01*
X41966666Y-9285714D01*
X41919047Y-9380952D01*
X41871428Y-9428571D01*
X41776190Y-9476190D01*
X41395238Y-9476190D01*
X42395238Y-9428571D02*
X42728571Y-9428571D01*
X42871428Y-9952380D02*
X42395238Y-9952380D01*
X42395238Y-8952380D01*
X42871428Y-8952380D01*
X43633333Y-9428571D02*
X43300000Y-9428571D01*
X43300000Y-9952380D02*
X43300000Y-8952380D01*
X43776190Y-8952380D01*
X44300000Y-8952380D02*
X44300000Y-9190476D01*
X44061904Y-9095238D02*
X44300000Y-9190476D01*
X44538095Y-9095238D01*
X44157142Y-9380952D02*
X44300000Y-9190476D01*
X44442857Y-9380952D01*
X45061904Y-8952380D02*
X45061904Y-9190476D01*
X44823809Y-9095238D02*
X45061904Y-9190476D01*
X45300000Y-9095238D01*
X44919047Y-9380952D02*
X45061904Y-9190476D01*
X45204761Y-9380952D01*
X8466666Y-9952380D02*
X8133333Y-9476190D01*
X7895238Y-9952380D02*
X7895238Y-8952380D01*
X8276190Y-8952380D01*
X8371428Y-9000000D01*
X8419047Y-9047619D01*
X8466666Y-9142857D01*
X8466666Y-9285714D01*
X8419047Y-9380952D01*
X8371428Y-9428571D01*
X8276190Y-9476190D01*
X7895238Y-9476190D01*
X8895238Y-9428571D02*
X9228571Y-9428571D01*
X9371428Y-9952380D02*
X8895238Y-9952380D01*
X8895238Y-8952380D01*
X9371428Y-8952380D01*
X10133333Y-9428571D02*
X9800000Y-9428571D01*
X9800000Y-9952380D02*
X9800000Y-8952380D01*
X10276190Y-8952380D01*
X10800000Y-8952380D02*
X10800000Y-9190476D01*
X10561904Y-9095238D02*
X10800000Y-9190476D01*
X11038095Y-9095238D01*
X10657142Y-9380952D02*
X10800000Y-9190476D01*
X10942857Y-9380952D01*
X11561904Y-8952380D02*
X11561904Y-9190476D01*
X11323809Y-9095238D02*
X11561904Y-9190476D01*
X11800000Y-9095238D01*
X11419047Y-9380952D02*
X11561904Y-9190476D01*
X11704761Y-9380952D01*
X41966666Y-57952380D02*
X41633333Y-57476190D01*
X41395238Y-57952380D02*
X41395238Y-56952380D01*
X41776190Y-56952380D01*
X41871428Y-57000000D01*
X41919047Y-57047619D01*
X41966666Y-57142857D01*
X41966666Y-57285714D01*
X41919047Y-57380952D01*
X41871428Y-57428571D01*
X41776190Y-57476190D01*
X41395238Y-57476190D01*
X42395238Y-57428571D02*
X42728571Y-57428571D01*
X42871428Y-57952380D02*
X42395238Y-57952380D01*
X42395238Y-56952380D01*
X42871428Y-56952380D01*
X43633333Y-57428571D02*
X43300000Y-57428571D01*
X43300000Y-57952380D02*
X43300000Y-56952380D01*
X43776190Y-56952380D01*
X44300000Y-56952380D02*
X44300000Y-57190476D01*
X44061904Y-57095238D02*
X44300000Y-57190476D01*
X44538095Y-57095238D01*
X44157142Y-57380952D02*
X44300000Y-57190476D01*
X44442857Y-57380952D01*
X45061904Y-56952380D02*
X45061904Y-57190476D01*
X44823809Y-57095238D02*
X45061904Y-57190476D01*
X45300000Y-57095238D01*
X44919047Y-57380952D02*
X45061904Y-57190476D01*
X45204761Y-57380952D01*
%TO.C,C1*%
X26857142Y-52166666D02*
X26904761Y-52214285D01*
X26952380Y-52357142D01*
X26952380Y-52452380D01*
X26904761Y-52595238D01*
X26809523Y-52690476D01*
X26714285Y-52738095D01*
X26523809Y-52785714D01*
X26380952Y-52785714D01*
X26190476Y-52738095D01*
X26095238Y-52690476D01*
X26000000Y-52595238D01*
X25952380Y-52452380D01*
X25952380Y-52357142D01*
X26000000Y-52214285D01*
X26047619Y-52166666D01*
X26952380Y-51214285D02*
X26952380Y-51785714D01*
X26952380Y-51500000D02*
X25952380Y-51500000D01*
X26095238Y-51595238D01*
X26190476Y-51690476D01*
X26238095Y-51785714D01*
%TO.C,C2*%
X22857142Y-52166666D02*
X22904761Y-52214285D01*
X22952380Y-52357142D01*
X22952380Y-52452380D01*
X22904761Y-52595238D01*
X22809523Y-52690476D01*
X22714285Y-52738095D01*
X22523809Y-52785714D01*
X22380952Y-52785714D01*
X22190476Y-52738095D01*
X22095238Y-52690476D01*
X22000000Y-52595238D01*
X21952380Y-52452380D01*
X21952380Y-52357142D01*
X22000000Y-52214285D01*
X22047619Y-52166666D01*
X22047619Y-51785714D02*
X22000000Y-51738095D01*
X21952380Y-51642857D01*
X21952380Y-51404761D01*
X22000000Y-51309523D01*
X22047619Y-51261904D01*
X22142857Y-51214285D01*
X22238095Y-51214285D01*
X22380952Y-51261904D01*
X22952380Y-51833333D01*
X22952380Y-51214285D01*
%TO.C,C3*%
X33833333Y-58857142D02*
X33785714Y-58904761D01*
X33642857Y-58952380D01*
X33547619Y-58952380D01*
X33404761Y-58904761D01*
X33309523Y-58809523D01*
X33261904Y-58714285D01*
X33214285Y-58523809D01*
X33214285Y-58380952D01*
X33261904Y-58190476D01*
X33309523Y-58095238D01*
X33404761Y-58000000D01*
X33547619Y-57952380D01*
X33642857Y-57952380D01*
X33785714Y-58000000D01*
X33833333Y-58047619D01*
X34166666Y-57952380D02*
X34785714Y-57952380D01*
X34452380Y-58333333D01*
X34595238Y-58333333D01*
X34690476Y-58380952D01*
X34738095Y-58428571D01*
X34785714Y-58523809D01*
X34785714Y-58761904D01*
X34738095Y-58857142D01*
X34690476Y-58904761D01*
X34595238Y-58952380D01*
X34309523Y-58952380D01*
X34214285Y-58904761D01*
X34166666Y-58857142D01*
%TO.C,D1*%
X16571904Y-36582380D02*
X16571904Y-35582380D01*
X16810000Y-35582380D01*
X16952857Y-35630000D01*
X17048095Y-35725238D01*
X17095714Y-35820476D01*
X17143333Y-36010952D01*
X17143333Y-36153809D01*
X17095714Y-36344285D01*
X17048095Y-36439523D01*
X16952857Y-36534761D01*
X16810000Y-36582380D01*
X16571904Y-36582380D01*
X18095714Y-36582380D02*
X17524285Y-36582380D01*
X17810000Y-36582380D02*
X17810000Y-35582380D01*
X17714761Y-35725238D01*
X17619523Y-35820476D01*
X17524285Y-35868095D01*
X11578095Y-34682380D02*
X11578095Y-33682380D01*
X12149523Y-34682380D02*
X11720952Y-34110952D01*
X12149523Y-33682380D02*
X11578095Y-34253809D01*
%TO.C,D2*%
X28578095Y-34682380D02*
X28578095Y-33682380D01*
X29149523Y-34682380D02*
X28720952Y-34110952D01*
X29149523Y-33682380D02*
X28578095Y-34253809D01*
X33571904Y-36582380D02*
X33571904Y-35582380D01*
X33810000Y-35582380D01*
X33952857Y-35630000D01*
X34048095Y-35725238D01*
X34095714Y-35820476D01*
X34143333Y-36010952D01*
X34143333Y-36153809D01*
X34095714Y-36344285D01*
X34048095Y-36439523D01*
X33952857Y-36534761D01*
X33810000Y-36582380D01*
X33571904Y-36582380D01*
X34524285Y-35677619D02*
X34571904Y-35630000D01*
X34667142Y-35582380D01*
X34905238Y-35582380D01*
X35000476Y-35630000D01*
X35048095Y-35677619D01*
X35095714Y-35772857D01*
X35095714Y-35868095D01*
X35048095Y-36010952D01*
X34476666Y-36582380D01*
X35095714Y-36582380D01*
%TO.C,J1*%
X45842380Y-47833333D02*
X46556666Y-47833333D01*
X46699523Y-47880952D01*
X46794761Y-47976190D01*
X46842380Y-48119047D01*
X46842380Y-48214285D01*
X46842380Y-46833333D02*
X46842380Y-47404761D01*
X46842380Y-47119047D02*
X45842380Y-47119047D01*
X45985238Y-47214285D01*
X46080476Y-47309523D01*
X46128095Y-47404761D01*
%TO.C,J2*%
X41952380Y-45373333D02*
X42666666Y-45373333D01*
X42809523Y-45420952D01*
X42904761Y-45516190D01*
X42952380Y-45659047D01*
X42952380Y-45754285D01*
X42047619Y-44944761D02*
X42000000Y-44897142D01*
X41952380Y-44801904D01*
X41952380Y-44563809D01*
X42000000Y-44468571D01*
X42047619Y-44420952D01*
X42142857Y-44373333D01*
X42238095Y-44373333D01*
X42380952Y-44420952D01*
X42952380Y-44992380D01*
X42952380Y-44373333D01*
%TO.C,J3*%
X56062380Y-30833333D02*
X56776666Y-30833333D01*
X56919523Y-30880952D01*
X57014761Y-30976190D01*
X57062380Y-31119047D01*
X57062380Y-31214285D01*
X56062380Y-30452380D02*
X56062380Y-29833333D01*
X56443333Y-30166666D01*
X56443333Y-30023809D01*
X56490952Y-29928571D01*
X56538571Y-29880952D01*
X56633809Y-29833333D01*
X56871904Y-29833333D01*
X56967142Y-29880952D01*
X57014761Y-29928571D01*
X57062380Y-30023809D01*
X57062380Y-30309523D01*
X57014761Y-30404761D01*
X56967142Y-30452380D01*
%TO.C,J4*%
X55982380Y-16393333D02*
X56696666Y-16393333D01*
X56839523Y-16440952D01*
X56934761Y-16536190D01*
X56982380Y-16679047D01*
X56982380Y-16774285D01*
X56315714Y-15488571D02*
X56982380Y-15488571D01*
X55934761Y-15726666D02*
X56649047Y-15964761D01*
X56649047Y-15345714D01*
%TO.C,Q1*%
X10034761Y-49777619D02*
X9939523Y-49730000D01*
X9844285Y-49634761D01*
X9701428Y-49491904D01*
X9606190Y-49444285D01*
X9510952Y-49444285D01*
X9558571Y-49682380D02*
X9463333Y-49634761D01*
X9368095Y-49539523D01*
X9320476Y-49349047D01*
X9320476Y-49015714D01*
X9368095Y-48825238D01*
X9463333Y-48730000D01*
X9558571Y-48682380D01*
X9749047Y-48682380D01*
X9844285Y-48730000D01*
X9939523Y-48825238D01*
X9987142Y-49015714D01*
X9987142Y-49349047D01*
X9939523Y-49539523D01*
X9844285Y-49634761D01*
X9749047Y-49682380D01*
X9558571Y-49682380D01*
X10939523Y-49682380D02*
X10368095Y-49682380D01*
X10653809Y-49682380D02*
X10653809Y-48682380D01*
X10558571Y-48825238D01*
X10463333Y-48920476D01*
X10368095Y-48968095D01*
%TO.C,Q2*%
X33647619Y-41325238D02*
X33600000Y-41420476D01*
X33504761Y-41515714D01*
X33361904Y-41658571D01*
X33314285Y-41753809D01*
X33314285Y-41849047D01*
X33552380Y-41801428D02*
X33504761Y-41896666D01*
X33409523Y-41991904D01*
X33219047Y-42039523D01*
X32885714Y-42039523D01*
X32695238Y-41991904D01*
X32600000Y-41896666D01*
X32552380Y-41801428D01*
X32552380Y-41610952D01*
X32600000Y-41515714D01*
X32695238Y-41420476D01*
X32885714Y-41372857D01*
X33219047Y-41372857D01*
X33409523Y-41420476D01*
X33504761Y-41515714D01*
X33552380Y-41610952D01*
X33552380Y-41801428D01*
X32647619Y-40991904D02*
X32600000Y-40944285D01*
X32552380Y-40849047D01*
X32552380Y-40610952D01*
X32600000Y-40515714D01*
X32647619Y-40468095D01*
X32742857Y-40420476D01*
X32838095Y-40420476D01*
X32980952Y-40468095D01*
X33552380Y-41039523D01*
X33552380Y-40420476D01*
%TO.C,R1*%
X18833333Y-46082380D02*
X18500000Y-45606190D01*
X18261904Y-46082380D02*
X18261904Y-45082380D01*
X18642857Y-45082380D01*
X18738095Y-45130000D01*
X18785714Y-45177619D01*
X18833333Y-45272857D01*
X18833333Y-45415714D01*
X18785714Y-45510952D01*
X18738095Y-45558571D01*
X18642857Y-45606190D01*
X18261904Y-45606190D01*
X19785714Y-46082380D02*
X19214285Y-46082380D01*
X19500000Y-46082380D02*
X19500000Y-45082380D01*
X19404761Y-45225238D01*
X19309523Y-45320476D01*
X19214285Y-45368095D01*
%TO.C,R2*%
X18953333Y-58952380D02*
X18620000Y-58476190D01*
X18381904Y-58952380D02*
X18381904Y-57952380D01*
X18762857Y-57952380D01*
X18858095Y-58000000D01*
X18905714Y-58047619D01*
X18953333Y-58142857D01*
X18953333Y-58285714D01*
X18905714Y-58380952D01*
X18858095Y-58428571D01*
X18762857Y-58476190D01*
X18381904Y-58476190D01*
X19334285Y-58047619D02*
X19381904Y-58000000D01*
X19477142Y-57952380D01*
X19715238Y-57952380D01*
X19810476Y-58000000D01*
X19858095Y-58047619D01*
X19905714Y-58142857D01*
X19905714Y-58238095D01*
X19858095Y-58380952D01*
X19286666Y-58952380D01*
X19905714Y-58952380D01*
%TO.C,R3*%
X19763333Y-41442380D02*
X19430000Y-40966190D01*
X19191904Y-41442380D02*
X19191904Y-40442380D01*
X19572857Y-40442380D01*
X19668095Y-40490000D01*
X19715714Y-40537619D01*
X19763333Y-40632857D01*
X19763333Y-40775714D01*
X19715714Y-40870952D01*
X19668095Y-40918571D01*
X19572857Y-40966190D01*
X19191904Y-40966190D01*
X20096666Y-40442380D02*
X20715714Y-40442380D01*
X20382380Y-40823333D01*
X20525238Y-40823333D01*
X20620476Y-40870952D01*
X20668095Y-40918571D01*
X20715714Y-41013809D01*
X20715714Y-41251904D01*
X20668095Y-41347142D01*
X20620476Y-41394761D01*
X20525238Y-41442380D01*
X20239523Y-41442380D01*
X20144285Y-41394761D01*
X20096666Y-41347142D01*
%TO.C,RV1*%
X15813333Y-53551666D02*
X15510000Y-53118333D01*
X15293333Y-53551666D02*
X15293333Y-52641666D01*
X15640000Y-52641666D01*
X15726666Y-52685000D01*
X15770000Y-52728333D01*
X15813333Y-52815000D01*
X15813333Y-52945000D01*
X15770000Y-53031666D01*
X15726666Y-53075000D01*
X15640000Y-53118333D01*
X15293333Y-53118333D01*
X16073333Y-52641666D02*
X16376666Y-53551666D01*
X16680000Y-52641666D01*
X17460000Y-53551666D02*
X16940000Y-53551666D01*
X17200000Y-53551666D02*
X17200000Y-52641666D01*
X17113333Y-52771666D01*
X17026666Y-52858333D01*
X16940000Y-52901666D01*
%TO.C,U1*%
X16317380Y-25791904D02*
X17126904Y-25791904D01*
X17222142Y-25744285D01*
X17269761Y-25696666D01*
X17317380Y-25601428D01*
X17317380Y-25410952D01*
X17269761Y-25315714D01*
X17222142Y-25268095D01*
X17126904Y-25220476D01*
X16317380Y-25220476D01*
X17317380Y-24220476D02*
X17317380Y-24791904D01*
X17317380Y-24506190D02*
X16317380Y-24506190D01*
X16460238Y-24601428D01*
X16555476Y-24696666D01*
X16603095Y-24791904D01*
X14992380Y-31844285D02*
X14992380Y-32415714D01*
X14992380Y-32130000D02*
X13992380Y-32130000D01*
X14135238Y-32225238D01*
X14230476Y-32320476D01*
X14278095Y-32415714D01*
%TO.C,U2*%
X33548095Y-49762380D02*
X33548095Y-50571904D01*
X33595714Y-50667142D01*
X33643333Y-50714761D01*
X33738571Y-50762380D01*
X33929047Y-50762380D01*
X34024285Y-50714761D01*
X34071904Y-50667142D01*
X34119523Y-50571904D01*
X34119523Y-49762380D01*
X34548095Y-49857619D02*
X34595714Y-49810000D01*
X34690952Y-49762380D01*
X34929047Y-49762380D01*
X35024285Y-49810000D01*
X35071904Y-49857619D01*
X35119523Y-49952857D01*
X35119523Y-50048095D01*
X35071904Y-50190952D01*
X34500476Y-50762380D01*
X35119523Y-50762380D01*
%TO.C,U3*%
X32547379Y-31844285D02*
X32547379Y-32415714D01*
X32547379Y-32130000D02*
X31547379Y-32130000D01*
X31690237Y-32225238D01*
X31785475Y-32320476D01*
X31833094Y-32415714D01*
X33872379Y-25791904D02*
X34681903Y-25791904D01*
X34777141Y-25744285D01*
X34824760Y-25696666D01*
X34872379Y-25601428D01*
X34872379Y-25410952D01*
X34824760Y-25315714D01*
X34777141Y-25268095D01*
X34681903Y-25220476D01*
X33872379Y-25220476D01*
X33872379Y-24839523D02*
X33872379Y-24220476D01*
X34253332Y-24553809D01*
X34253332Y-24410952D01*
X34300951Y-24315714D01*
X34348570Y-24268095D01*
X34443808Y-24220476D01*
X34681903Y-24220476D01*
X34777141Y-24268095D01*
X34824760Y-24315714D01*
X34872379Y-24410952D01*
X34872379Y-24696666D01*
X34824760Y-24791904D01*
X34777141Y-24839523D01*
D11*
%TO.C,C1*%
X27750000Y-49500000D02*
X25250000Y-49500000D01*
X25250000Y-49500000D02*
X25250000Y-54500000D01*
X25250000Y-54500000D02*
X27750000Y-54500000D01*
X27750000Y-54500000D02*
X27750000Y-49500000D01*
%TO.C,C2*%
X23750000Y-54500000D02*
X23750000Y-49500000D01*
X21250000Y-54500000D02*
X23750000Y-54500000D01*
X21250000Y-49500000D02*
X21250000Y-54500000D01*
X23750000Y-49500000D02*
X21250000Y-49500000D01*
%TO.C,C3*%
X36500000Y-59750000D02*
X36500000Y-57250000D01*
X36500000Y-57250000D02*
X31500000Y-57250000D01*
X31500000Y-57250000D02*
X31500000Y-59750000D01*
X31500000Y-59750000D02*
X36500000Y-59750000D01*
%TO.C,D1*%
X14320000Y-34780000D02*
X14320000Y-37480000D01*
X14320000Y-37480000D02*
X19520000Y-37480000D01*
X19520000Y-37480000D02*
X19520000Y-34780000D01*
X19520000Y-34780000D02*
X14320000Y-34780000D01*
X11840000Y-36130000D02*
X14320000Y-36130000D01*
X22000000Y-36130000D02*
X19520000Y-36130000D01*
X15100000Y-34780000D02*
X15100000Y-37480000D01*
X15200000Y-34780000D02*
X15200000Y-37480000D01*
X15000000Y-34780000D02*
X15000000Y-37480000D01*
%TO.C,D2*%
X32000000Y-34780000D02*
X32000000Y-37480000D01*
X32200000Y-34780000D02*
X32200000Y-37480000D01*
X32100000Y-34780000D02*
X32100000Y-37480000D01*
X39000000Y-36130000D02*
X36520000Y-36130000D01*
X28840000Y-36130000D02*
X31320000Y-36130000D01*
X36520000Y-34780000D02*
X31320000Y-34780000D01*
X36520000Y-37480000D02*
X36520000Y-34780000D01*
X31320000Y-37480000D02*
X36520000Y-37480000D01*
X31320000Y-34780000D02*
X31320000Y-37480000D01*
%TO.C,J1*%
X47450000Y-41250000D02*
X47450000Y-43750000D01*
X48450000Y-41250000D02*
X47450000Y-41250000D01*
X48450000Y-43750000D02*
X48450000Y-41250000D01*
X47450000Y-43750000D02*
X48450000Y-43750000D01*
X50362000Y-41545000D02*
X52455000Y-43637000D01*
X50545000Y-41362000D02*
X52638000Y-43454000D01*
X47450000Y-46250000D02*
X47450000Y-48750000D01*
X48450000Y-46250000D02*
X47450000Y-46250000D01*
X48450000Y-48750000D02*
X48450000Y-46250000D01*
X47450000Y-48750000D02*
X48450000Y-48750000D01*
X50362000Y-46545000D02*
X52455000Y-48637000D01*
X50545000Y-46362000D02*
X52638000Y-48454000D01*
X47450000Y-51250000D02*
X47450000Y-53750000D01*
X48450000Y-51250000D02*
X47450000Y-51250000D01*
X48450000Y-53750000D02*
X48450000Y-51250000D01*
X47450000Y-53750000D02*
X48450000Y-53750000D01*
X50362000Y-51545000D02*
X52455000Y-53638000D01*
X50545000Y-51362000D02*
X52638000Y-53455000D01*
X49450000Y-55000000D02*
X49450000Y-40000000D01*
X54350000Y-55000000D02*
X54350000Y-40000000D01*
X54950000Y-55000000D02*
X54950000Y-40000000D01*
X54950000Y-55000000D02*
X47450000Y-55000000D01*
X55550000Y-54400000D02*
X54950000Y-55000000D01*
X55550000Y-40000000D02*
X55550000Y-54400000D01*
X47450000Y-40000000D02*
X55550000Y-40000000D01*
X47450000Y-55000000D02*
X47450000Y-40000000D01*
X53000000Y-42500000D02*
G75*
G03*
X53000000Y-42500000I-1500000J0D01*
G01*
X53000000Y-47500000D02*
G75*
G03*
X53000000Y-47500000I-1500000J0D01*
G01*
X53000000Y-52500000D02*
G75*
G03*
X53000000Y-52500000I-1500000J0D01*
G01*
%TO.C,J2*%
X41865000Y-41230000D02*
X43770000Y-41230000D01*
X43770000Y-41230000D02*
X43770000Y-48850000D01*
X43770000Y-48850000D02*
X41230000Y-48850000D01*
X41230000Y-48850000D02*
X41230000Y-41865000D01*
X41230000Y-41865000D02*
X41865000Y-41230000D01*
%TO.C,J3*%
X53000000Y-25500000D02*
G75*
G03*
X53000000Y-25500000I-1500000J0D01*
G01*
X53000000Y-30500000D02*
G75*
G03*
X53000000Y-30500000I-1500000J0D01*
G01*
X53000000Y-35500000D02*
G75*
G03*
X53000000Y-35500000I-1500000J0D01*
G01*
X55550000Y-23000000D02*
X55550000Y-38000000D01*
X55550000Y-38000000D02*
X47450000Y-38000000D01*
X47450000Y-38000000D02*
X47450000Y-23600000D01*
X47450000Y-23600000D02*
X48050000Y-23000000D01*
X48050000Y-23000000D02*
X55550000Y-23000000D01*
X48050000Y-23000000D02*
X48050000Y-38000000D01*
X48650000Y-23000000D02*
X48650000Y-38000000D01*
X53550000Y-23000000D02*
X53550000Y-38000000D01*
X52455000Y-26638000D02*
X50362000Y-24545000D01*
X52638000Y-26455000D02*
X50545000Y-24362000D01*
X55550000Y-24250000D02*
X54550000Y-24250000D01*
X54550000Y-24250000D02*
X54550000Y-26750000D01*
X54550000Y-26750000D02*
X55550000Y-26750000D01*
X55550000Y-26750000D02*
X55550000Y-24250000D01*
X52455000Y-31638000D02*
X50362000Y-29546000D01*
X52638000Y-31455000D02*
X50545000Y-29363000D01*
X55550000Y-29250000D02*
X54550000Y-29250000D01*
X54550000Y-29250000D02*
X54550000Y-31750000D01*
X54550000Y-31750000D02*
X55550000Y-31750000D01*
X55550000Y-31750000D02*
X55550000Y-29250000D01*
X52455000Y-36638000D02*
X50362000Y-34546000D01*
X52638000Y-36455000D02*
X50545000Y-34363000D01*
X55550000Y-34250000D02*
X54550000Y-34250000D01*
X54550000Y-34250000D02*
X54550000Y-36750000D01*
X54550000Y-36750000D02*
X55550000Y-36750000D01*
X55550000Y-36750000D02*
X55550000Y-34250000D01*
%TO.C,J4*%
X52920000Y-13560000D02*
G75*
G03*
X52920000Y-13560000I-1500000J0D01*
G01*
X52920000Y-18560000D02*
G75*
G03*
X52920000Y-18560000I-1500000J0D01*
G01*
X55470000Y-11060000D02*
X55470000Y-21060000D01*
X55470000Y-21060000D02*
X47370000Y-21060000D01*
X47370000Y-21060000D02*
X47370000Y-11660000D01*
X47370000Y-11660000D02*
X47970000Y-11060000D01*
X47970000Y-11060000D02*
X55470000Y-11060000D01*
X47970000Y-11060000D02*
X47970000Y-21060000D01*
X48570000Y-11060000D02*
X48570000Y-21060000D01*
X53470000Y-11060000D02*
X53470000Y-21060000D01*
X52375000Y-14698000D02*
X50282000Y-12605000D01*
X52558000Y-14515000D02*
X50465000Y-12422000D01*
X55470000Y-12310000D02*
X54470000Y-12310000D01*
X54470000Y-12310000D02*
X54470000Y-14810000D01*
X54470000Y-14810000D02*
X55470000Y-14810000D01*
X55470000Y-14810000D02*
X55470000Y-12310000D01*
X52375000Y-19698000D02*
X50282000Y-17606000D01*
X52558000Y-19515000D02*
X50465000Y-17423000D01*
X55470000Y-17310000D02*
X54470000Y-17310000D01*
X54470000Y-17310000D02*
X54470000Y-19810000D01*
X54470000Y-19810000D02*
X55470000Y-19810000D01*
X55470000Y-19810000D02*
X55470000Y-17310000D01*
%TO.C,Q1*%
X10130000Y-51150000D02*
G75*
G03*
X8376375Y-55383625I0J-2480000D01*
G01*
X11883625Y-55383625D02*
G75*
G03*
X10130000Y-51150000I-1753625J1753625D01*
G01*
X8360000Y-55380000D02*
X11860000Y-55380000D01*
%TO.C,Q2*%
X39250000Y-43000000D02*
X39250000Y-39500000D01*
X39253625Y-39476375D02*
G75*
G03*
X35020000Y-41230000I-1753625J-1753625D01*
G01*
X35020000Y-41230000D02*
G75*
G03*
X39253625Y-42983625I2480000J0D01*
G01*
%TO.C,R1*%
X23950000Y-47430000D02*
X23950000Y-43830000D01*
X23950000Y-43830000D02*
X14050000Y-43830000D01*
X14050000Y-43830000D02*
X14050000Y-47430000D01*
X14050000Y-47430000D02*
X23950000Y-47430000D01*
X26620000Y-45630000D02*
X23950000Y-45630000D01*
X11380000Y-45630000D02*
X14050000Y-45630000D01*
%TO.C,R2*%
X14170000Y-56700000D02*
X14170000Y-60300000D01*
X14170000Y-60300000D02*
X24070000Y-60300000D01*
X24070000Y-60300000D02*
X24070000Y-56700000D01*
X24070000Y-56700000D02*
X14170000Y-56700000D01*
X11500000Y-58500000D02*
X14170000Y-58500000D01*
X26740000Y-58500000D02*
X24070000Y-58500000D01*
%TO.C,R3*%
X27550000Y-40990000D02*
X24880000Y-40990000D01*
X12310000Y-40990000D02*
X14980000Y-40990000D01*
X24880000Y-39190000D02*
X14980000Y-39190000D01*
X24880000Y-42790000D02*
X24880000Y-39190000D01*
X14980000Y-42790000D02*
X24880000Y-42790000D01*
X14980000Y-39190000D02*
X14980000Y-42790000D01*
%TO.C,RV1*%
X19965000Y-54120000D02*
G75*
G03*
X19965000Y-54120000I-890000J0D01*
G01*
X13635000Y-50890000D02*
X13635000Y-55390000D01*
X13635000Y-55390000D02*
X20345000Y-55390000D01*
X20345000Y-55390000D02*
X20345000Y-50890000D01*
X20345000Y-50890000D02*
X13635000Y-50890000D01*
X19075000Y-55002000D02*
X19076000Y-53239000D01*
X19075000Y-55002000D02*
X19076000Y-53239000D01*
D12*
%TO.C,U1*%
X24540000Y-33430000D02*
X9140000Y-33430000D01*
X24540000Y-13830000D02*
X24540000Y-33430000D01*
X9140000Y-13830000D02*
X24540000Y-13830000D01*
X9140000Y-33430000D02*
X9140000Y-13830000D01*
D11*
%TO.C,U2*%
X32135000Y-45230000D02*
X37485000Y-45230000D01*
X37485000Y-45230000D02*
X37485000Y-55390000D01*
X37485000Y-55390000D02*
X31135000Y-55390000D01*
X31135000Y-55390000D02*
X31135000Y-46230000D01*
X31135000Y-46230000D02*
X32135000Y-45230000D01*
D12*
%TO.C,U3*%
X26694999Y-33430000D02*
X26694999Y-13830000D01*
X26694999Y-13830000D02*
X42094999Y-13830000D01*
X42094999Y-13830000D02*
X42094999Y-33430000D01*
X42094999Y-33430000D02*
X26694999Y-33430000D01*
%TD*%
M02*
