%TF.GenerationSoftware,KiCad,Pcbnew,6.0.5-a6ca702e91~116~ubuntu20.04.1*%
%TF.CreationDate,2022-06-11T15:45:11-05:00*%
%TF.ProjectId,controlDeBombas,636f6e74-726f-46c4-9465-426f6d626173,rev?*%
%TF.SameCoordinates,PX623a7c0PY3fe56c0*%
%TF.FileFunction,Legend,Top*%
%TF.FilePolarity,Positive*%
%FSLAX46Y46*%
G04 Gerber Fmt 4.6, Leading zero omitted, Abs format (unit mm)*
G04 Created by KiCad (PCBNEW 6.0.5-a6ca702e91~116~ubuntu20.04.1) date 2022-06-11 15:45:11*
%MOMM*%
%LPD*%
G01*
G04 APERTURE LIST*
G04 Aperture macros list*
%AMRoundRect*
0 Rectangle with rounded corners*
0 $1 Rounding radius*
0 $2 $3 $4 $5 $6 $7 $8 $9 X,Y pos of 4 corners*
0 Add a 4 corners polygon primitive as box body*
4,1,4,$2,$3,$4,$5,$6,$7,$8,$9,$2,$3,0*
0 Add four circle primitives for the rounded corners*
1,1,$1+$1,$2,$3*
1,1,$1+$1,$4,$5*
1,1,$1+$1,$6,$7*
1,1,$1+$1,$8,$9*
0 Add four rect primitives between the rounded corners*
20,1,$1+$1,$2,$3,$4,$5,0*
20,1,$1+$1,$4,$5,$6,$7,0*
20,1,$1+$1,$6,$7,$8,$9,0*
20,1,$1+$1,$8,$9,$2,$3,0*%
G04 Aperture macros list end*
%ADD10C,0.150000*%
%ADD11C,0.120000*%
%ADD12C,0.800000*%
%ADD13C,6.400000*%
%ADD14C,1.600000*%
%ADD15R,1.800000X1.800000*%
%ADD16O,1.800000X1.800000*%
%ADD17C,2.100000*%
%ADD18R,2.100000X2.100000*%
%ADD19R,1.700000X1.700000*%
%ADD20O,1.700000X1.700000*%
%ADD21R,1.100000X1.800000*%
%ADD22RoundRect,0.275000X-0.275000X-0.625000X0.275000X-0.625000X0.275000X0.625000X-0.275000X0.625000X0*%
%ADD23RoundRect,0.275000X0.625000X-0.275000X0.625000X0.275000X-0.625000X0.275000X-0.625000X-0.275000X0*%
%ADD24R,1.800000X1.100000*%
%ADD25C,2.400000*%
%ADD26O,2.400000X2.400000*%
%ADD27C,1.440000*%
%ADD28C,3.000000*%
%ADD29C,2.500000*%
%ADD30R,1.600000X1.600000*%
%ADD31O,1.600000X1.600000*%
G04 APERTURE END LIST*
D10*
%TO.C,C1*%
X29357142Y-52166666D02*
X29404761Y-52214285D01*
X29452380Y-52357142D01*
X29452380Y-52452380D01*
X29404761Y-52595238D01*
X29309523Y-52690476D01*
X29214285Y-52738095D01*
X29023809Y-52785714D01*
X28880952Y-52785714D01*
X28690476Y-52738095D01*
X28595238Y-52690476D01*
X28500000Y-52595238D01*
X28452380Y-52452380D01*
X28452380Y-52357142D01*
X28500000Y-52214285D01*
X28547619Y-52166666D01*
X29452380Y-51214285D02*
X29452380Y-51785714D01*
X29452380Y-51500000D02*
X28452380Y-51500000D01*
X28595238Y-51595238D01*
X28690476Y-51690476D01*
X28738095Y-51785714D01*
%TO.C,C2*%
X25357142Y-52166666D02*
X25404761Y-52214285D01*
X25452380Y-52357142D01*
X25452380Y-52452380D01*
X25404761Y-52595238D01*
X25309523Y-52690476D01*
X25214285Y-52738095D01*
X25023809Y-52785714D01*
X24880952Y-52785714D01*
X24690476Y-52738095D01*
X24595238Y-52690476D01*
X24500000Y-52595238D01*
X24452380Y-52452380D01*
X24452380Y-52357142D01*
X24500000Y-52214285D01*
X24547619Y-52166666D01*
X24547619Y-51785714D02*
X24500000Y-51738095D01*
X24452380Y-51642857D01*
X24452380Y-51404761D01*
X24500000Y-51309523D01*
X24547619Y-51261904D01*
X24642857Y-51214285D01*
X24738095Y-51214285D01*
X24880952Y-51261904D01*
X25452380Y-51833333D01*
X25452380Y-51214285D01*
%TO.C,C3*%
X33833333Y-61357142D02*
X33785714Y-61404761D01*
X33642857Y-61452380D01*
X33547619Y-61452380D01*
X33404761Y-61404761D01*
X33309523Y-61309523D01*
X33261904Y-61214285D01*
X33214285Y-61023809D01*
X33214285Y-60880952D01*
X33261904Y-60690476D01*
X33309523Y-60595238D01*
X33404761Y-60500000D01*
X33547619Y-60452380D01*
X33642857Y-60452380D01*
X33785714Y-60500000D01*
X33833333Y-60547619D01*
X34166666Y-60452380D02*
X34785714Y-60452380D01*
X34452380Y-60833333D01*
X34595238Y-60833333D01*
X34690476Y-60880952D01*
X34738095Y-60928571D01*
X34785714Y-61023809D01*
X34785714Y-61261904D01*
X34738095Y-61357142D01*
X34690476Y-61404761D01*
X34595238Y-61452380D01*
X34309523Y-61452380D01*
X34214285Y-61404761D01*
X34166666Y-61357142D01*
%TO.C,D1*%
X16181904Y-34112380D02*
X16181904Y-33112380D01*
X16420000Y-33112380D01*
X16562857Y-33160000D01*
X16658095Y-33255238D01*
X16705714Y-33350476D01*
X16753333Y-33540952D01*
X16753333Y-33683809D01*
X16705714Y-33874285D01*
X16658095Y-33969523D01*
X16562857Y-34064761D01*
X16420000Y-34112380D01*
X16181904Y-34112380D01*
X17705714Y-34112380D02*
X17134285Y-34112380D01*
X17420000Y-34112380D02*
X17420000Y-33112380D01*
X17324761Y-33255238D01*
X17229523Y-33350476D01*
X17134285Y-33398095D01*
X11578095Y-34682380D02*
X11578095Y-33682380D01*
X12149523Y-34682380D02*
X11720952Y-34110952D01*
X12149523Y-33682380D02*
X11578095Y-34253809D01*
%TO.C,D2*%
X33181904Y-34112380D02*
X33181904Y-33112380D01*
X33420000Y-33112380D01*
X33562857Y-33160000D01*
X33658095Y-33255238D01*
X33705714Y-33350476D01*
X33753333Y-33540952D01*
X33753333Y-33683809D01*
X33705714Y-33874285D01*
X33658095Y-33969523D01*
X33562857Y-34064761D01*
X33420000Y-34112380D01*
X33181904Y-34112380D01*
X34134285Y-33207619D02*
X34181904Y-33160000D01*
X34277142Y-33112380D01*
X34515238Y-33112380D01*
X34610476Y-33160000D01*
X34658095Y-33207619D01*
X34705714Y-33302857D01*
X34705714Y-33398095D01*
X34658095Y-33540952D01*
X34086666Y-34112380D01*
X34705714Y-34112380D01*
X28578095Y-34682380D02*
X28578095Y-33682380D01*
X29149523Y-34682380D02*
X28720952Y-34110952D01*
X29149523Y-33682380D02*
X28578095Y-34253809D01*
%TO.C,J1*%
X45842380Y-47833333D02*
X46556666Y-47833333D01*
X46699523Y-47880952D01*
X46794761Y-47976190D01*
X46842380Y-48119047D01*
X46842380Y-48214285D01*
X46842380Y-46833333D02*
X46842380Y-47404761D01*
X46842380Y-47119047D02*
X45842380Y-47119047D01*
X45985238Y-47214285D01*
X46080476Y-47309523D01*
X46128095Y-47404761D01*
%TO.C,J2*%
X42166666Y-39622380D02*
X42166666Y-40336666D01*
X42119047Y-40479523D01*
X42023809Y-40574761D01*
X41880952Y-40622380D01*
X41785714Y-40622380D01*
X42595238Y-39717619D02*
X42642857Y-39670000D01*
X42738095Y-39622380D01*
X42976190Y-39622380D01*
X43071428Y-39670000D01*
X43119047Y-39717619D01*
X43166666Y-39812857D01*
X43166666Y-39908095D01*
X43119047Y-40050952D01*
X42547619Y-40622380D01*
X43166666Y-40622380D01*
%TO.C,J3*%
X56062380Y-30833333D02*
X56776666Y-30833333D01*
X56919523Y-30880952D01*
X57014761Y-30976190D01*
X57062380Y-31119047D01*
X57062380Y-31214285D01*
X56062380Y-30452380D02*
X56062380Y-29833333D01*
X56443333Y-30166666D01*
X56443333Y-30023809D01*
X56490952Y-29928571D01*
X56538571Y-29880952D01*
X56633809Y-29833333D01*
X56871904Y-29833333D01*
X56967142Y-29880952D01*
X57014761Y-29928571D01*
X57062380Y-30023809D01*
X57062380Y-30309523D01*
X57014761Y-30404761D01*
X56967142Y-30452380D01*
%TO.C,J4*%
X55982380Y-16393333D02*
X56696666Y-16393333D01*
X56839523Y-16440952D01*
X56934761Y-16536190D01*
X56982380Y-16679047D01*
X56982380Y-16774285D01*
X56315714Y-15488571D02*
X56982380Y-15488571D01*
X55934761Y-15726666D02*
X56649047Y-15964761D01*
X56649047Y-15345714D01*
%TO.C,Q1*%
X10034761Y-49777619D02*
X9939523Y-49730000D01*
X9844285Y-49634761D01*
X9701428Y-49491904D01*
X9606190Y-49444285D01*
X9510952Y-49444285D01*
X9558571Y-49682380D02*
X9463333Y-49634761D01*
X9368095Y-49539523D01*
X9320476Y-49349047D01*
X9320476Y-49015714D01*
X9368095Y-48825238D01*
X9463333Y-48730000D01*
X9558571Y-48682380D01*
X9749047Y-48682380D01*
X9844285Y-48730000D01*
X9939523Y-48825238D01*
X9987142Y-49015714D01*
X9987142Y-49349047D01*
X9939523Y-49539523D01*
X9844285Y-49634761D01*
X9749047Y-49682380D01*
X9558571Y-49682380D01*
X10939523Y-49682380D02*
X10368095Y-49682380D01*
X10653809Y-49682380D02*
X10653809Y-48682380D01*
X10558571Y-48825238D01*
X10463333Y-48920476D01*
X10368095Y-48968095D01*
%TO.C,Q2*%
X33647619Y-41325238D02*
X33600000Y-41420476D01*
X33504761Y-41515714D01*
X33361904Y-41658571D01*
X33314285Y-41753809D01*
X33314285Y-41849047D01*
X33552380Y-41801428D02*
X33504761Y-41896666D01*
X33409523Y-41991904D01*
X33219047Y-42039523D01*
X32885714Y-42039523D01*
X32695238Y-41991904D01*
X32600000Y-41896666D01*
X32552380Y-41801428D01*
X32552380Y-41610952D01*
X32600000Y-41515714D01*
X32695238Y-41420476D01*
X32885714Y-41372857D01*
X33219047Y-41372857D01*
X33409523Y-41420476D01*
X33504761Y-41515714D01*
X33552380Y-41610952D01*
X33552380Y-41801428D01*
X32647619Y-40991904D02*
X32600000Y-40944285D01*
X32552380Y-40849047D01*
X32552380Y-40610952D01*
X32600000Y-40515714D01*
X32647619Y-40468095D01*
X32742857Y-40420476D01*
X32838095Y-40420476D01*
X32980952Y-40468095D01*
X33552380Y-41039523D01*
X33552380Y-40420476D01*
%TO.C,R1*%
X18833333Y-49002380D02*
X18500000Y-48526190D01*
X18261904Y-49002380D02*
X18261904Y-48002380D01*
X18642857Y-48002380D01*
X18738095Y-48050000D01*
X18785714Y-48097619D01*
X18833333Y-48192857D01*
X18833333Y-48335714D01*
X18785714Y-48430952D01*
X18738095Y-48478571D01*
X18642857Y-48526190D01*
X18261904Y-48526190D01*
X19785714Y-49002380D02*
X19214285Y-49002380D01*
X19500000Y-49002380D02*
X19500000Y-48002380D01*
X19404761Y-48145238D01*
X19309523Y-48240476D01*
X19214285Y-48288095D01*
%TO.C,R2*%
X18953333Y-56032380D02*
X18620000Y-55556190D01*
X18381904Y-56032380D02*
X18381904Y-55032380D01*
X18762857Y-55032380D01*
X18858095Y-55080000D01*
X18905714Y-55127619D01*
X18953333Y-55222857D01*
X18953333Y-55365714D01*
X18905714Y-55460952D01*
X18858095Y-55508571D01*
X18762857Y-55556190D01*
X18381904Y-55556190D01*
X19334285Y-55127619D02*
X19381904Y-55080000D01*
X19477142Y-55032380D01*
X19715238Y-55032380D01*
X19810476Y-55080000D01*
X19858095Y-55127619D01*
X19905714Y-55222857D01*
X19905714Y-55318095D01*
X19858095Y-55460952D01*
X19286666Y-56032380D01*
X19905714Y-56032380D01*
%TO.C,R3*%
X19763333Y-38522380D02*
X19430000Y-38046190D01*
X19191904Y-38522380D02*
X19191904Y-37522380D01*
X19572857Y-37522380D01*
X19668095Y-37570000D01*
X19715714Y-37617619D01*
X19763333Y-37712857D01*
X19763333Y-37855714D01*
X19715714Y-37950952D01*
X19668095Y-37998571D01*
X19572857Y-38046190D01*
X19191904Y-38046190D01*
X20096666Y-37522380D02*
X20715714Y-37522380D01*
X20382380Y-37903333D01*
X20525238Y-37903333D01*
X20620476Y-37950952D01*
X20668095Y-37998571D01*
X20715714Y-38093809D01*
X20715714Y-38331904D01*
X20668095Y-38427142D01*
X20620476Y-38474761D01*
X20525238Y-38522380D01*
X20239523Y-38522380D01*
X20144285Y-38474761D01*
X20096666Y-38427142D01*
%TO.C,RV1*%
X16394761Y-50092380D02*
X16061428Y-49616190D01*
X15823333Y-50092380D02*
X15823333Y-49092380D01*
X16204285Y-49092380D01*
X16299523Y-49140000D01*
X16347142Y-49187619D01*
X16394761Y-49282857D01*
X16394761Y-49425714D01*
X16347142Y-49520952D01*
X16299523Y-49568571D01*
X16204285Y-49616190D01*
X15823333Y-49616190D01*
X16680476Y-49092380D02*
X17013809Y-50092380D01*
X17347142Y-49092380D01*
X18204285Y-50092380D02*
X17632857Y-50092380D01*
X17918571Y-50092380D02*
X17918571Y-49092380D01*
X17823333Y-49235238D01*
X17728095Y-49330476D01*
X17632857Y-49378095D01*
%TO.C,U1*%
X25492380Y-24791904D02*
X26301904Y-24791904D01*
X26397142Y-24744285D01*
X26444761Y-24696666D01*
X26492380Y-24601428D01*
X26492380Y-24410952D01*
X26444761Y-24315714D01*
X26397142Y-24268095D01*
X26301904Y-24220476D01*
X25492380Y-24220476D01*
X26492380Y-23220476D02*
X26492380Y-23791904D01*
X26492380Y-23506190D02*
X25492380Y-23506190D01*
X25635238Y-23601428D01*
X25730476Y-23696666D01*
X25778095Y-23791904D01*
%TO.C,U2*%
X33548095Y-43622380D02*
X33548095Y-44431904D01*
X33595714Y-44527142D01*
X33643333Y-44574761D01*
X33738571Y-44622380D01*
X33929047Y-44622380D01*
X34024285Y-44574761D01*
X34071904Y-44527142D01*
X34119523Y-44431904D01*
X34119523Y-43622380D01*
X34548095Y-43717619D02*
X34595714Y-43670000D01*
X34690952Y-43622380D01*
X34929047Y-43622380D01*
X35024285Y-43670000D01*
X35071904Y-43717619D01*
X35119523Y-43812857D01*
X35119523Y-43908095D01*
X35071904Y-44050952D01*
X34500476Y-44622380D01*
X35119523Y-44622380D01*
%TO.C,U3*%
X43047379Y-24791904D02*
X43856903Y-24791904D01*
X43952141Y-24744285D01*
X43999760Y-24696666D01*
X44047379Y-24601428D01*
X44047379Y-24410952D01*
X43999760Y-24315714D01*
X43952141Y-24268095D01*
X43856903Y-24220476D01*
X43047379Y-24220476D01*
X43047379Y-23839523D02*
X43047379Y-23220476D01*
X43428332Y-23553809D01*
X43428332Y-23410952D01*
X43475951Y-23315714D01*
X43523570Y-23268095D01*
X43618808Y-23220476D01*
X43856903Y-23220476D01*
X43952141Y-23268095D01*
X43999760Y-23315714D01*
X44047379Y-23410952D01*
X44047379Y-23696666D01*
X43999760Y-23791904D01*
X43952141Y-23839523D01*
D11*
%TO.C,C1*%
X27870000Y-49380000D02*
X27870000Y-54620000D01*
X25130000Y-49380000D02*
X25130000Y-54620000D01*
X27870000Y-49380000D02*
X27555000Y-49380000D01*
X25445000Y-49380000D02*
X25130000Y-49380000D01*
X27870000Y-54620000D02*
X27555000Y-54620000D01*
X25445000Y-54620000D02*
X25130000Y-54620000D01*
%TO.C,C2*%
X21445000Y-54620000D02*
X21130000Y-54620000D01*
X23870000Y-54620000D02*
X23555000Y-54620000D01*
X21445000Y-49380000D02*
X21130000Y-49380000D01*
X23870000Y-49380000D02*
X23555000Y-49380000D01*
X21130000Y-49380000D02*
X21130000Y-54620000D01*
X23870000Y-49380000D02*
X23870000Y-54620000D01*
%TO.C,C3*%
X36620000Y-59870000D02*
X31380000Y-59870000D01*
X36620000Y-57130000D02*
X31380000Y-57130000D01*
X36620000Y-59870000D02*
X36620000Y-59555000D01*
X36620000Y-57445000D02*
X36620000Y-57130000D01*
X31380000Y-59870000D02*
X31380000Y-59555000D01*
X31380000Y-57445000D02*
X31380000Y-57130000D01*
%TO.C,D1*%
X14200000Y-34660000D02*
X14200000Y-37600000D01*
X14200000Y-37600000D02*
X19640000Y-37600000D01*
X19640000Y-37600000D02*
X19640000Y-34660000D01*
X19640000Y-34660000D02*
X14200000Y-34660000D01*
X12980000Y-36130000D02*
X14200000Y-36130000D01*
X20860000Y-36130000D02*
X19640000Y-36130000D01*
X15100000Y-34660000D02*
X15100000Y-37600000D01*
X15220000Y-34660000D02*
X15220000Y-37600000D01*
X14980000Y-34660000D02*
X14980000Y-37600000D01*
%TO.C,D2*%
X31980000Y-34660000D02*
X31980000Y-37600000D01*
X32220000Y-34660000D02*
X32220000Y-37600000D01*
X32100000Y-34660000D02*
X32100000Y-37600000D01*
X37860000Y-36130000D02*
X36640000Y-36130000D01*
X29980000Y-36130000D02*
X31200000Y-36130000D01*
X36640000Y-34660000D02*
X31200000Y-34660000D01*
X36640000Y-37600000D02*
X36640000Y-34660000D01*
X31200000Y-37600000D02*
X36640000Y-37600000D01*
X31200000Y-34660000D02*
X31200000Y-37600000D01*
%TO.C,J1*%
X55850000Y-55300000D02*
X55850000Y-54700000D01*
X55010000Y-55300000D02*
X55850000Y-55300000D01*
X47450000Y-41250000D02*
X48450000Y-41250000D01*
X47450000Y-43750000D02*
X48450000Y-43750000D01*
X48450000Y-43750000D02*
X48450000Y-41250000D01*
X47450000Y-43750000D02*
X47450000Y-41250000D01*
X52323000Y-43528000D02*
X52569000Y-43774000D01*
X50225000Y-41430000D02*
X50436000Y-41641000D01*
X52575000Y-43370000D02*
X52774000Y-43569000D01*
X50431000Y-41225000D02*
X50677000Y-41471000D01*
X47450000Y-46250000D02*
X48450000Y-46250000D01*
X47450000Y-48750000D02*
X48450000Y-48750000D01*
X48450000Y-48750000D02*
X48450000Y-46250000D01*
X47450000Y-48750000D02*
X47450000Y-46250000D01*
X52323000Y-48528000D02*
X52569000Y-48774000D01*
X50225000Y-46430000D02*
X50436000Y-46641000D01*
X52575000Y-48370000D02*
X52774000Y-48569000D01*
X50431000Y-46225000D02*
X50677000Y-46471000D01*
X47450000Y-51250000D02*
X48450000Y-51250000D01*
X47450000Y-53750000D02*
X48450000Y-53750000D01*
X48450000Y-53750000D02*
X48450000Y-51250000D01*
X47450000Y-53750000D02*
X47450000Y-51250000D01*
X47390000Y-39940000D02*
X55610000Y-39940000D01*
X47390000Y-55060000D02*
X55610000Y-55060000D01*
X55610000Y-55060000D02*
X55610000Y-39940000D01*
X47390000Y-55060000D02*
X47390000Y-39940000D01*
X49450000Y-55060000D02*
X49450000Y-39940000D01*
X54350000Y-55060000D02*
X54350000Y-39940000D01*
X54950000Y-55060000D02*
X54950000Y-39940000D01*
X53180000Y-42500000D02*
G75*
G03*
X53180000Y-42500000I-1680000J0D01*
G01*
X53180000Y-47500000D02*
G75*
G03*
X53180000Y-47500000I-1680000J0D01*
G01*
X52787000Y-53581000D02*
G75*
G03*
X53180511Y-52471493I-1287000J1081000D01*
G01*
X50419000Y-53787000D02*
G75*
G03*
X52579734Y-53788062I1081000J1287000D01*
G01*
X50213000Y-51420000D02*
G75*
G03*
X50212922Y-53579908I1287000J-1080000D01*
G01*
X52580000Y-51213000D02*
G75*
G03*
X50420092Y-51212922I-1080000J-1287000D01*
G01*
X53180000Y-52500000D02*
G75*
G03*
X52786955Y-51420117I-1680000J0D01*
G01*
%TO.C,J2*%
X41170000Y-48910000D02*
X43830000Y-48910000D01*
X41170000Y-43770000D02*
X41170000Y-48910000D01*
X43830000Y-43770000D02*
X43830000Y-48910000D01*
X41170000Y-43770000D02*
X43830000Y-43770000D01*
X41170000Y-42500000D02*
X41170000Y-41170000D01*
X41170000Y-41170000D02*
X42500000Y-41170000D01*
%TO.C,J3*%
X49820000Y-25500000D02*
G75*
G03*
X50213045Y-26579883I1680000J0D01*
G01*
X50420000Y-26787000D02*
G75*
G03*
X52579908Y-26787078I1080000J1287000D01*
G01*
X52787000Y-26580000D02*
G75*
G03*
X52787078Y-24420092I-1287000J1080000D01*
G01*
X52581000Y-24213000D02*
G75*
G03*
X50420266Y-24211938I-1081000J-1287000D01*
G01*
X50213000Y-24419000D02*
G75*
G03*
X49819489Y-25528507I1287000J-1081000D01*
G01*
X53180000Y-30500000D02*
G75*
G03*
X53180000Y-30500000I-1680000J0D01*
G01*
X53180000Y-35500000D02*
G75*
G03*
X53180000Y-35500000I-1680000J0D01*
G01*
X48050000Y-22940000D02*
X48050000Y-38060000D01*
X48650000Y-22940000D02*
X48650000Y-38060000D01*
X53550000Y-22940000D02*
X53550000Y-38060000D01*
X55610000Y-22940000D02*
X55610000Y-38060000D01*
X47390000Y-22940000D02*
X47390000Y-38060000D01*
X55610000Y-22940000D02*
X47390000Y-22940000D01*
X55610000Y-38060000D02*
X47390000Y-38060000D01*
X55550000Y-24250000D02*
X55550000Y-26750000D01*
X54550000Y-24250000D02*
X54550000Y-26750000D01*
X55550000Y-24250000D02*
X54550000Y-24250000D01*
X55550000Y-26750000D02*
X54550000Y-26750000D01*
X52569000Y-31775000D02*
X52323000Y-31529000D01*
X50425000Y-29630000D02*
X50226000Y-29431000D01*
X52775000Y-31570000D02*
X52564000Y-31359000D01*
X50677000Y-29472000D02*
X50431000Y-29226000D01*
X55550000Y-29250000D02*
X55550000Y-31750000D01*
X54550000Y-29250000D02*
X54550000Y-31750000D01*
X55550000Y-29250000D02*
X54550000Y-29250000D01*
X55550000Y-31750000D02*
X54550000Y-31750000D01*
X52569000Y-36775000D02*
X52323000Y-36529000D01*
X50425000Y-34630000D02*
X50226000Y-34431000D01*
X52775000Y-36570000D02*
X52564000Y-36359000D01*
X50677000Y-34472000D02*
X50431000Y-34226000D01*
X55550000Y-34250000D02*
X55550000Y-36750000D01*
X54550000Y-34250000D02*
X54550000Y-36750000D01*
X55550000Y-34250000D02*
X54550000Y-34250000D01*
X55550000Y-36750000D02*
X54550000Y-36750000D01*
X47990000Y-22700000D02*
X47150000Y-22700000D01*
X47150000Y-22700000D02*
X47150000Y-23300000D01*
%TO.C,J4*%
X49740000Y-13560000D02*
G75*
G03*
X50133045Y-14639883I1680000J0D01*
G01*
X50340000Y-14847000D02*
G75*
G03*
X52499908Y-14847078I1080000J1287000D01*
G01*
X52707000Y-14640000D02*
G75*
G03*
X52707078Y-12480092I-1287000J1080000D01*
G01*
X52501000Y-12273000D02*
G75*
G03*
X50340266Y-12271938I-1081000J-1287000D01*
G01*
X50133000Y-12479000D02*
G75*
G03*
X49739489Y-13588507I1287000J-1081000D01*
G01*
X53100000Y-18560000D02*
G75*
G03*
X53100000Y-18560000I-1680000J0D01*
G01*
X47970000Y-11000000D02*
X47970000Y-21120000D01*
X48570000Y-11000000D02*
X48570000Y-21120000D01*
X53470000Y-11000000D02*
X53470000Y-21120000D01*
X55530000Y-11000000D02*
X55530000Y-21120000D01*
X47310000Y-11000000D02*
X47310000Y-21120000D01*
X55530000Y-11000000D02*
X47310000Y-11000000D01*
X55530000Y-21120000D02*
X47310000Y-21120000D01*
X55470000Y-12310000D02*
X55470000Y-14810000D01*
X54470000Y-12310000D02*
X54470000Y-14810000D01*
X55470000Y-12310000D02*
X54470000Y-12310000D01*
X55470000Y-14810000D02*
X54470000Y-14810000D01*
X52489000Y-19835000D02*
X52243000Y-19589000D01*
X50345000Y-17690000D02*
X50146000Y-17491000D01*
X52695000Y-19630000D02*
X52484000Y-19419000D01*
X50597000Y-17532000D02*
X50351000Y-17286000D01*
X55470000Y-17310000D02*
X55470000Y-19810000D01*
X54470000Y-17310000D02*
X54470000Y-19810000D01*
X55470000Y-17310000D02*
X54470000Y-17310000D01*
X55470000Y-19810000D02*
X54470000Y-19810000D01*
X47910000Y-10760000D02*
X47070000Y-10760000D01*
X47070000Y-10760000D02*
X47070000Y-11360000D01*
%TO.C,Q1*%
X11938445Y-55457684D02*
G75*
G03*
X10910000Y-51180000I-1808445J1827684D01*
G01*
X9310000Y-51180000D02*
G75*
G03*
X8318125Y-55471741I820000J-2450000D01*
G01*
X8330000Y-55480000D02*
X11930000Y-55480000D01*
%TO.C,Q2*%
X39350000Y-43030000D02*
X39350000Y-39430000D01*
X35050000Y-42050000D02*
G75*
G03*
X39341741Y-43041875I2450000J820000D01*
G01*
X39327684Y-39421555D02*
G75*
G03*
X35050000Y-40450000I-1827684J-1808445D01*
G01*
%TO.C,R1*%
X24070000Y-47550000D02*
X24070000Y-43710000D01*
X24070000Y-43710000D02*
X13930000Y-43710000D01*
X13930000Y-43710000D02*
X13930000Y-47550000D01*
X13930000Y-47550000D02*
X24070000Y-47550000D01*
X25180000Y-45630000D02*
X24070000Y-45630000D01*
X12820000Y-45630000D02*
X13930000Y-45630000D01*
%TO.C,R2*%
X14050000Y-56580000D02*
X14050000Y-60420000D01*
X14050000Y-60420000D02*
X24190000Y-60420000D01*
X24190000Y-60420000D02*
X24190000Y-56580000D01*
X24190000Y-56580000D02*
X14050000Y-56580000D01*
X12940000Y-58500000D02*
X14050000Y-58500000D01*
X25300000Y-58500000D02*
X24190000Y-58500000D01*
%TO.C,R3*%
X26110000Y-40990000D02*
X25000000Y-40990000D01*
X13750000Y-40990000D02*
X14860000Y-40990000D01*
X25000000Y-39070000D02*
X14860000Y-39070000D01*
X25000000Y-42910000D02*
X25000000Y-39070000D01*
X14860000Y-42910000D02*
X25000000Y-42910000D01*
X14860000Y-39070000D02*
X14860000Y-42910000D01*
%TO.C,RV1*%
X13515000Y-50770000D02*
X20465000Y-50770000D01*
X13515000Y-55510000D02*
X20465000Y-55510000D01*
X13515000Y-50770000D02*
X13515000Y-51415000D01*
X13515000Y-52405000D02*
X13515000Y-55510000D01*
X20465000Y-50770000D02*
X20465000Y-51415000D01*
X20465000Y-52405000D02*
X20465000Y-55510000D01*
%TO.C,U1*%
X18690000Y-24080000D02*
X18690000Y-28080000D01*
X15090000Y-24080000D02*
X18690000Y-24080000D01*
X15090000Y-28080000D02*
X15090000Y-24080000D01*
X18690000Y-28080000D02*
X15090000Y-28080000D01*
X18690000Y-24080000D02*
X15090000Y-28080000D01*
X18690000Y-26080000D02*
X22890000Y-26080000D01*
X10890000Y-26080000D02*
X15090000Y-26080000D01*
X16890000Y-29480000D02*
X20490000Y-29480000D01*
X16890000Y-22680000D02*
X20490000Y-22680000D01*
X20490000Y-22680000D02*
X20490000Y-29480000D01*
X16890000Y-21180000D02*
X14390000Y-16580000D01*
X16890000Y-22680000D02*
X16890000Y-21180000D01*
X10890000Y-26080000D02*
X10890000Y-28580000D01*
X16890000Y-29480000D02*
X16890000Y-30280000D01*
X22890000Y-28580000D02*
X22890000Y-26080000D01*
X12640000Y-17980000D02*
X15140000Y-17980000D01*
X21040000Y-17980000D02*
X18590000Y-17980000D01*
X24640000Y-13730000D02*
X24640000Y-33530000D01*
X9040000Y-13730000D02*
X24640000Y-13730000D01*
X9040000Y-33530000D02*
X9040000Y-13730000D01*
X9040000Y-33530000D02*
X15640000Y-33530000D01*
X18040000Y-33530000D02*
X24640000Y-33530000D01*
%TO.C,U2*%
X33310000Y-45170000D02*
G75*
G03*
X35310000Y-45170000I1000000J0D01*
G01*
X33310000Y-45170000D02*
X31660000Y-45170000D01*
X31660000Y-45170000D02*
X31660000Y-55450000D01*
X31660000Y-55450000D02*
X36960000Y-55450000D01*
X36960000Y-55450000D02*
X36960000Y-45170000D01*
X36960000Y-45170000D02*
X35310000Y-45170000D01*
%TO.C,U3*%
X35594999Y-33530000D02*
X42194999Y-33530000D01*
X26594999Y-33530000D02*
X33194999Y-33530000D01*
X26594999Y-33530000D02*
X26594999Y-13730000D01*
X26594999Y-13730000D02*
X42194999Y-13730000D01*
X42194999Y-13730000D02*
X42194999Y-33530000D01*
X38594999Y-17980000D02*
X36144999Y-17980000D01*
X30194999Y-17980000D02*
X32694999Y-17980000D01*
X40444999Y-28580000D02*
X40444999Y-26080000D01*
X34444999Y-29480000D02*
X34444999Y-30280000D01*
X28444999Y-26080000D02*
X28444999Y-28580000D01*
X34444999Y-22680000D02*
X34444999Y-21180000D01*
X34444999Y-21180000D02*
X31944999Y-16580000D01*
X38044999Y-22680000D02*
X38044999Y-29480000D01*
X34444999Y-22680000D02*
X38044999Y-22680000D01*
X34444999Y-29480000D02*
X38044999Y-29480000D01*
X28444999Y-26080000D02*
X32644999Y-26080000D01*
X36244999Y-26080000D02*
X40444999Y-26080000D01*
X36244999Y-24080000D02*
X32644999Y-28080000D01*
X36244999Y-28080000D02*
X32644999Y-28080000D01*
X32644999Y-28080000D02*
X32644999Y-24080000D01*
X32644999Y-24080000D02*
X36244999Y-24080000D01*
X36244999Y-24080000D02*
X36244999Y-28080000D01*
%TD*%
%LPC*%
D12*
%TO.C,REF\u002A\u002A*%
X44697056Y-7802944D03*
X43000000Y-7100000D03*
X41302944Y-7802944D03*
X40600000Y-9500000D03*
X41302944Y-11197056D03*
X43000000Y-11900000D03*
X44697056Y-11197056D03*
X45400000Y-9500000D03*
D13*
X43000000Y-9500000D03*
%TD*%
D12*
%TO.C,REF\u002A\u002A*%
X11197056Y-7802944D03*
X9500000Y-7100000D03*
X7802944Y-7802944D03*
X7100000Y-9500000D03*
X7802944Y-11197056D03*
X9500000Y-11900000D03*
X11197056Y-11197056D03*
X11900000Y-9500000D03*
D13*
X9500000Y-9500000D03*
%TD*%
D12*
%TO.C,REF\u002A\u002A*%
X44697056Y-55802944D03*
X43000000Y-55100000D03*
X41302944Y-55802944D03*
X40600000Y-57500000D03*
X41302944Y-59197056D03*
X43000000Y-59900000D03*
X44697056Y-59197056D03*
X45400000Y-57500000D03*
D13*
X43000000Y-57500000D03*
%TD*%
D14*
%TO.C,C1*%
X26500000Y-49500000D03*
X26500000Y-54500000D03*
%TD*%
%TO.C,C2*%
X22500000Y-54500000D03*
X22500000Y-49500000D03*
%TD*%
%TO.C,C3*%
X36500000Y-58500000D03*
X31500000Y-58500000D03*
%TD*%
D15*
%TO.C,D1*%
X11840000Y-36130000D03*
D16*
X22000000Y-36130000D03*
%TD*%
%TO.C,D2*%
X39000000Y-36130000D03*
D15*
X28840000Y-36130000D03*
%TD*%
D17*
%TO.C,J1*%
X51500000Y-42500000D03*
X51500000Y-47500000D03*
D18*
X51500000Y-52500000D03*
%TD*%
D19*
%TO.C,J2*%
X42500000Y-42500000D03*
D20*
X42500000Y-45040000D03*
X42500000Y-47580000D03*
%TD*%
D18*
%TO.C,J3*%
X51500000Y-25500000D03*
D17*
X51500000Y-30500000D03*
X51500000Y-35500000D03*
%TD*%
D18*
%TO.C,J4*%
X51420000Y-13560000D03*
D17*
X51420000Y-18560000D03*
%TD*%
D21*
%TO.C,Q1*%
X8860000Y-54030000D03*
D22*
X11400000Y-54030000D03*
X10130000Y-51960000D03*
%TD*%
D23*
%TO.C,Q2*%
X35830000Y-41230000D03*
X37900000Y-39960000D03*
D24*
X37900000Y-42500000D03*
%TD*%
D25*
%TO.C,R1*%
X26620000Y-45630000D03*
D26*
X11380000Y-45630000D03*
%TD*%
D25*
%TO.C,R2*%
X11500000Y-58500000D03*
D26*
X26740000Y-58500000D03*
%TD*%
%TO.C,R3*%
X27550000Y-40990000D03*
D25*
X12310000Y-40990000D03*
%TD*%
D27*
%TO.C,RV1*%
X19530000Y-51910000D03*
X16990000Y-54450000D03*
X14450000Y-51910000D03*
%TD*%
D28*
%TO.C,U1*%
X16840000Y-32130000D03*
D29*
X10890000Y-30180000D03*
D28*
X10840000Y-17930000D03*
X22890000Y-17980000D03*
D29*
X22890000Y-30180000D03*
%TD*%
D30*
%TO.C,U2*%
X30500000Y-46500000D03*
D31*
X38120000Y-54120000D03*
X30500000Y-49040000D03*
X38120000Y-51580000D03*
X30500000Y-51580000D03*
X38120000Y-49040000D03*
X30500000Y-54120000D03*
X38120000Y-46500000D03*
%TD*%
D29*
%TO.C,U3*%
X40444999Y-30180000D03*
D28*
X40444999Y-17980000D03*
X28394999Y-17930000D03*
D29*
X28444999Y-30180000D03*
D28*
X34394999Y-32130000D03*
%TD*%
M02*
