M48
; DRILL file {KiCad 6.0.5-a6ca702e91~116~ubuntu20.04.1} date Sat 11 Jun 2022 15:45:27 -05
; FORMAT={-:-/ absolute / metric / decimal}
; #@! TF.CreationDate,2022-06-11T15:45:27-05:00
; #@! TF.GenerationSoftware,Kicad,Pcbnew,6.0.5-a6ca702e91~116~ubuntu20.04.1
; #@! TF.FileFunction,Plated,1,2,PTH
FMAT,2
METRIC
; #@! TA.AperFunction,Plated,PTH,ComponentDrill
T1C0.500
; #@! TA.AperFunction,Plated,PTH,ComponentDrill
T2C0.750
; #@! TA.AperFunction,Plated,PTH,ComponentDrill
T3C0.800
; #@! TA.AperFunction,Plated,PTH,ComponentDrill
T4C0.900
; #@! TA.AperFunction,Plated,PTH,ComponentDrill
T5C1.000
; #@! TA.AperFunction,Plated,PTH,ComponentDrill
T6C1.100
; #@! TA.AperFunction,Plated,PTH,ComponentDrill
T7C1.200
; #@! TA.AperFunction,Plated,PTH,ComponentDrill
T8C1.300
; #@! TA.AperFunction,Plated,PTH,ComponentDrill
T9C3.200
%
G90
G05
T1
X7.1Y-9.5
X7.803Y-7.803
X7.803Y-11.197
X9.5Y-7.1
X9.5Y-11.9
X11.197Y-7.803
X11.197Y-11.197
X11.9Y-9.5
X40.6Y-9.5
X40.6Y-57.5
X41.303Y-7.803
X41.303Y-11.197
X41.303Y-55.803
X41.303Y-59.197
X43.0Y-7.1
X43.0Y-11.9
X43.0Y-55.1
X43.0Y-59.9
X44.697Y-7.803
X44.697Y-11.197
X44.697Y-55.803
X44.697Y-59.197
X45.4Y-9.5
X45.4Y-57.5
T2
X8.86Y-53.63
X10.13Y-52.36
X11.4Y-53.63
X36.23Y-41.23
X37.5Y-39.96
X37.5Y-42.5
T3
X14.45Y-51.91
X16.99Y-54.45
X19.53Y-51.91
X22.5Y-49.5
X22.5Y-54.5
X26.5Y-49.5
X26.5Y-54.5
X30.5Y-46.5
X30.5Y-49.04
X30.5Y-51.58
X30.5Y-54.12
X31.5Y-58.5
X36.5Y-58.5
X38.12Y-46.5
X38.12Y-49.04
X38.12Y-51.58
X38.12Y-54.12
T4
X11.84Y-36.13
X22.0Y-36.13
X28.84Y-36.13
X39.0Y-36.13
T5
X10.89Y-30.18
X22.89Y-30.18
X28.445Y-30.18
X40.445Y-30.18
X42.5Y-42.5
X42.5Y-45.04
X42.5Y-47.58
T6
X51.42Y-13.56
X51.42Y-18.56
X51.5Y-25.5
X51.5Y-30.5
X51.5Y-35.5
X51.5Y-42.5
X51.5Y-47.5
X51.5Y-52.5
T7
X11.38Y-45.63
X11.5Y-58.5
X12.31Y-40.99
X26.62Y-45.63
X26.74Y-58.5
X27.55Y-40.99
T8
X10.84Y-17.93
X16.84Y-32.13
X22.89Y-17.98
X28.395Y-17.93
X34.395Y-32.13
X40.445Y-17.98
T9
X9.5Y-9.5
X43.0Y-9.5
X43.0Y-57.5
T0
M30
