<svg version="1.1" xmlns="http://www.w3.org/2000/svg" xmlns:xlink="http://www.w3.org/1999/xlink" stroke-linecap="round" stroke-linejoin="round" stroke-width="0" fill-rule="evenodd" width="53.983mm" height="56.5315mm" viewBox="5508.5 -62040 53983 56531.5" id="kSHry2imhxajVfts8HsP"><defs><circle cx="0" cy="0" r="400" id="kSHry2imhxajVfts8HsP_pad-10"/><circle cx="0" cy="0" r="3200" id="kSHry2imhxajVfts8HsP_pad-11"/><circle cx="0" cy="0" r="800" id="kSHry2imhxajVfts8HsP_pad-12"/><rect x="-900" y="-900" width="1800" height="1800" id="kSHry2imhxajVfts8HsP_pad-13"/><rect x="-900" y="-900" width="1800" height="1800" rx="900" ry="900" id="kSHry2imhxajVfts8HsP_pad-14"/><circle cx="0" cy="0" r="1050" id="kSHry2imhxajVfts8HsP_pad-15"/><rect x="-1050" y="-1050" width="2100" height="2100" id="kSHry2imhxajVfts8HsP_pad-16"/><rect x="-850" y="-850" width="1700" height="1700" id="kSHry2imhxajVfts8HsP_pad-17"/><rect x="-850" y="-850" width="1700" height="1700" rx="850" ry="850" id="kSHry2imhxajVfts8HsP_pad-18"/><rect x="-550" y="-900" width="1100" height="1800" id="kSHry2imhxajVfts8HsP_pad-19"/><g id="kSHry2imhxajVfts8HsP_pad-20"><polygon points="-275,-625 275,-625 275,625 -275,625"/><circle cx="-275" cy="-625" r="275"/><circle cx="275" cy="-625" r="275"/><circle cx="275" cy="625" r="275"/><circle cx="-275" cy="625" r="275"/><polygon points="-275,-900 275,-900 275,-350 -275,-350"/><polygon points="550,-625 550,625 0,625 0,-625"/><polygon points="275,350 -275,350 -275,900 275,900"/><polygon points="0,625 0,-625 -550,-625 -550,625"/></g><g id="kSHry2imhxajVfts8HsP_pad-21"><polygon points="625,-275 625,275 -625,275 -625,-275"/><circle cx="625" cy="-275" r="275"/><circle cx="625" cy="275" r="275"/><circle cx="-625" cy="275" r="275"/><circle cx="-625" cy="-275" r="275"/><polygon points="900,-275 900,275 350,275 350,-275"/><polygon points="625,0 -625,0 -625,550 625,550"/><polygon points="-350,275 -350,-275 -900,-275 -900,275"/><polygon points="-625,-550 625,-550 625,0 -625,0"/></g><rect x="-900" y="-550" width="1800" height="1100" id="kSHry2imhxajVfts8HsP_pad-22"/><circle cx="0" cy="0" r="1200" id="kSHry2imhxajVfts8HsP_pad-23"/><rect x="-1200" y="-1200" width="2400" height="2400" rx="1200" ry="1200" id="kSHry2imhxajVfts8HsP_pad-24"/><circle cx="0" cy="0" r="720" id="kSHry2imhxajVfts8HsP_pad-25"/><circle cx="0" cy="0" r="1500" id="kSHry2imhxajVfts8HsP_pad-26"/><circle cx="0" cy="0" r="1250" id="kSHry2imhxajVfts8HsP_pad-27"/><rect x="-800" y="-800" width="1600" height="1600" id="kSHry2imhxajVfts8HsP_pad-28"/><rect x="-800" y="-800" width="1600" height="1600" rx="800" ry="800" id="kSHry2imhxajVfts8HsP_pad-29"/></defs><g transform="translate(0,-67548.5) scale(1,-1)" fill="currentColor" stroke="currentColor"><use xlink:href="#kSHry2imhxajVfts8HsP_pad-10" x="44697.056" y="-7802.944"/><use xlink:href="#kSHry2imhxajVfts8HsP_pad-10" x="43000" y="-7100"/><use xlink:href="#kSHry2imhxajVfts8HsP_pad-10" x="41302.944" y="-7802.944"/><use xlink:href="#kSHry2imhxajVfts8HsP_pad-10" x="40600" y="-9500"/><use xlink:href="#kSHry2imhxajVfts8HsP_pad-10" x="41302.944" y="-11197.056"/><use xlink:href="#kSHry2imhxajVfts8HsP_pad-10" x="43000" y="-11900"/><use xlink:href="#kSHry2imhxajVfts8HsP_pad-10" x="44697.056" y="-11197.056"/><use xlink:href="#kSHry2imhxajVfts8HsP_pad-10" x="45400" y="-9500"/><use xlink:href="#kSHry2imhxajVfts8HsP_pad-11" x="43000" y="-9500"/><use xlink:href="#kSHry2imhxajVfts8HsP_pad-10" x="11197.056" y="-7802.944"/><use xlink:href="#kSHry2imhxajVfts8HsP_pad-10" x="9500" y="-7100"/><use xlink:href="#kSHry2imhxajVfts8HsP_pad-10" x="7802.944" y="-7802.944"/><use xlink:href="#kSHry2imhxajVfts8HsP_pad-10" x="7100" y="-9500"/><use xlink:href="#kSHry2imhxajVfts8HsP_pad-10" x="7802.944" y="-11197.056"/><use xlink:href="#kSHry2imhxajVfts8HsP_pad-10" x="9500" y="-11900"/><use xlink:href="#kSHry2imhxajVfts8HsP_pad-10" x="11197.056" y="-11197.056"/><use xlink:href="#kSHry2imhxajVfts8HsP_pad-10" x="11900" y="-9500"/><use xlink:href="#kSHry2imhxajVfts8HsP_pad-11" x="9500" y="-9500"/><use xlink:href="#kSHry2imhxajVfts8HsP_pad-10" x="44697.056" y="-55802.944"/><use xlink:href="#kSHry2imhxajVfts8HsP_pad-10" x="43000" y="-55100"/><use xlink:href="#kSHry2imhxajVfts8HsP_pad-10" x="41302.944" y="-55802.944"/><use xlink:href="#kSHry2imhxajVfts8HsP_pad-10" x="40600" y="-57500"/><use xlink:href="#kSHry2imhxajVfts8HsP_pad-10" x="41302.944" y="-59197.056"/><use xlink:href="#kSHry2imhxajVfts8HsP_pad-10" x="43000" y="-59900"/><use xlink:href="#kSHry2imhxajVfts8HsP_pad-10" x="44697.056" y="-59197.056"/><use xlink:href="#kSHry2imhxajVfts8HsP_pad-10" x="45400" y="-57500"/><use xlink:href="#kSHry2imhxajVfts8HsP_pad-11" x="43000" y="-57500"/><use xlink:href="#kSHry2imhxajVfts8HsP_pad-12" x="26500" y="-49500"/><use xlink:href="#kSHry2imhxajVfts8HsP_pad-12" x="26500" y="-54500"/><use xlink:href="#kSHry2imhxajVfts8HsP_pad-12" x="22500" y="-54500"/><use xlink:href="#kSHry2imhxajVfts8HsP_pad-12" x="22500" y="-49500"/><use xlink:href="#kSHry2imhxajVfts8HsP_pad-12" x="36500" y="-58500"/><use xlink:href="#kSHry2imhxajVfts8HsP_pad-12" x="31500" y="-58500"/><use xlink:href="#kSHry2imhxajVfts8HsP_pad-13" x="11840" y="-36130"/><use xlink:href="#kSHry2imhxajVfts8HsP_pad-14" x="22000" y="-36130"/><use xlink:href="#kSHry2imhxajVfts8HsP_pad-14" x="39000" y="-36130"/><use xlink:href="#kSHry2imhxajVfts8HsP_pad-13" x="28840" y="-36130"/><use xlink:href="#kSHry2imhxajVfts8HsP_pad-15" x="51500" y="-42500"/><use xlink:href="#kSHry2imhxajVfts8HsP_pad-15" x="51500" y="-47500"/><use xlink:href="#kSHry2imhxajVfts8HsP_pad-16" x="51500" y="-52500"/><use xlink:href="#kSHry2imhxajVfts8HsP_pad-17" x="42500" y="-42500"/><use xlink:href="#kSHry2imhxajVfts8HsP_pad-18" x="42500" y="-45040"/><use xlink:href="#kSHry2imhxajVfts8HsP_pad-18" x="42500" y="-47580"/><use xlink:href="#kSHry2imhxajVfts8HsP_pad-16" x="51500" y="-25500"/><use xlink:href="#kSHry2imhxajVfts8HsP_pad-15" x="51500" y="-30500"/><use xlink:href="#kSHry2imhxajVfts8HsP_pad-15" x="51500" y="-35500"/><use xlink:href="#kSHry2imhxajVfts8HsP_pad-16" x="51420" y="-13560"/><use xlink:href="#kSHry2imhxajVfts8HsP_pad-15" x="51420" y="-18560"/><use xlink:href="#kSHry2imhxajVfts8HsP_pad-19" x="8860" y="-54030"/><use xlink:href="#kSHry2imhxajVfts8HsP_pad-20" x="11400" y="-54030"/><use xlink:href="#kSHry2imhxajVfts8HsP_pad-20" x="10130" y="-51960"/><use xlink:href="#kSHry2imhxajVfts8HsP_pad-21" x="35830" y="-41230"/><use xlink:href="#kSHry2imhxajVfts8HsP_pad-21" x="37900" y="-39960"/><use xlink:href="#kSHry2imhxajVfts8HsP_pad-22" x="37900" y="-42500"/><use xlink:href="#kSHry2imhxajVfts8HsP_pad-23" x="26620" y="-45630"/><use xlink:href="#kSHry2imhxajVfts8HsP_pad-24" x="11380" y="-45630"/><use xlink:href="#kSHry2imhxajVfts8HsP_pad-23" x="11500" y="-58500"/><use xlink:href="#kSHry2imhxajVfts8HsP_pad-24" x="26740" y="-58500"/><use xlink:href="#kSHry2imhxajVfts8HsP_pad-24" x="27550" y="-40990"/><use xlink:href="#kSHry2imhxajVfts8HsP_pad-23" x="12310" y="-40990"/><use xlink:href="#kSHry2imhxajVfts8HsP_pad-25" x="19530" y="-51910"/><use xlink:href="#kSHry2imhxajVfts8HsP_pad-25" x="16990" y="-54450"/><use xlink:href="#kSHry2imhxajVfts8HsP_pad-25" x="14450" y="-51910"/><use xlink:href="#kSHry2imhxajVfts8HsP_pad-26" x="16840" y="-32130"/><use xlink:href="#kSHry2imhxajVfts8HsP_pad-27" x="10890" y="-30180"/><use xlink:href="#kSHry2imhxajVfts8HsP_pad-26" x="10840" y="-17930"/><use xlink:href="#kSHry2imhxajVfts8HsP_pad-26" x="22890" y="-17980"/><use xlink:href="#kSHry2imhxajVfts8HsP_pad-27" x="22890" y="-30180"/><use xlink:href="#kSHry2imhxajVfts8HsP_pad-28" x="30500" y="-46500"/><use xlink:href="#kSHry2imhxajVfts8HsP_pad-29" x="38120" y="-54120"/><use xlink:href="#kSHry2imhxajVfts8HsP_pad-29" x="30500" y="-49040"/><use xlink:href="#kSHry2imhxajVfts8HsP_pad-29" x="38120" y="-51580"/><use xlink:href="#kSHry2imhxajVfts8HsP_pad-29" x="30500" y="-51580"/><use xlink:href="#kSHry2imhxajVfts8HsP_pad-29" x="38120" y="-49040"/><use xlink:href="#kSHry2imhxajVfts8HsP_pad-29" x="30500" y="-54120"/><use xlink:href="#kSHry2imhxajVfts8HsP_pad-29" x="38120" y="-46500"/><use xlink:href="#kSHry2imhxajVfts8HsP_pad-27" x="40444.999" y="-30180"/><use xlink:href="#kSHry2imhxajVfts8HsP_pad-26" x="40444.999" y="-17980"/><use xlink:href="#kSHry2imhxajVfts8HsP_pad-26" x="28394.999" y="-17930"/><use xlink:href="#kSHry2imhxajVfts8HsP_pad-27" x="28444.999" y="-30180"/><use xlink:href="#kSHry2imhxajVfts8HsP_pad-26" x="34394.999" y="-32130"/><path d="M 26960 -49040 30500 -49040 M 26500 -49500 26960 -49040 M 39750.001 -47789.999 41650.001 -45889.999 42500 -45040 M 35440.001 -47789.999 39750.001 -47789.999 M 30500 -49040 34190 -49040 35440.001 -47789.999 M 26500 -58260 26740 -58500 M 26500 -54500 26500 -58260 M 30500 -57500 31500 -58500 M 30500 -54120 30500 -57500 M 30120 -54500 30500 -54120 M 26500 -54500 30120 -54500 M 22500 -54500 26500 -54500 M 40444.999 -34685.001 40444.999 -30180 M 39000 -36130 40444.999 -34685.001 M 49950 -25500 51500 -25500 M 43357.233 -25500 49950 -25500 M 40444.999 -28412.234 43357.233 -25500 M 40444.999 -30180 40444.999 -28412.234 M 39899.999 -35230.001 43709.999 -35230.001 M 39000 -36130 39899.999 -35230.001 M 43709.999 -35230.001 45910 -33030 53040 -33030 55190 -35180 M 53050 -52500 51500 -52500 M 55190 -50360 53050 -52500 M 55190 -35180 55190 -50360 M 11400 -51840 11400 -53630 M 13570 -49670 11400 -51840 M 20030 -49670 13570 -49670 M 22500 -54500 22500 -52140 20030 -49670 M 51500 -56500 51500 -52500 M 21810 -60850 22750 -61790 M 11400 -54250 8650 -57000 M 11400 -53630 11400 -54250 M 8650 -57000 8650 -60070 M 46210 -61790 51500 -56500 M 8650 -60070 9430 -60850 M 22750 -61790 46210 -61790 M 9430 -60850 21810 -60850 M 26370 -45630 26620 -45630 M 22500 -49500 26370 -45630 M 21700.001 -48700.001 22500 -49500 M 11289.999 -48700.001 21700.001 -48700.001 M 10130 -49860 11289.999 -48700.001 M 10130 -52360 10130 -49860 M 34849.999 -60150.001 36500 -58500 M 23760.001 -60150.001 34849.999 -60150.001 M 16990 -54450 17709.999 -55169.999 M 18779.999 -55169.999 23760.001 -60150.001 M 17709.999 -55169.999 18779.999 -55169.999 M 36500 -57300 36500 -58500 M 36500 -54320 36500 -57300 M 30500 -51580 33760 -51580 36500 -54320 M 12840 -32130 10890 -30180 M 16840 -32130 12840 -32130" fill="none" stroke-width="500"/><path d="M 34394.999 -30874.999 34394.999 -32130 M 30910 -27390 34394.999 -30874.999 M 19580 -27390 30910 -27390 M 16840 -32130 16840 -30130 19580 -27390 M 48850 -38150 51500 -35500 M 34394.999 -32130 34394.999 -35624.999 36920 -38150" fill="none" stroke-width="1500"/><path d="M 38970 -42500 43310 -38160 M 37500 -42500 38970 -42500" fill="none" stroke-width="500"/><path d="M 36920 -38150 43310 -38160 48850 -38150" fill="none" stroke-width="1500"/><path d="M 11840 -31130 11840 -36130 M 10890 -30180 11840 -31130 M 38120 -43120 38120 -46500 M 37500 -42500 38120 -43120 M 52549.999 -36549.999 51500 -35500 M 54040 -38040 52549.999 -36549.999 M 54040 -48800 54040 -38040 M 40900 -50180 52660 -50180 M 40090 -50990 40900 -50180 M 52660 -50180 54040 -48800 M 15450 -53180 15450 -55670 M 19530 -51910 16720 -51910 M 23390 -60980 36520 -60980 M 16020 -56240 18650 -56240 23390 -60980 M 16720 -51910 15450 -53180 M 36520 -60980 38050 -59450 38050 -56690 40090 -54650 M 15450 -55670 16020 -56240 M 40090 -54650 40090 -50990 M 22000 -31070 22890 -30180 M 22000 -36130 22000 -31070 M 10750 -47710 8860 -49600 M 11400 -38530 10210 -39720 M 12580 -38530 11400 -38530 M 22000 -36130 14980 -36130 M 10210 -42290 11100 -43180 M 14980 -36130 12580 -38530 M 10210 -39720 10210 -42290 M 11100 -43180 12650 -43180 13600 -44130 13600 -46800 12690 -47710 M 8860 -49600 8860 -53630 M 12690 -47710 10750 -47710 M 28444.999 -35734.999 28840 -36130 M 28444.999 -30180 28444.999 -35734.999 M 30940 -39960 37500 -39960 M 28840 -36130 28840 -37860 30940 -39960 M 50015.076 -42500 42500 -42500 M 51500 -42500 50015.076 -42500 M 51420 -47580 51500 -47500 M 42500 -47580 51420 -47580 M 53200 -30500 51500 -30500 M 54280 -23860 54280 -29420 M 9830 -45630 8610 -44410 M 53430 -23010 54280 -23860 M 11380 -45630 9830 -45630 M 8610 -44410 8610 -27050 M 54280 -29420 53200 -30500 M 12650 -23010 53430 -23010 M 8610 -27050 12650 -23010" fill="none" stroke-width="500"/><path d="M 22890 -16600 22890 -17980 M 24620 -14870 22890 -16600 M 51420 -13560 50110 -14870 24620 -14870 M 50840 -17980 40444.999 -17980 M 51420 -18560 50840 -17980" fill="none" stroke-width="1500"/><path d="M 14920 -38380 12310 -40990 M 27650 -38380 14920 -38380 M 36230 -41230 30500 -41230 27650 -38380 M 14450 -55550 14450 -51910 M 11500 -58500 14450 -55550 M 30500 -43940 30500 -46500 M 27550 -40990 30500 -43940" fill="none" stroke-width="500"/><path d="M 59433.621 -5528.502 59480.114 -5582.158 59491.5 -5634.5 59491.5 -61865.5 59471.498 -61933.621 59417.842 -61980.114 59365.5 -61991.5 36543.939 -61991.5 36501.651 -61979.083 36476.414 -61990.36 36459.503 -61991.5 23365.962 -61991.5 23344.998 -61985.344 23337.872 -61989.074 23313.264 -61991.5 5634.5 -61991.5 5566.379 -61971.498 5519.886 -61917.842 5508.5 -61865.5 5508.5 -54978.134 7801.5 -54978.134 7808.255 -55040.316 7859.385 -55176.705 7946.739 -55293.261 8063.295 -55380.615 8199.684 -55431.745 8261.866 -55438.5 9458.134 -55438.5 9520.316 -55431.745 9656.705 -55380.615 9773.261 -55293.261 9860.615 -55176.705 9911.745 -55040.316 9918.5 -54978.134 9918.5 -54739.122 10342.001 -54739.122 10342.051 -54740.851 10343.47 -54750.771 10380.2 -54909.867 10384.85 -54923.07 10455.171 -55068.535 10462.637 -55080.391 10563.439 -55206.665 10573.335 -55216.561 10699.609 -55317.363 10711.465 -55324.829 10856.93 -55395.15 10870.133 -55399.8 11029.236 -55436.532 11039.133 -55437.949 11040.907 -55438 11127.885 -55438 11143.124 -55433.525 11144.329 -55432.135 11146 -55424.452 11146 -55419.884 11654 -55419.884 11658.475 -55435.123 11659.865 -55436.328 11667.548 -55437.999 11759.122 -55437.999 11760.851 -55437.949 11770.771 -55436.53 11929.867 -55399.8 11943.07 -55395.15 12088.535 -55324.829 12100.391 -55317.363 12226.665 -55216.561 12236.561 -55206.665 12337.363 -55080.391 12344.829 -55068.535 12415.15 -54923.07 12419.8 -54909.867 12456.532 -54750.764 12457.949 -54740.867 12458 -54739.093 12458 -54302.115 12453.525 -54286.876 12452.135 -54285.671 12444.452 -54284 11672.115 -54284 11656.876 -54288.475 11655.671 -54289.865 11654 -54297.548 11654 -55419.884 11146 -55419.884 11146 -54302.115 11141.525 -54286.876 11140.135 -54285.671 11132.452 -54284 10360.116 -54284 10344.877 -54288.475 10343.672 -54289.865 10342.001 -54297.548 10342.001 -54739.122 9918.5 -54739.122 9918.5 -53494.5 9938.502 -53426.379 9992.158 -53379.886 10044.5 -53368.5 10216 -53368.5 10284.121 -53388.502 10330.614 -53442.158 10342 -53494.5 10342 -53757.885 10346.475 -53773.124 10347.865 -53774.329 10355.548 -53776 11127.885 -53776 11143.124 -53771.525 11144.329 -53770.135 11146 -53762.452 11146 -53757.885 11654 -53757.885 11658.475 -53773.124 11659.865 -53774.329 11667.548 -53776 12439.884 -53776 12455.123 -53771.525 12456.328 -53770.135 12457.999 -53762.452 12457.999 -53320.878 12457.949 -53319.149 12456.53 -53309.229 12419.8 -53150.133 12415.15 -53136.93 12344.829 -52991.465 12337.363 -52979.609 12236.561 -52853.335 12226.665 -52843.439 12100.391 -52742.637 12088.535 -52735.171 11943.07 -52664.85 11929.867 -52660.2 11770.764 -52623.468 11760.867 -52622.051 11759.093 -52622 11672.115 -52622 11656.876 -52626.475 11655.671 -52627.865 11654 -52635.548 11654 -53757.885 11146 -53757.885 11146 -52872.909 11149.229 -52844.565 11185.248 -52688.551 11188.233 -52675.623 11188.5 -52670.992 11188.5 -51249.008 11188.233 -51244.377 11148.691 -51073.105 11095.059 -50962.16 11075.255 -50921.193 11075.254 -50921.191 11072.188 -50914.849 10962.524 -50777.476 10935.891 -50756.215 10895.132 -50698.084 10888.5 -50657.744 10888.5 -50226.371 10908.502 -50158.25 10925.405 -50137.276 11567.275 -49495.406 11629.587 -49461.38 11656.37 -49458.501 21067.413 -49458.501 21135.534 -49478.503 21182.027 -49532.159 21192.934 -49573.519 21206.457 -49728.087 21207.881 -49733.4 21207.881 -49733.402 21249.359 -49888.197 21265.716 -49949.243 21268.039 -49954.224 21268.039 -49954.225 21360.151 -50151.762 21360.154 -50151.767 21362.477 -50156.749 21493.802 -50344.3 21655.7 -50506.198 21660.208 -50509.355 21660.211 -50509.357 21662.065 -50510.655 21843.251 -50637.523 21848.233 -50639.846 21848.238 -50639.849 21997.858 -50709.617 22050.757 -50734.284 22056.065 -50735.706 22056.067 -50735.707 22266.598 -50792.119 22266.6 -50792.119 22271.913 -50793.543 22500 -50813.498 22728.087 -50793.543 22733.4 -50792.119 22733.402 -50792.119 22943.933 -50735.707 22943.935 -50735.706 22949.243 -50734.284 23002.142 -50709.617 23151.762 -50639.849 23151.767 -50639.846 23156.749 -50637.523 23337.935 -50510.655 23339.789 -50509.357 23339.792 -50509.355 23344.3 -50506.198 23506.198 -50344.3 23637.523 -50156.749 23639.846 -50151.767 23639.849 -50151.762 23731.961 -49954.225 23731.961 -49954.224 23734.284 -49949.243 23750.642 -49888.197 23792.119 -49733.402 23792.119 -49733.4 23793.543 -49728.087 23813.498 -49500 23807.597 -49432.551 23799.245 -49337.087 23813.234 -49267.482 23835.671 -49237.01 25832.457 -47240.224 25894.769 -47206.198 25963.093 -47210.364 26172.151 -47283.37 26172.157 -47283.372 26176.568 -47284.912 26426.05 -47332.278 26546.532 -47337.011 26675.125 -47342.064 26675.13 -47342.064 26679.793 -47342.247 26778.774 -47331.407 26927.569 -47315.112 26927.575 -47315.111 26932.222 -47314.602 26979.56 -47302.139 27173.273 -47251.138 27177.793 -47249.948 27306.15 -47194.802 27406.807 -47151.557 27406.81 -47151.555 27411.11 -47149.708 27415.09 -47147.245 27415.094 -47147.243 27623.064 -47018.547 27623.066 -47018.545 27627.047 -47016.082 27684.495 -46967.449 27817.289 -46855.031 27817.291 -46855.029 27820.862 -46852.006 27988.295 -46661.084 28038.488 -46583.051 28123.141 -46451.442 28125.669 -46447.512 28229.967 -46215.98 28298.896 -45971.575 28315.788 -45838.798 28330.545 -45722.798 28330.545 -45722.792 28330.943 -45719.667 28333.291 -45630 28329.612 -45580.497 28314.818 -45381.411 28314.817 -45381.407 28314.472 -45376.759 28312.521 -45368.133 28259.459 -45133.639 28258.428 -45129.082 28250.372 -45108.366 28168.084 -44896.762 28168.083 -44896.76 28166.391 -44892.409 28145.866 -44856.498 28042.702 -44675.997 28042.7 -44675.995 28040.383 -44671.94 27883.171 -44472.517 27698.209 -44298.523 27551.965 -44197.07 27493.393 -44156.437 27493.39 -44156.435 27489.561 -44153.779 27485.384 -44151.719 27485.377 -44151.715 27265.996 -44043.528 27265.992 -44043.527 27261.81 -44041.464 27019.96 -43964.047 26991.156 -43959.356 26773.935 -43923.98 26773.934 -43923.98 26769.323 -43923.229 26642.364 -43921.567 26520.083 -43919.966 26520.08 -43919.966 26515.406 -43919.905 26263.787 -43954.149 26019.993 -44025.208 26015.74 -44027.168 26015.739 -44027.169 25980.254 -44043.528 25789.38 -44131.522 25785.471 -44134.085 25580.928 -44268.189 25580.923 -44268.193 25577.015 -44270.755 25537.111 -44306.371 25442.691 -44390.644 25387.562 -44439.848 25225.183 -44635.087 25093.447 -44852.182 25091.638 -44856.496 25091.637 -44856.498 25002.65 -45068.709 24995.246 -45086.365 24932.738 -45332.49 24907.296 -45585.151 24907.52 -45589.817 24907.52 -45589.822 24913.606 -45716.51 24919.48 -45838.798 24920.392 -45843.383 24934.387 -45913.739 24928.059 -45984.453 24899.903 -46027.416 22762.99 -48164.329 22700.678 -48198.355 22662.913 -48200.755 22505.475 -48186.981 22500 -48186.502 22341.308 -48200.386 22271.703 -48186.397 22248.746 -48170.889 22218.232 -48144.965 22210.717 -48138.036 22205.022 -48132.341 22198.881 -48127.483 22182.75 -48114.72 22179.346 -48111.929 22129.298 -48069.41 22129.296 -48069.409 22123.716 -48064.668 22117.2 -48061.34 22112.151 -48057.973 22107.022 -48054.806 22101.285 -48050.267 22035.126 -48019.346 22031.226 -48017.44 21966.193 -47984.232 21959.085 -47982.493 21953.442 -47980.394 21947.679 -47978.477 21941.051 -47975.379 21869.584 -47960.514 21865.3 -47959.544 21865.002 -47959.471 21794.391 -47942.193 21788.789 -47941.845 21788.786 -47941.845 21783.237 -47941.501 21783.239 -47941.465 21779.246 -47941.226 21775.054 -47940.852 21767.886 -47939.361 21701.676 -47941.152 21690.48 -47941.455 21687.073 -47941.501 13835.37 -47941.501 13767.249 -47921.499 13720.756 -47867.843 13710.652 -47797.569 13740.146 -47732.989 13746.275 -47726.406 14088.911 -47383.77 14103.323 -47371.384 14114.918 -47362.851 14114.923 -47362.846 14120.818 -47358.508 14125.557 -47352.93 14125.56 -47352.927 14155.035 -47318.232 14161.965 -47310.716 14167.66 -47305.021 14172.518 -47298.88 14185.281 -47282.749 14188.072 -47279.345 14230.591 -47229.297 14230.592 -47229.295 14235.333 -47223.715 14238.661 -47217.199 14242.028 -47212.15 14245.195 -47207.021 14249.734 -47201.284 14280.655 -47135.125 14282.561 -47131.225 14286.177 -47124.144 14315.769 -47066.192 14317.508 -47059.084 14319.607 -47053.441 14321.524 -47047.678 14324.622 -47041.05 14327.463 -47027.394 14339.486 -46969.588 14340.457 -46965.299 14356.473 -46899.845 14357.808 -46894.39 14358.5 -46883.236 14358.536 -46883.238 14358.775 -46879.245 14359.149 -46875.053 14360.64 -46867.885 14358.546 -46790.479 14358.5 -46787.072 14358.5 -44197.07 14359.933 -44178.12 14362.099 -44163.885 14362.099 -44163.881 14363.199 -44156.651 14358.915 -44103.982 14358.5 -44093.767 14358.5 -44085.707 14355.209 -44057.48 14354.778 -44053.121 14354.489 -44049.568 14348.86 -43980.364 14346.605 -43973.403 14345.418 -43967.463 14344.029 -43961.588 14343.182 -43954.319 14318.264 -43885.67 14316.847 -43881.542 14296.607 -43819.064 14296.606 -43819.062 14294.351 -43812.101 14290.555 -43805.846 14288.049 -43800.372 14285.33 -43794.942 14282.833 -43788.063 14268.794 -43766.65 14242.814 -43727.024 14240.467 -43723.305 14202.595 -43660.893 14195.197 -43652.516 14195.224 -43652.492 14192.571 -43649.5 14189.868 -43646.267 14185.856 -43640.148 14129.617 -43586.872 14127.175 -43584.494 13233.77 -42691.089 13221.384 -42676.677 13212.851 -42665.082 13212.846 -42665.077 13208.508 -42659.182 13202.929 -42654.443 13202.926 -42654.439 13193.376 -42646.326 13154.412 -42586.977 13153.72 -42515.984 13191.519 -42455.886 13208.653 -42443.158 13208.985 -42442.953 13317.047 -42376.082 13320.624 -42373.054 13507.289 -42215.031 13507.291 -42215.029 13510.862 -42212.006 13678.295 -42021.084 13680.982 -42016.908 13813.141 -41811.442 13815.669 -41807.512 13919.967 -41575.98 13988.896 -41331.575 14011.865 -41151.029 14020.545 -41082.798 14020.545 -41082.792 14020.943 -41079.667 14021.353 -41064.033 14023.208 -40993.16 14023.291 -40990 14016.993 -40905.255 14004.818 -40741.411 14004.817 -40741.407 14004.472 -40736.759 13951.8 -40503.984 13956.274 -40433.131 13985.598 -40387.083 15197.276 -39175.405 15259.588 -39141.379 15286.371 -39138.5 26914.045 -39138.5 26982.166 -39158.502 27028.659 -39212.158 27038.763 -39282.432 27009.269 -39347.012 26958.169 -39382.522 26954.492 -39383.897 26949.993 -39385.208 26719.38 -39491.522 26715.471 -39494.085 26510.928 -39628.189 26510.923 -39628.193 26507.015 -39630.755 26317.562 -39799.848 26155.183 -39995.087 26023.447 -40212.182 25925.246 -40446.365 25862.738 -40692.49 25837.296 -40945.151 25837.52 -40949.817 25837.52 -40949.822 25840.817 -41018.449 25849.48 -41198.798 25859.088 -41247.1 25897.757 -41441.5 25899.021 -41447.857 25900.6 -41452.255 25900.602 -41452.262 25964.367 -41629.862 25984.831 -41686.858 25987.048 -41690.984 26080.729 -41865.333 26105.025 -41910.551 26107.82 -41914.294 26107.822 -41914.297 26254.171 -42110.282 26254.176 -42110.288 26256.963 -42114.02 26260.272 -42117.3 26260.277 -42117.306 26407.601 -42263.349 26437.307 -42292.797 26441.069 -42295.555 26441.072 -42295.558 26493.9 -42334.293 26642.094 -42442.953 26646.229 -42445.129 26646.233 -42445.131 26750.522 -42500 26866.827 -42561.191 26940.667 -42586.977 27065.499 -42630.57 27106.568 -42644.912 27356.05 -42692.278 27476.532 -42697.011 27605.125 -42702.064 27605.13 -42702.064 27609.793 -42702.247 27708.774 -42691.407 27857.569 -42675.112 27857.575 -42675.111 27862.222 -42674.602 27898.382 -42665.082 28029.467 -42630.57 28100.436 -42632.569 28150.642 -42663.323 29704.595 -44217.276 29738.621 -44279.588 29741.5 -44306.371 29741.5 -45068.709 29721.498 -45136.83 29667.842 -45183.323 29629.108 -45193.972 29616.914 -45195.297 29589.684 -45198.255 29453.295 -45249.385 29336.739 -45336.739 29249.385 -45453.295 29198.255 -45589.684 29191.5 -45651.866 29191.5 -47348.134 29198.255 -47410.316 29249.385 -47546.705 29336.739 -47663.261 29453.295 -47750.615 29589.684 -47801.745 29600.474 -47802.917 29602.606 -47803.803 29605.222 -47804.425 29605.121 -47804.848 29666.035 -47830.155 29706.463 -47888.517 29708.922 -47959.471 29672.629 -48020.49 29663.969 -48027.489 29660.207 -48030.646 29655.7 -48033.802 29493.802 -48195.7 29471.345 -48227.771 29415.89 -48272.099 29368.133 -48281.5 27027.069 -48281.5 27008.121 -48280.067 26986.651 -48276.801 26986.65 -48276.801 26986.912 -48275.081 26959.88 -48268.591 26959.396 -48269.922 26954.233 -48268.043 26949.243 -48265.716 26756.055 -48213.951 26733.402 -48207.881 26733.4 -48207.881 26728.087 -48206.457 26500 -48186.502 26271.913 -48206.457 26266.6 -48207.881 26266.598 -48207.881 26056.067 -48264.293 26056.065 -48264.294 26050.757 -48265.716 26045.776 -48268.039 26045.775 -48268.039 25848.238 -48360.151 25848.233 -48360.154 25843.251 -48362.477 25768.712 -48414.67 25660.211 -48490.643 25660.208 -48490.645 25655.7 -48493.802 25493.802 -48655.7 25490.645 -48660.208 25490.643 -48660.211 25467.455 -48693.327 25362.477 -48843.251 25360.154 -48848.233 25360.151 -48848.238 25281.816 -49016.23 25265.716 -49050.757 25264.294 -49056.065 25264.293 -49056.067 25208.357 -49264.823 25206.457 -49271.913 25186.502 -49500 25206.457 -49728.087 25207.881 -49733.4 25207.881 -49733.402 25249.359 -49888.197 25265.716 -49949.243 25268.039 -49954.224 25268.039 -49954.225 25360.151 -50151.762 25360.154 -50151.767 25362.477 -50156.749 25493.802 -50344.3 25655.7 -50506.198 25660.208 -50509.355 25660.211 -50509.357 25662.065 -50510.655 25843.251 -50637.523 25848.233 -50639.846 25848.238 -50639.849 25997.858 -50709.617 26050.757 -50734.284 26056.065 -50735.706 26056.067 -50735.707 26266.598 -50792.119 26266.6 -50792.119 26271.913 -50793.543 26500 -50813.498 26728.087 -50793.543 26733.4 -50792.119 26733.402 -50792.119 26943.933 -50735.707 26943.935 -50735.706 26949.243 -50734.284 27002.142 -50709.617 27151.762 -50639.849 27151.767 -50639.846 27156.749 -50637.523 27337.935 -50510.655 27339.789 -50509.357 27339.792 -50509.355 27344.3 -50506.198 27506.198 -50344.3 27637.523 -50156.749 27639.846 -50151.767 27639.849 -50151.762 27731.959 -49954.228 27734.284 -49949.243 27749.652 -49891.889 27786.603 -49831.266 27850.464 -49800.245 27871.359 -49798.5 29368.133 -49798.5 29436.254 -49818.502 29471.345 -49852.228 29493.802 -49884.3 29655.7 -50046.198 29660.208 -50049.355 29660.211 -50049.357 29738.389 -50104.098 29843.251 -50177.523 29848.233 -50179.846 29848.238 -50179.849 29882.457 -50195.805 29935.742 -50242.722 29955.203 -50310.999 29934.661 -50378.959 29882.457 -50424.195 29848.238 -50440.151 29848.233 -50440.154 29843.251 -50442.477 29782.552 -50484.979 29660.211 -50570.643 29660.208 -50570.645 29655.7 -50573.802 29493.802 -50735.7 29490.645 -50740.208 29490.643 -50740.211 29467.626 -50773.083 29362.477 -50923.251 29360.154 -50928.233 29360.151 -50928.238 29292.599 -51073.105 29265.716 -51130.757 29264.294 -51136.065 29264.293 -51136.067 29207.881 -51346.598 29206.457 -51351.913 29186.502 -51580 29206.457 -51808.087 29207.881 -51813.4 29207.881 -51813.402 29224.926 -51877.012 29265.716 -52029.243 29268.039 -52034.224 29268.039 -52034.225 29360.151 -52231.762 29360.154 -52231.767 29362.477 -52236.749 29493.802 -52424.3 29655.7 -52586.198 29660.208 -52589.355 29660.211 -52589.357 29706.83 -52622 29843.251 -52717.523 29848.233 -52719.846 29848.238 -52719.849 29883.049 -52736.081 29936.334 -52782.998 29955.795 -52851.275 29935.253 -52919.235 29883.049 -52964.471 29848.489 -52980.586 29838.993 -52986.069 29660.533 -53111.028 29652.125 -53118.084 29498.084 -53272.125 29491.028 -53280.533 29366.069 -53458.993 29360.586 -53468.489 29268.51 -53665.947 29264.764 -53676.239 29218.606 -53848.503 29218.942 -53862.599 29226.884 -53866 31767.967 -53866 31781.498 -53862.027 31782.727 -53853.478 31735.236 -53676.239 31731.49 -53665.947 31639.414 -53468.489 31633.931 -53458.993 31508.972 -53280.533 31501.916 -53272.125 31347.875 -53118.084 31339.467 -53111.028 31161.007 -52986.069 31151.511 -52980.586 31116.951 -52964.471 31063.666 -52917.554 31044.205 -52849.277 31064.747 -52781.317 31116.951 -52736.081 31151.762 -52719.849 31151.767 -52719.846 31156.749 -52717.523 31293.17 -52622 31339.789 -52589.357 31339.792 -52589.355 31344.3 -52586.198 31506.198 -52424.3 31528.655 -52392.229 31584.11 -52347.901 31631.867 -52338.5 33393.629 -52338.5 33461.75 -52358.502 33482.724 -52375.405 35704.595 -54597.276 35738.621 -54659.588 35741.5 -54686.371 35741.5 -57368.133 35721.498 -57436.254 35687.772 -57471.345 35655.7 -57493.802 35493.802 -57655.7 35490.645 -57660.208 35490.643 -57660.211 35447.251 -57722.182 35362.477 -57843.251 35360.154 -57848.233 35360.151 -57848.238 35307.546 -57961.052 35265.716 -58050.757 35264.294 -58056.065 35264.293 -58056.067 35207.881 -58266.598 35206.457 -58271.913 35186.502 -58500 35186.981 -58505.475 35200.755 -58662.913 35186.766 -58732.518 35164.329 -58762.99 34572.723 -59354.596 34510.411 -59388.622 34483.628 -59391.501 32714.581 -59391.501 32646.46 -59371.499 32599.967 -59317.843 32589.863 -59247.569 32611.368 -59193.23 32633.931 -59161.007 32639.414 -59151.511 32731.49 -58954.053 32735.236 -58943.761 32791.625 -58733.312 32793.528 -58722.519 32812.517 -58505.475 32812.517 -58494.525 32793.528 -58277.481 32791.625 -58266.688 32735.236 -58056.239 32731.49 -58045.947 32639.414 -57848.489 32633.931 -57838.994 32597.491 -57786.952 32587.012 -57778.576 32573.566 -57785.644 31589.095 -58770.115 31526.783 -58804.141 31455.968 -58799.076 31410.905 -58770.115 30425.713 -57784.923 30413.938 -57778.493 30401.923 -57787.789 30366.069 -57838.994 30360.586 -57848.489 30268.51 -58045.947 30264.764 -58056.239 30208.375 -58266.688 30206.472 -58277.481 30187.483 -58494.525 30187.483 -58505.475 30206.472 -58722.519 30208.375 -58733.312 30264.764 -58943.761 30268.51 -58954.053 30360.586 -59151.511 30366.069 -59161.007 30388.632 -59193.23 30411.32 -59260.504 30394.035 -59329.365 30342.265 -59377.949 30285.419 -59391.501 28406.743 -59391.501 28338.622 -59371.499 28292.129 -59317.843 28282.025 -59247.569 28291.861 -59213.75 28347.572 -59090.076 28350.767 -59081.298 28417.135 -58845.973 28418.993 -58836.844 28427.246 -58771.969 28424.958 -58757.708 28411.938 -58754 25067.096 -58754 25054.695 -58757.641 25052.852 -58773.46 25088.593 -58953.143 25091.082 -58962.118 25173.708 -59192.25 25177.503 -59200.774 25180.238 -59205.864 25194.86 -59275.339 25169.601 -59341.69 25112.479 -59383.852 25069.245 -59391.501 24126.372 -59391.501 24058.251 -59371.499 24037.277 -59354.596 22910.657 -58227.976 25050.675 -58227.976 25053.435 -58242.703 25065.614 -58246 26467.885 -58246 26483.124 -58241.525 26484.329 -58240.135 26486 -58232.452 26486 -58227.885 26994 -58227.885 26998.475 -58243.124 26999.865 -58244.329 27007.548 -58246 28415.671 -58246 28429.202 -58242.027 28430.634 -58232.068 28378.979 -58003.786 28376.255 -57994.875 28287.633 -57766.983 28283.619 -57758.567 28162.286 -57546.281 28157.07 -57538.548 28058.087 -57412.988 30778.576 -57412.988 30785.644 -57426.434 31487.188 -58127.978 31501.132 -58135.592 31502.965 -58135.461 31509.58 -58131.21 32215.077 -57425.713 32221.507 -57413.938 32212.211 -57401.923 32161.006 -57366.069 32151.511 -57360.586 31954.053 -57268.51 31943.761 -57264.764 31733.312 -57208.375 31722.519 -57206.472 31505.475 -57187.483 31494.525 -57187.483 31277.481 -57206.472 31266.688 -57208.375 31056.239 -57264.764 31045.947 -57268.51 30848.489 -57360.586 30838.994 -57366.069 30786.952 -57402.509 30778.576 -57412.988 28058.087 -57412.988 28005.692 -57346.525 27999.399 -57339.657 27821.294 -57172.112 27814.06 -57166.254 27613.141 -57026.872 27605.115 -57022.144 27385.81 -56913.995 27377.177 -56910.507 27144.288 -56835.958 27135.238 -56833.785 27011.88 -56813.696 26998.286 -56815.393 26994 -56829.5 26994 -58227.885 26486 -58227.885 26486 -56828.859 26481.982 -56815.175 26468.29 -56813.154 26388.521 -56824.01 26379.403 -56825.948 26144.668 -56894.367 26135.915 -56897.639 25913.869 -57000.004 25905.714 -57004.524 25701.233 -57138.587 25693.828 -57144.27 25511.413 -57307.082 25504.935 -57313.79 25348.584 -57501.781 25343.163 -57509.381 25216.322 -57718.409 25212.084 -57726.726 25117.529 -57952.214 25114.572 -57961.052 25054.382 -58198.048 25052.764 -58207.228 25050.675 -58227.976 22910.657 -58227.976 20268.743 -55586.062 21778.493 -55586.062 21787.789 -55598.077 21838.994 -55633.931 21848.489 -55639.414 22045.947 -55731.49 22056.239 -55735.236 22266.688 -55791.625 22277.481 -55793.528 22494.525 -55812.517 22505.475 -55812.517 22722.519 -55793.528 22733.312 -55791.625 22943.761 -55735.236 22954.053 -55731.49 23151.511 -55639.414 23161.006 -55633.931 23213.048 -55597.491 23221.424 -55587.012 23220.925 -55586.062 25778.493 -55586.062 25787.789 -55598.077 25838.994 -55633.931 25848.489 -55639.414 26045.947 -55731.49 26056.239 -55735.236 26266.688 -55791.625 26277.481 -55793.528 26494.525 -55812.517 26505.475 -55812.517 26722.519 -55793.528 26733.312 -55791.625 26943.761 -55735.236 26954.053 -55731.49 27151.511 -55639.414 27161.006 -55633.931 27213.048 -55597.491 27221.424 -55587.012 27214.356 -55573.566 26512.812 -54872.022 26498.868 -54864.408 26497.035 -54864.539 26490.42 -54868.79 25784.923 -55574.287 25778.493 -55586.062 23220.925 -55586.062 23214.356 -55573.566 22512.812 -54872.022 22498.868 -54864.408 22497.035 -54864.539 22490.42 -54868.79 21784.923 -55574.287 21778.493 -55586.062 20268.743 -55586.062 19363.769 -54681.088 19351.383 -54666.676 19342.85 -54655.081 19342.845 -54655.076 19338.507 -54649.181 19332.929 -54644.442 19332.926 -54644.439 19298.231 -54614.964 19290.715 -54608.034 19285.02 -54602.339 19278.62 -54597.276 19262.748 -54584.718 19259.344 -54581.927 19209.296 -54539.408 19209.294 -54539.407 19203.714 -54534.666 19197.198 -54531.338 19192.149 -54527.971 19187.02 -54524.804 19181.283 -54520.265 19149.638 -54505.475 21187.483 -54505.475 21206.472 -54722.519 21208.375 -54733.312 21264.764 -54943.761 21268.51 -54954.053 21360.586 -55151.511 21366.069 -55161.006 21402.509 -55213.048 21412.988 -55221.424 21426.434 -55214.356 22127.978 -54512.812 22134.356 -54501.132 22864.408 -54501.132 22864.539 -54502.965 22868.79 -54509.58 23574.287 -55215.077 23586.062 -55221.507 23598.077 -55212.211 23633.931 -55161.006 23639.414 -55151.511 23731.49 -54954.053 23735.236 -54943.761 23791.625 -54733.312 23793.528 -54722.519 23812.517 -54505.475 25187.483 -54505.475 25206.472 -54722.519 25208.375 -54733.312 25264.764 -54943.761 25268.51 -54954.053 25360.586 -55151.511 25366.069 -55161.006 25402.509 -55213.048 25412.988 -55221.424 25426.434 -55214.356 26127.978 -54512.812 26134.356 -54501.132 26864.408 -54501.132 26864.539 -54502.965 26868.79 -54509.58 27574.287 -55215.077 27586.062 -55221.507 27598.077 -55212.211 27633.931 -55161.006 27639.414 -55151.511 27731.49 -54954.053 27735.236 -54943.761 27791.625 -54733.312 27793.528 -54722.519 27812.517 -54505.475 27812.517 -54494.525 27803.068 -54386.522 29217.273 -54386.522 29264.764 -54563.761 29268.51 -54574.053 29360.586 -54771.511 29366.069 -54781.007 29491.028 -54959.467 29498.084 -54967.875 29652.125 -55121.916 29660.533 -55128.972 29838.993 -55253.931 29848.489 -55259.414 30045.947 -55351.49 30056.239 -55355.236 30228.503 -55401.394 30242.599 -55401.058 30246 -55393.116 30246 -55387.967 30754 -55387.967 30757.973 -55401.498 30766.522 -55402.727 30943.761 -55355.236 30954.053 -55351.49 31151.511 -55259.414 31161.007 -55253.931 31339.467 -55128.972 31347.875 -55121.916 31501.916 -54967.875 31508.972 -54959.467 31633.931 -54781.007 31639.414 -54771.511 31731.49 -54574.053 31735.236 -54563.761 31781.394 -54391.497 31781.058 -54377.401 31773.116 -54374 30772.115 -54374 30756.876 -54378.475 30755.671 -54379.865 30754 -54387.548 30754 -55387.967 30246 -55387.967 30246 -54392.115 30241.525 -54376.876 30240.135 -54375.671 30232.452 -54374 29232.033 -54374 29218.502 -54377.973 29217.273 -54386.522 27803.068 -54386.522 27793.528 -54277.481 27791.625 -54266.688 27735.236 -54056.239 27731.49 -54045.947 27639.414 -53848.489 27633.931 -53838.994 27597.491 -53786.952 27587.012 -53778.576 27573.566 -53785.644 26872.022 -54487.188 26864.408 -54501.132 26134.356 -54501.132 26135.592 -54498.868 26135.461 -54497.035 26131.21 -54490.42 25425.713 -53784.923 25413.938 -53778.493 25401.923 -53787.789 25366.069 -53838.994 25360.586 -53848.489 25268.51 -54045.947 25264.764 -54056.239 25208.375 -54266.688 25206.472 -54277.481 25187.483 -54494.525 25187.483 -54505.475 23812.517 -54505.475 23812.517 -54494.525 23793.528 -54277.481 23791.625 -54266.688 23735.236 -54056.239 23731.49 -54045.947 23639.414 -53848.489 23633.931 -53838.994 23597.491 -53786.952 23587.012 -53778.576 23573.566 -53785.644 22872.022 -54487.188 22864.408 -54501.132 22134.356 -54501.132 22135.592 -54498.868 22135.461 -54497.035 22131.21 -54490.42 21425.713 -53784.923 21413.938 -53778.493 21401.923 -53787.789 21366.069 -53838.994 21360.586 -53848.489 21268.51 -54045.947 21264.764 -54056.239 21208.375 -54266.688 21206.472 -54277.481 21187.483 -54494.525 21187.483 -54505.475 19149.638 -54505.475 19115.124 -54489.344 19111.224 -54487.438 19046.191 -54454.23 19039.083 -54452.491 19033.44 -54450.392 19027.677 -54448.475 19021.049 -54445.377 18949.582 -54430.512 18945.298 -54429.542 18874.389 -54412.191 18868.787 -54411.843 18868.784 -54411.843 18863.235 -54411.499 18863.237 -54411.463 18859.244 -54411.224 18855.052 -54410.85 18847.884 -54409.359 18781.674 -54411.15 18770.478 -54411.453 18767.071 -54411.499 18335.283 -54411.499 18267.162 -54391.497 18220.669 -54337.841 18209.762 -54296.481 18209.183 -54289.865 18204.458 -54235.858 18177.557 -54135.461 18150.245 -54033.533 18150.244 -54033.531 18148.822 -54028.223 18146.499 -54023.241 18060.299 -53838.385 18060.297 -53838.382 18057.976 -53833.404 17934.681 -53657.319 17782.681 -53505.319 17650.818 -53412.988 21778.576 -53412.988 21785.644 -53426.434 22487.188 -54127.978 22501.132 -54135.592 22502.965 -54135.461 22509.58 -54131.21 23215.077 -53425.713 23221.507 -53413.938 23220.772 -53412.988 25778.576 -53412.988 25785.644 -53426.434 26487.188 -54127.978 26501.132 -54135.592 26502.965 -54135.461 26509.58 -54131.21 27215.077 -53425.713 27221.507 -53413.938 27212.211 -53401.923 27161.006 -53366.069 27151.511 -53360.586 26954.053 -53268.51 26943.761 -53264.764 26733.312 -53208.375 26722.519 -53206.472 26505.475 -53187.483 26494.525 -53187.483 26277.481 -53206.472 26266.688 -53208.375 26056.239 -53264.764 26045.947 -53268.51 25848.489 -53360.586 25838.994 -53366.069 25786.952 -53402.509 25778.576 -53412.988 23220.772 -53412.988 23212.211 -53401.923 23161.006 -53366.069 23151.511 -53360.586 22954.053 -53268.51 22943.761 -53264.764 22733.312 -53208.375 22722.519 -53206.472 22505.475 -53187.483 22494.525 -53187.483 22277.481 -53206.472 22266.688 -53208.375 22056.239 -53264.764 22045.947 -53268.51 21848.489 -53360.586 21838.994 -53366.069 21786.952 -53402.509 21778.576 -53412.988 17650.818 -53412.988 17606.597 -53382.024 17601.619 -53379.703 17601.616 -53379.701 17416.759 -53293.501 17416.758 -53293.5 17411.777 -53291.178 17406.469 -53289.756 17406.467 -53289.755 17209.457 -53236.966 17209.455 -53236.966 17204.142 -53235.542 16990 -53216.807 16984.525 -53217.286 16984.524 -53217.286 16782.404 -53234.969 16712.8 -53220.98 16661.807 -53171.58 16645.617 -53102.454 16669.37 -53035.549 16682.328 -53020.353 16997.276 -52705.405 17059.588 -52671.379 17086.371 -52668.5 18498.948 -52668.5 18567.069 -52688.502 18588.043 -52705.405 18737.319 -52854.681 18913.403 -52977.976 18918.381 -52980.297 18918.384 -52980.299 19103.241 -53066.499 19108.223 -53068.822 19113.531 -53070.244 19113.533 -53070.245 19310.543 -53123.034 19310.545 -53123.034 19315.858 -53124.458 19530 -53143.193 19744.142 -53124.458 19749.455 -53123.034 19749.457 -53123.034 19946.467 -53070.245 19946.469 -53070.244 19951.777 -53068.822 19956.759 -53066.499 20141.616 -52980.299 20141.619 -52980.297 20146.597 -52977.976 20322.681 -52854.681 20474.681 -52702.681 20597.976 -52526.596 20643.861 -52428.197 20686.499 -52336.759 20686.5 -52336.757 20688.822 -52331.777 20744.458 -52124.142 20763.193 -51910 20744.458 -51695.858 20741.1 -51683.326 20690.245 -51493.533 20690.244 -51493.531 20688.822 -51488.223 20627.338 -51356.371 20600.299 -51298.385 20600.297 -51298.382 20597.976 -51293.404 20474.681 -51117.319 20322.681 -50965.319 20146.597 -50842.024 20141.619 -50839.703 20141.616 -50839.701 19956.759 -50753.501 19956.758 -50753.5 19951.777 -50751.178 19946.469 -50749.756 19946.467 -50749.755 19749.457 -50696.966 19749.455 -50696.966 19744.142 -50695.542 19530 -50676.807 19315.858 -50695.542 19310.545 -50696.966 19310.543 -50696.966 19113.533 -50749.755 19113.531 -50749.756 19108.223 -50751.178 19103.243 -50753.5 19103.241 -50753.501 18918.385 -50839.701 18918.382 -50839.703 18913.404 -50842.024 18737.319 -50965.319 18588.043 -51114.595 18525.731 -51148.621 18498.948 -51151.5 16787.069 -51151.5 16768.121 -51150.067 16760.78 -51148.95 16753.883 -51147.901 16753.881 -51147.901 16746.651 -51146.801 16739.359 -51147.394 16739.356 -51147.394 16693.982 -51151.085 16683.767 -51151.5 16675.707 -51151.5 16662.417 -51153.049 16647.493 -51154.789 16643.118 -51155.222 16577.661 -51160.546 16577.658 -51160.547 16570.363 -51161.14 16563.399 -51163.396 16557.44 -51164.587 16551.585 -51165.971 16544.319 -51166.818 16475.673 -51191.735 16471.545 -51193.152 16409.064 -51213.393 16409.062 -51213.394 16402.101 -51215.649 16395.846 -51219.445 16390.372 -51221.951 16384.942 -51224.67 16378.063 -51227.167 16317.016 -51267.191 16313.327 -51269.518 16293.135 -51281.771 16255.693 -51304.491 16255.688 -51304.495 16250.892 -51307.405 16242.516 -51314.803 16242.493 -51314.777 16239.503 -51317.426 16236.264 -51320.134 16230.148 -51324.144 16225.121 -51329.451 16225.117 -51329.454 16176.872 -51380.383 16174.494 -51382.825 15860.407 -51696.912 15798.095 -51730.938 15727.28 -51725.873 15670.444 -51683.326 15649.605 -51640.428 15610.245 -51493.533 15610.244 -51493.531 15608.822 -51488.223 15547.338 -51356.371 15520.299 -51298.385 15520.297 -51298.382 15517.976 -51293.404 15394.681 -51117.319 15242.681 -50965.319 15066.597 -50842.024 15061.619 -50839.703 15061.616 -50839.701 14876.759 -50753.501 14876.758 -50753.5 14871.777 -50751.178 14866.469 -50749.756 14866.467 -50749.755 14669.457 -50696.966 14669.455 -50696.966 14664.142 -50695.542 14450 -50676.807 14235.858 -50695.542 14230.545 -50696.966 14230.543 -50696.966 14033.533 -50749.755 14033.531 -50749.756 14028.223 -50751.178 14023.243 -50753.5 14023.241 -50753.501 13838.385 -50839.701 13838.382 -50839.703 13833.404 -50842.024 13657.319 -50965.319 13505.319 -51117.319 13382.024 -51293.404 13379.703 -51298.382 13379.701 -51298.385 13352.662 -51356.371 13291.178 -51488.223 13289.756 -51493.531 13289.755 -51493.533 13238.9 -51683.326 13235.542 -51695.858 13216.807 -51910 13235.542 -52124.142 13291.178 -52331.777 13293.5 -52336.757 13293.501 -52336.759 13336.14 -52428.197 13382.024 -52526.596 13505.319 -52702.681 13654.595 -52851.957 13688.621 -52914.269 13691.5 -52941.052 13691.5 -55183.629 13671.498 -55251.75 13654.595 -55272.724 12100.728 -56826.591 12038.416 -56860.617 11973.221 -56857.498 11899.96 -56834.047 11863.333 -56828.082 11653.935 -56793.98 11653.934 -56793.98 11649.323 -56793.229 11522.365 -56791.567 11400.083 -56789.966 11400.08 -56789.966 11395.406 -56789.905 11143.787 -56824.149 11139.301 -56825.457 11139.299 -56825.457 11125.428 -56829.5 10899.993 -56895.208 10895.74 -56897.168 10895.739 -56897.169 10866.807 -56910.507 10669.38 -57001.522 10664.801 -57004.524 10460.928 -57138.189 10460.923 -57138.193 10457.015 -57140.755 10267.562 -57309.848 10105.183 -57505.087 9973.447 -57722.182 9971.638 -57726.496 9971.637 -57726.498 9905.22 -57884.886 9875.246 -57956.365 9874.095 -57960.897 9874.094 -57960.9 9860.612 -58013.986 9812.738 -58202.49 9787.296 -58455.151 9799.48 -58708.798 9849.021 -58957.857 9850.6 -58962.255 9850.602 -58962.262 9895.022 -59085.98 9934.831 -59196.858 9937.048 -59200.984 10028.669 -59371.499 10055.025 -59420.551 10057.82 -59424.294 10057.822 -59424.297 10204.171 -59620.282 10204.176 -59620.288 10206.963 -59624.02 10210.272 -59627.3 10210.277 -59627.306 10378.558 -59794.124 10387.307 -59802.797 10391.069 -59805.555 10391.072 -59805.558 10496.764 -59883.054 10592.094 -59952.953 10596.229 -59955.129 10596.233 -59955.131 10657.211 -59987.213 10816.827 -60071.191 11056.568 -60154.912 11306.05 -60202.278 11426.532 -60207.011 11555.125 -60212.064 11555.13 -60212.064 11559.793 -60212.247 11658.774 -60201.407 11807.569 -60185.112 11807.575 -60185.111 11812.222 -60184.602 11921.68 -60155.784 12053.273 -60121.138 12057.793 -60119.948 12274.077 -60027.026 12286.807 -60021.557 12286.81 -60021.555 12291.11 -60019.708 12295.09 -60017.245 12295.094 -60017.243 12503.064 -59888.547 12503.066 -59888.545 12507.047 -59886.082 12521.656 -59873.715 12697.289 -59725.031 12697.291 -59725.029 12700.862 -59722.006 12868.295 -59531.084 13005.669 -59317.512 13109.967 -59085.98 13111.288 -59081.298 13118.594 -59055.389 13178.896 -58841.575 13210.943 -58589.667 13213.291 -58500 13196.755 -58277.481 13194.818 -58251.411 13194.817 -58251.407 13194.472 -58246.759 13193.402 -58242.027 13150.121 -58050.757 13141.8 -58013.984 13146.274 -57943.131 13175.598 -57897.083 14800.905 -56271.776 14863.217 -56237.75 14934.032 -56242.815 14979.095 -56271.776 15436.23 -56728.911 15448.616 -56743.323 15457.149 -56754.918 15457.154 -56754.923 15461.492 -56760.818 15467.07 -56765.557 15467.073 -56765.56 15501.768 -56795.035 15509.284 -56801.965 15514.98 -56807.661 15517.841 -56809.924 15517.846 -56809.929 15537.266 -56825.293 15540.667 -56828.082 15596.285 -56875.333 15602.798 -56878.659 15607.837 -56882.02 15612.979 -56885.196 15618.716 -56889.734 15684.875 -56920.655 15688.769 -56922.558 15753.808 -56955.769 15760.917 -56957.508 15766.551 -56959.604 15772.321 -56961.523 15778.95 -56964.622 15786.113 -56966.112 15786.116 -56966.113 15836.83 -56976.661 15850.435 -56979.491 15854.701 -56980.457 15925.61 -56997.808 15931.212 -56998.156 15931.215 -56998.156 15936.764 -56998.5 15936.762 -56998.535 15940.734 -56998.775 15944.955 -56999.152 15952.115 -57000.641 16029.542 -56998.546 16032.95 -56998.5 18283.629 -56998.5 18351.75 -57018.502 18372.724 -57035.405 22806.23 -61468.911 22818.616 -61483.323 22827.149 -61494.918 22827.154 -61494.923 22831.492 -61500.818 22837.07 -61505.557 22837.073 -61505.56 22871.768 -61535.035 22879.284 -61541.965 22884.979 -61547.66 22887.861 -61549.94 22907.251 -61565.281 22910.655 -61568.072 22960.703 -61610.591 22966.285 -61615.333 22972.801 -61618.661 22977.85 -61622.028 22982.979 -61625.195 22988.716 -61629.734 23054.875 -61660.655 23058.769 -61662.558 23123.808 -61695.769 23130.916 -61697.508 23136.559 -61699.607 23142.322 -61701.524 23148.95 -61704.622 23156.112 -61706.112 23156.113 -61706.112 23220.412 -61719.486 23224.696 -61720.456 23295.61 -61737.808 23301.212 -61738.156 23301.215 -61738.156 23306.764 -61738.5 23306.762 -61738.536 23310.757 -61738.775 23314.946 -61739.149 23322.115 -61740.64 23325.842 -61740.539 23334.544 -61743.961 23362.555 -61739.546 23399.521 -61738.546 23402.928 -61738.5 36452.93 -61738.5 36471.879 -61739.933 36478.454 -61740.933 36499.136 -61750.584 36508.441 -61744.604 36533.724 -61739.915 36546.018 -61738.915 36556.233 -61738.5 36564.293 -61738.5 36581.68 -61736.473 36592.507 -61735.211 36596.882 -61734.778 36662.339 -61729.454 36662.342 -61729.453 36669.637 -61728.86 36676.601 -61726.604 36682.56 -61725.413 36688.415 -61724.029 36695.681 -61723.182 36764.327 -61698.265 36768.455 -61696.848 36830.936 -61676.607 36830.938 -61676.606 36837.899 -61674.351 36844.154 -61670.555 36849.628 -61668.049 36855.058 -61665.33 36861.937 -61662.833 36868.058 -61658.82 36922.976 -61622.814 36926.68 -61620.477 36989.107 -61582.595 36997.484 -61575.197 36997.508 -61575.224 37000.5 -61572.571 37003.733 -61569.868 37009.852 -61565.856 37063.128 -61509.617 37065.506 -61507.175 38538.911 -60033.77 38553.323 -60021.384 38564.918 -60012.851 38564.923 -60012.846 38570.818 -60008.508 38575.557 -60002.93 38575.56 -60002.927 38605.035 -59968.232 38611.965 -59960.716 38617.661 -59955.02 38619.924 -59952.159 38619.929 -59952.154 38635.293 -59932.734 38638.082 -59929.333 38674.826 -59886.082 38685.333 -59873.715 38688.659 -59867.202 38692.02 -59862.163 38695.196 -59857.021 38699.734 -59851.284 38730.655 -59785.125 38732.561 -59781.225 38765.769 -59716.192 38767.508 -59709.083 38769.604 -59703.449 38771.523 -59697.679 38774.622 -59691.05 38776.915 -59680.029 38789.49 -59619.571 38790.461 -59615.282 38806.473 -59549.844 38807.808 -59544.39 38808.5 -59533.236 38808.535 -59533.238 38808.775 -59529.266 38809.152 -59525.045 38810.641 -59517.885 38808.546 -59440.458 38808.5 -59437.05 38808.5 -57056.371 38828.502 -56988.25 38845.405 -56967.276 39146.572 -56666.109 39208.884 -56632.083 39279.699 -56637.148 39336.535 -56679.695 39361.346 -56746.215 39360.116 -56774.912 39347.036 -56857.498 39318.858 -57035.405 39306.754 -57111.824 39286.411 -57500 39306.754 -57888.176 39307.267 -57891.416 39307.268 -57891.424 39333.346 -58056.067 39367.562 -58272.099 39468.167 -58647.562 39469.352 -58650.65 39469.353 -58650.652 39496.527 -58721.443 39607.468 -59010.453 39608.966 -59013.393 39763.923 -59317.512 39783.938 -59356.794 39785.734 -59359.56 39785.736 -59359.563 39993.848 -59680.029 39995.643 -59682.793 40090.158 -59799.509 40223.634 -59964.337 40240.266 -59984.876 40515.124 -60259.734 40817.207 -60504.357 41143.205 -60716.062 41146.139 -60717.557 41146.146 -60717.561 41486.607 -60891.034 41489.547 -60892.532 41852.438 -61031.833 42227.901 -61132.438 42431.793 -61164.732 42608.576 -61192.732 42608.584 -61192.733 42611.824 -61193.246 43000 -61213.589 43388.176 -61193.246 43391.416 -61192.733 43391.424 -61192.732 43568.207 -61164.732 43772.099 -61132.438 44147.562 -61031.833 44510.453 -60892.532 44513.393 -60891.034 44853.854 -60717.561 44853.861 -60717.557 44856.795 -60716.062 45182.793 -60504.357 45484.876 -60259.734 45759.734 -59984.876 45776.367 -59964.337 45909.842 -59799.509 46004.357 -59682.793 46006.152 -59680.029 46214.264 -59359.563 46214.266 -59359.56 46216.062 -59356.794 46236.078 -59317.512 46391.034 -59013.393 46392.532 -59010.453 46503.473 -58721.443 46530.647 -58650.652 46530.648 -58650.65 46531.833 -58647.562 46632.438 -58272.099 46666.654 -58056.067 46692.732 -57891.424 46692.733 -57891.416 46693.246 -57888.176 46713.589 -57500 46693.246 -57111.824 46681.143 -57035.405 46652.964 -56857.498 46632.438 -56727.901 46531.833 -56352.438 46392.532 -55989.547 46391.034 -55986.607 46217.561 -55646.147 46217.557 -55646.14 46216.062 -55643.206 46213.6 -55639.414 46006.152 -55319.971 46006.152 -55319.97 46004.357 -55317.207 45877.867 -55161.006 45761.809 -55017.686 45761.806 -55017.682 45759.734 -55015.124 45484.876 -54740.266 45462.961 -54722.519 45230.982 -54534.666 45182.793 -54495.643 45124.149 -54457.559 44859.564 -54285.736 44859.561 -54285.734 44856.795 -54283.938 44853.861 -54282.443 44853.854 -54282.439 44513.393 -54108.966 44510.453 -54107.468 44147.562 -53968.167 43772.099 -53867.562 43527.993 -53828.899 43391.424 -53807.268 43391.416 -53807.267 43388.176 -53806.754 43000 -53786.411 42611.824 -53806.754 42608.584 -53807.267 42608.576 -53807.268 42472.007 -53828.899 42227.901 -53867.562 41852.438 -53968.167 41489.547 -54107.468 41486.607 -54108.966 41146.147 -54282.439 41146.14 -54282.443 41143.206 -54283.938 41140.438 -54285.735 41140.432 -54285.739 41043.125 -54348.931 40975.1 -54369.258 40906.885 -54349.58 40860.137 -54296.146 40848.5 -54243.259 40848.5 -53594.669 49942.001 -53594.669 49942.371 -53601.49 49947.895 -53652.352 49951.521 -53667.604 49996.676 -53788.054 50005.214 -53803.649 50081.715 -53905.724 50094.276 -53918.285 50196.351 -53994.786 50211.946 -54003.324 50332.394 -54048.478 50347.649 -54052.105 50398.514 -54057.631 50405.328 -54058 51227.885 -54058 51243.124 -54053.525 51244.329 -54052.135 51246 -54044.452 51246 -54039.884 51754 -54039.884 51758.475 -54055.123 51759.865 -54056.328 51767.548 -54057.999 52594.669 -54057.999 52601.49 -54057.629 52652.352 -54052.105 52667.604 -54048.479 52788.054 -54003.324 52803.649 -53994.786 52905.724 -53918.285 52918.285 -53905.724 52994.786 -53803.649 53003.324 -53788.054 53048.478 -53667.606 53052.105 -53652.351 53057.631 -53601.486 53058 -53594.672 53058 -52772.115 53053.525 -52756.876 53052.135 -52755.671 53044.452 -52754 51772.115 -52754 51756.876 -52758.475 51755.671 -52759.865 51754 -52767.548 51754 -54039.884 51246 -54039.884 51246 -52772.115 51241.525 -52756.876 51240.135 -52755.671 51232.452 -52754 49960.116 -52754 49944.877 -52758.475 49943.672 -52759.865 49942.001 -52767.548 49942.001 -53594.669 40848.5 -53594.669 40848.5 -51356.371 40868.502 -51288.25 40885.405 -51267.276 41177.276 -50975.405 41239.588 -50941.379 41266.371 -50938.5 49946.572 -50938.5 50014.693 -50958.502 50061.186 -51012.158 50071.29 -51082.432 50047.398 -51140.065 50005.214 -51196.351 49996.676 -51211.946 49951.522 -51332.394 49947.895 -51347.649 49942.369 -51398.514 49942 -51405.328 49942 -52227.885 49946.475 -52243.124 49947.865 -52244.329 49955.548 -52246 53039.884 -52246 53055.123 -52241.525 53056.328 -52240.135 53057.999 -52232.452 53057.999 -51405.331 53057.629 -51398.51 53052.105 -51347.648 53048.479 -51332.396 53003.324 -51211.946 52994.786 -51196.351 52918.285 -51094.276 52912.293 -51088.284 52878.267 -51025.972 52883.332 -50955.157 52925.879 -50898.321 52962.553 -50879.323 52970.937 -50876.607 52970.942 -50876.605 52977.899 -50874.351 52984.153 -50870.556 52989.628 -50868.049 52995.058 -50865.33 53001.937 -50862.833 53013.308 -50855.378 53062.976 -50822.814 53066.68 -50820.477 53129.107 -50782.595 53137.484 -50775.197 53137.508 -50775.224 53140.5 -50772.571 53143.733 -50769.868 53149.852 -50765.856 53203.128 -50709.617 53205.506 -50707.175 54528.911 -49383.77 54543.323 -49371.384 54554.918 -49362.851 54554.923 -49362.846 54560.818 -49358.508 54565.557 -49352.93 54565.56 -49352.927 54595.035 -49318.232 54601.965 -49310.716 54607.661 -49305.02 54609.924 -49302.159 54609.929 -49302.154 54625.293 -49282.734 54628.082 -49279.333 54638.15 -49267.482 54675.333 -49223.715 54678.659 -49217.202 54682.02 -49212.163 54685.196 -49207.021 54689.734 -49201.284 54720.655 -49135.125 54722.561 -49131.225 54755.769 -49066.192 54757.508 -49059.083 54759.604 -49053.449 54761.523 -49047.679 54764.622 -49041.05 54767.209 -49028.616 54779.49 -48969.571 54780.461 -48965.282 54797.808 -48894.39 54798.5 -48883.236 54798.535 -48883.238 54798.775 -48879.266 54799.152 -48875.045 54800.641 -48867.885 54798.546 -48790.458 54798.5 -48787.05 54798.5 -38107.07 54799.933 -38088.12 54802.099 -38073.885 54802.099 -38073.881 54803.199 -38066.651 54798.915 -38013.982 54798.5 -38003.767 54798.5 -37995.707 54795.209 -37967.48 54794.778 -37963.121 54789.454 -37897.662 54789.453 -37897.659 54788.86 -37890.364 54786.604 -37883.4 54785.417 -37877.461 54784.03 -37871.59 54783.182 -37864.319 54780.686 -37857.443 54780.684 -37857.434 54758.275 -37795.702 54756.865 -37791.598 54734.352 -37722.101 54730.556 -37715.846 54728.057 -37710.387 54725.329 -37704.939 54722.833 -37698.063 54682.805 -37637.01 54680.481 -37633.327 54675.456 -37625.045 54642.595 -37570.893 54635.198 -37562.517 54635.225 -37562.493 54632.57 -37559.499 54629.868 -37556.268 54625.856 -37550.148 54569.617 -37496.872 54567.175 -37494.494 53050.053 -35977.372 53016.027 -35915.06 53016.63 -35858.862 53042.915 -35749.379 53042.916 -35749.371 53044.072 -35744.557 53063.319 -35500 53044.072 -35255.443 53041.526 -35244.836 53001.197 -35076.855 52986.805 -35016.908 52969.814 -34975.887 52928.077 -34875.127 52892.927 -34790.268 52764.752 -34581.104 52605.433 -34394.567 52418.896 -34235.248 52414.673 -34232.66 52414.67 -34232.658 52345.485 -34190.262 52209.732 -34107.073 52039.111 -34036.399 51987.665 -34015.089 51987.663 -34015.088 51983.092 -34013.195 51900.437 -33993.351 51749.37 -33957.083 51749.364 -33957.082 51744.557 -33955.928 51500 -33936.681 51255.443 -33955.928 51250.636 -33957.082 51250.63 -33957.083 51099.563 -33993.351 51016.908 -34013.195 51012.337 -34015.088 51012.335 -34015.089 50960.889 -34036.399 50790.268 -34107.073 50654.515 -34190.262 50585.33 -34232.658 50585.327 -34232.66 50581.104 -34235.248 50394.567 -34394.567 50235.248 -34581.104 50107.073 -34790.268 50071.923 -34875.127 50030.187 -34975.887 50013.195 -35016.908 49974.408 -35178.469 49961.43 -35232.526 49928.006 -35292.207 48364.582 -36855.63 48302.27 -36889.656 48275.714 -36892.535 43309.755 -36901.498 40394.238 -36896.935 40326.151 -36876.827 40279.743 -36823.099 40269.749 -36752.809 40281.48 -36715.11 40311.32 -36654.733 40315.117 -36645.142 40379.415 -36433.517 40381.594 -36423.436 40384.422 -36401.96 40382.21 -36387.779 40369.052 -36384 37631.968 -36384 37618.437 -36387.973 37617 -36397.966 37650.685 -36547.439 37653.773 -36557.292 37719.502 -36719.161 37726.599 -36789.802 37694.378 -36853.066 37633.068 -36888.866 37602.562 -36892.566 37494.176 -36892.396 37426.087 -36872.287 37405.279 -36855.491 36410.576 -35860.788 37613.484 -35860.788 37615.625 -35872.609 37628.001 -35876 38727.885 -35876 38743.124 -35871.525 38744.329 -35870.135 38746 -35862.452 38746 -35857.885 39254 -35857.885 39258.475 -35873.124 39259.865 -35874.329 39267.548 -35876 40369.9 -35876 40383.431 -35872.027 40384.736 -35862.947 40338.71 -35679.708 40335.389 -35669.953 40247.193 -35467.118 40242.315 -35458.02 40122.177 -35272.315 40115.885 -35264.144 39967.023 -35100.547 39959.49 -35093.521 39785.901 -34956.429 39777.323 -34950.73 39583.678 -34843.833 39574.272 -34839.606 39365.772 -34765.772 39355.809 -34763.14 39271.836 -34748.182 39258.541 -34749.641 39254 -34764.199 39254 -35857.885 38746 -35857.885 38746 -34762.517 38742.082 -34749.173 38727.806 -34747.186 38677.694 -34754.855 38667.666 -34757.244 38457.426 -34825.961 38447.916 -34829.958 38251.728 -34932.087 38243.003 -34937.581 38066.123 -35070.386 38058.416 -35077.229 37905.6 -35237.143 37899.113 -35245.153 37774.474 -35427.867 37769.376 -35436.841 37676.252 -35637.459 37672.689 -35647.146 37613.581 -35860.279 37613.484 -35860.788 36410.576 -35860.788 35690.404 -35140.616 35656.378 -35078.304 35653.499 -35051.521 35653.499 -33756.876 35673.501 -33688.755 35701.752 -33657.723 35738.707 -33628.746 35738.715 -33628.739 35742.088 -33626.094 35783.808 -33583.043 35929.685 -33432.509 35932.668 -33429.431 35935.201 -33425.983 35935.205 -33425.978 36092.256 -33212.178 36094.794 -33208.723 36122.153 -33158.334 36223.417 -32971.83 36223.418 -32971.828 36225.467 -32968.054 36322.268 -32711.877 36383.406 -32444.933 36407.75 -32172.161 36408.192 -32130 36402.334 -32044.072 36389.858 -31861.055 36389.857 -31861.049 36389.566 -31856.778 36387.764 -31848.074 36336.737 -31601.677 36334.139 -31589.133 39400.611 -31589.133 39409.324 -31600.653 39507.017 -31672.284 39514.927 -31677.227 39737.889 -31794.533 39746.452 -31798.256 39984.303 -31881.318 39993.312 -31883.732 40240.841 -31930.727 40250.097 -31931.781 40501.856 -31941.673 40511.17 -31941.347 40761.614 -31913.92 40770.791 -31912.219 41014.43 -31848.074 41023.25 -31845.037 41254.735 -31745.583 41263.007 -31741.276 41477.248 -31608.7 41484.187 -31603.658 41492.517 -31591.019 41486.455 -31580.666 40457.811 -30552.022 40443.867 -30544.408 40442.034 -30544.539 40435.419 -30548.79 39407.269 -31576.94 39400.611 -31589.133 36334.139 -31589.133 36334.031 -31588.612 36242.616 -31330.465 36117.012 -31087.112 36114.072 -31082.928 36038.278 -30975.084 35959.544 -30863.057 35773.124 -30662.445 35769.809 -30659.731 35769.805 -30659.728 35639.481 -30553.059 35599.455 -30494.494 35597.992 -30489.992 35596.741 -30484.529 35589.705 -30468.032 35584.072 -30451.857 35580.814 -30439.952 35579.336 -30434.548 35576.925 -30429.493 35576.923 -30429.488 35543.453 -30359.316 35541.282 -30354.507 35510.804 -30283.052 35510.801 -30283.046 35508.602 -30277.891 35498.755 -30262.901 35490.342 -30247.97 35485.036 -30236.845 35482.621 -30231.781 35479.349 -30227.228 35479.347 -30227.224 35433.989 -30164.102 35431 -30159.752 35417.055 -30138.523 38682.897 -30138.523 38694.986 -30390.175 38696.123 -30399.435 38745.273 -30646.535 38747.767 -30655.528 38832.899 -30892.639 38836.699 -30901.174 38955.945 -31123.101 38960.956 -31130.968 39024.445 -31215.99 39035.703 -31224.439 39048.122 -31217.667 40072.977 -30192.812 40079.355 -30181.132 40809.407 -30181.132 40809.538 -30182.965 40813.789 -30189.58 41844.912 -31220.703 41857.292 -31227.463 41865.633 -31221.219 41991.764 -31025.127 41996.211 -31016.936 42099.69 -30787.222 42102.881 -30778.455 42171.268 -30535.976 42173.128 -30526.834 42205.115 -30275.396 42205.596 -30269.108 42207.846 -30183.16 42207.695 -30176.851 42188.911 -29924.074 42187.535 -29914.868 42131.928 -29669.126 42129.204 -29660.215 42037.887 -29425.392 42033.876 -29416.983 41908.853 -29198.24 41903.642 -29190.514 41866.39 -29143.261 41854.465 -29134.79 41842.933 -29141.276 40817.021 -30167.188 40809.407 -30181.132 40079.355 -30181.132 40080.591 -30178.868 40080.46 -30177.035 40076.209 -30170.42 39046.32 -29140.531 39033.012 -29133.264 39022.973 -29140.386 39012.76 -29152.666 39007.345 -29160.258 38876.645 -29375.646 38872.407 -29383.963 38774.98 -29616.299 38772.019 -29625.149 38710.005 -29869.331 38708.383 -29878.528 38683.142 -30129.198 38682.897 -30138.523 35417.055 -30138.523 35387.8 -30093.986 35385.264 -30090.125 35366.742 -30069.337 35358.505 -30059.055 35354.798 -30053.896 35351.528 -30049.345 35274.744 -29974.936 35273.334 -29973.547 34068.59 -28768.803 39398.215 -28768.803 39402.788 -28778.579 40432.187 -29807.978 40446.131 -29815.592 40447.964 -29815.461 40454.579 -29811.21 41483.418 -28782.371 41489.802 -28770.681 41480.39 -28758.57 41343.592 -28663.67 41335.564 -28658.942 41109.592 -28547.505 41100.959 -28544.017 40860.997 -28467.205 40851.937 -28465.029 40603.259 -28424.529 40593.972 -28423.717 40342.052 -28420.419 40332.741 -28420.989 40083.096 -28454.964 40073.977 -28456.902 39832.097 -28527.404 39823.366 -28530.667 39594.557 -28636.151 39586.405 -28640.67 39407.352 -28758.062 39398.215 -28768.803 34068.59 -28768.803 31894.457 -26594.669 49942.001 -26594.669 49942.371 -26601.49 49947.895 -26652.352 49951.521 -26667.604 49996.676 -26788.054 50005.214 -26803.649 50081.715 -26905.724 50094.276 -26918.285 50196.351 -26994.786 50211.946 -27003.324 50332.394 -27048.478 50347.649 -27052.105 50398.514 -27057.631 50405.328 -27058 51227.885 -27058 51243.124 -27053.525 51244.329 -27052.135 51246 -27044.452 51246 -27039.884 51754 -27039.884 51758.475 -27055.123 51759.865 -27056.328 51767.548 -27057.999 52594.669 -27057.999 52601.49 -27057.629 52652.352 -27052.105 52667.604 -27048.479 52788.054 -27003.324 52803.649 -26994.786 52905.724 -26918.285 52918.285 -26905.724 52994.786 -26803.649 53003.324 -26788.054 53048.478 -26667.606 53052.105 -26652.351 53057.631 -26601.486 53058 -26594.672 53058 -25772.115 53053.525 -25756.876 53052.135 -25755.671 53044.452 -25754 51772.115 -25754 51756.876 -25758.475 51755.671 -25759.865 51754 -25767.548 51754 -27039.884 51246 -27039.884 51246 -25772.115 51241.525 -25756.876 51240.135 -25755.671 51232.452 -25754 49960.116 -25754 49944.877 -25758.475 49943.672 -25759.865 49942.001 -25767.548 49942.001 -26594.669 31894.457 -26594.669 31864.525 -26564.737 31853.657 -26552.346 31843.533 -26539.152 31840.123 -26534.708 31779.826 -26479.842 31775.531 -26475.743 31759.59 -26459.802 31757.44 -26458.004 31739.577 -26443.068 31735.602 -26439.6 31678.112 -26387.288 31678.103 -26387.281 31673.964 -26383.515 31658.773 -26373.986 31644.907 -26363.911 31635.451 -26356.004 31635.441 -26355.997 31631.146 -26352.406 31558.752 -26311.113 31554.232 -26308.408 31549.836 -26305.65 31503.202 -26276.397 31488.404 -26267.114 31488.401 -26267.112 31483.656 -26264.136 31478.451 -26262.043 31478.448 -26262.042 31467.021 -26257.448 31451.589 -26249.988 31440.881 -26243.88 31440.872 -26243.876 31436.007 -26241.101 31430.73 -26239.232 31430.725 -26239.23 31357.458 -26213.285 31352.522 -26211.42 31280.416 -26182.434 31275.217 -26180.344 31269.73 -26179.208 31269.728 -26179.207 31257.651 -26176.706 31241.156 -26172.101 31224.241 -26166.111 31141.99 -26152.641 31136.82 -26151.683 31077.291 -26139.355 31059.758 -26135.724 31059.757 -26135.724 31055.233 -26134.787 31050.621 -26134.521 31050.62 -26134.521 31027.452 -26133.185 31014.347 -26131.738 31008.09 -26130.714 31008.086 -26130.714 31002.543 -26129.806 30996.93 -26129.894 30996.928 -26129.894 30895.736 -26131.484 30893.757 -26131.5 19671.395 -26131.5 19654.948 -26130.422 19638.483 -26128.254 19638.479 -26128.254 19632.913 -26127.521 19551.512 -26131.36 19545.576 -26131.5 19523.001 -26131.5 19504.118 -26133.185 19497.011 -26133.819 19491.749 -26134.178 19478.838 -26134.787 19408.512 -26138.104 19403.053 -26139.354 19403.048 -26139.355 19391.03 -26142.108 19374.101 -26144.789 19356.238 -26146.383 19350.822 -26147.865 19350.82 -26147.865 19275.867 -26168.37 19270.749 -26169.656 19195 -26187.005 19194.998 -26187.006 19189.53 -26188.258 19179.03 -26192.737 19173.033 -26195.294 19156.858 -26200.927 19144.961 -26204.182 19144.957 -26204.183 19139.549 -26205.663 19134.483 -26208.079 19134.484 -26208.079 19064.333 -26241.539 19059.524 -26243.71 18988.051 -26274.196 18982.891 -26276.397 18967.89 -26286.251 18952.975 -26294.654 18936.782 -26302.378 18932.231 -26305.648 18932.228 -26305.65 18924.619 -26311.118 18871.023 -26349.631 18869.119 -26350.999 18864.768 -26353.989 18798.992 -26397.195 18798.987 -26397.199 18795.126 -26399.735 18791.676 -26402.809 18774.342 -26418.252 18764.058 -26426.491 18758.905 -26430.194 18758.898 -26430.2 18754.346 -26433.471 18709.409 -26479.842 18679.968 -26510.223 18678.579 -26511.633 16014.737 -29175.475 16002.347 -29186.342 15984.708 -29199.877 15954.88 -29232.658 15929.842 -29260.174 15925.743 -29264.469 15909.802 -29280.41 15908.007 -29282.557 15908.005 -29282.559 15893.068 -29300.423 15889.6 -29304.398 15837.288 -29361.888 15837.281 -29361.897 15833.515 -29366.036 15830.538 -29370.782 15830.537 -29370.783 15823.987 -29381.225 15813.911 -29395.093 15806.004 -29404.549 15805.997 -29404.559 15802.406 -29408.854 15792.973 -29425.392 15761.118 -29481.24 15758.413 -29485.759 15714.136 -29556.344 15712.043 -29561.549 15712.042 -29561.552 15707.448 -29572.979 15699.988 -29588.411 15693.88 -29599.119 15693.876 -29599.128 15691.101 -29603.993 15689.232 -29609.27 15689.23 -29609.275 15663.285 -29682.542 15661.42 -29687.478 15630.344 -29764.783 15629.208 -29770.27 15629.207 -29770.272 15626.706 -29782.349 15622.101 -29798.844 15616.111 -29815.759 15605.847 -29878.438 15602.643 -29898.001 15601.683 -29903.18 15594.424 -29938.232 15587.111 -29973.547 15584.787 -29984.767 15584.521 -29989.379 15584.521 -29989.38 15583.185 -30012.548 15581.738 -30025.653 15580.714 -30031.91 15579.806 -30037.457 15579.894 -30043.07 15579.894 -30043.072 15581.484 -30144.264 15581.5 -30146.243 15581.5 -30504.124 15561.498 -30572.245 15534.282 -30602.457 15477.318 -30648.094 15460.717 -30665.588 15349.175 -30783.129 15288.808 -30846.742 15129.002 -31069.136 15026.252 -31263.199 15004.406 -31304.459 14954.853 -31355.302 14893.051 -31371.5 13206.371 -31371.5 13138.25 -31351.498 13117.276 -31334.595 12603.423 -30820.742 12569.397 -30758.43 12571.249 -30697.446 12616.759 -30536.08 12616.76 -30536.075 12618.03 -30531.572 12622.747 -30494.494 12650.616 -30275.421 12650.616 -30275.417 12651.014 -30272.291 12651.098 -30269.108 12653.348 -30183.16 12653.431 -30180 12645.208 -30069.349 12634.407 -29924 12634.406 -29923.996 12634.061 -29919.348 12629.535 -29899.342 12581.303 -29686.192 12576.377 -29664.423 12543.976 -29581.104 12483.34 -29425.176 12483.339 -29425.173 12481.647 -29420.823 12466.641 -29394.567 12391.072 -29262.35 12351.951 -29193.902 12190.138 -28988.643 11999.763 -28809.557 11807.221 -28675.985 11788.851 -28663.241 11788.848 -28663.239 11785.009 -28660.576 11780.816 -28658.508 11554.781 -28547.04 11554.778 -28547.039 11550.593 -28544.975 11504.449 -28530.204 11306.123 -28466.72 11301.665 -28465.293 11043.693 -28423.279 10929.942 -28421.79 10787.022 -28419.919 10787.019 -28419.919 10782.345 -28419.858 10523.362 -28455.104 10272.433 -28528.243 10268.18 -28530.203 10268.179 -28530.204 10217.888 -28553.389 10035.072 -28637.668 9996.067 -28663.241 9820.404 -28778.41 9820.399 -28778.414 9816.491 -28780.976 9621.494 -28955.018 9618.506 -28958.611 9591.374 -28991.233 9532.436 -29030.816 9461.454 -29032.252 9400.964 -28995.084 9370.171 -28931.113 9368.5 -28910.663 9368.5 -27416.371 9388.502 -27348.25 9405.405 -27327.276 12927.276 -23805.405 12989.588 -23771.379 13016.371 -23768.5 50136.196 -23768.5 50204.317 -23788.502 50250.81 -23842.158 50260.914 -23912.432 50231.42 -23977.012 50203.388 -23999.628 50203.538 -23999.828 50197.943 -24004.021 50196.705 -24005.02 50196.354 -24005.212 50094.276 -24081.715 50081.715 -24094.276 50005.214 -24196.351 49996.676 -24211.946 49951.522 -24332.394 49947.895 -24347.649 49942.369 -24398.514 49942 -24405.328 49942 -25227.885 49946.475 -25243.124 49947.865 -25244.329 49955.548 -25246 53039.884 -25246 53055.123 -25241.525 53056.328 -25240.135 53057.999 -25232.452 53057.999 -24405.331 53057.629 -24398.51 53052.105 -24347.648 53048.479 -24332.396 53003.324 -24211.946 52994.786 -24196.351 52918.285 -24094.276 52905.724 -24081.715 52803.646 -24005.212 52803.295 -24005.02 52803.014 -24004.739 52796.462 -23999.828 52797.171 -23998.882 52753.149 -23954.762 52738.135 -23885.371 52763.02 -23818.879 52819.903 -23776.395 52863.804 -23768.5 53063.629 -23768.5 53131.75 -23788.502 53152.724 -23805.405 53484.595 -24137.276 53518.621 -24199.588 53521.5 -24226.371 53521.5 -29053.629 53501.498 -29121.75 53484.595 -29142.724 52984.714 -29642.605 52922.402 -29676.631 52851.587 -29671.566 52794.751 -29629.019 52788.187 -29619.346 52767.341 -29585.329 52764.752 -29581.104 52707.773 -29514.39 52608.641 -29398.323 52605.433 -29394.567 52497.581 -29302.452 52422.663 -29238.465 52422.66 -29238.463 52418.896 -29235.248 52414.673 -29232.66 52414.67 -29232.658 52330.893 -29181.32 52209.732 -29107.073 52065.033 -29047.136 51987.665 -29015.089 51987.663 -29015.088 51983.092 -29013.195 51896.104 -28992.311 51749.37 -28957.083 51749.364 -28957.082 51744.557 -28955.928 51500 -28936.681 51255.443 -28955.928 51250.636 -28957.082 51250.63 -28957.083 51103.896 -28992.311 51016.908 -29013.195 51012.337 -29015.088 51012.335 -29015.089 50934.967 -29047.136 50790.268 -29107.073 50669.107 -29181.32 50585.33 -29232.658 50585.327 -29232.66 50581.104 -29235.248 50577.34 -29238.463 50577.337 -29238.465 50502.419 -29302.452 50394.567 -29394.567 50391.359 -29398.323 50292.228 -29514.39 50235.248 -29581.104 50232.66 -29585.327 50232.658 -29585.33 50211.813 -29619.346 50107.073 -29790.268 50060.484 -29902.744 50024.598 -29989.38 50013.195 -30016.908 50001.79 -30064.415 49961.609 -30231.781 49955.928 -30255.443 49936.681 -30500 49955.928 -30744.557 49957.082 -30749.364 49957.083 -30749.37 49961.681 -30768.522 50013.195 -30983.092 50015.088 -30987.663 50015.089 -30987.665 50030.706 -31025.367 50107.073 -31209.732 50235.248 -31418.896 50238.463 -31422.66 50238.465 -31422.663 50319.58 -31517.635 50394.567 -31605.433 50398.323 -31608.641 50559.178 -31746.025 50581.104 -31764.752 50585.327 -31767.34 50585.33 -31767.342 50634.009 -31797.172 50790.268 -31892.927 50908.373 -31941.848 51012.335 -31984.911 51012.337 -31984.912 51016.908 -31986.805 51062.285 -31997.699 51250.63 -32042.917 51250.636 -32042.918 51255.443 -32044.072 51500 -32063.319 51744.557 -32044.072 51749.364 -32042.918 51749.37 -32042.917 51937.715 -31997.699 51983.092 -31986.805 51987.663 -31984.912 51987.665 -31984.911 52091.627 -31941.848 52209.732 -31892.927 52365.991 -31797.172 52414.67 -31767.342 52414.673 -31767.34 52418.896 -31764.752 52440.823 -31746.025 52601.677 -31608.641 52605.433 -31605.433 52680.42 -31517.635 52761.535 -31422.663 52761.537 -31422.66 52764.752 -31418.896 52826.173 -31318.665 52878.821 -31271.034 52933.606 -31258.5 53132.93 -31258.5 53151.88 -31259.933 53166.115 -31262.099 53166.119 -31262.099 53173.349 -31263.199 53180.641 -31262.606 53180.644 -31262.606 53226.018 -31258.915 53236.233 -31258.5 53244.293 -31258.5 53257.583 -31256.951 53272.507 -31255.211 53276.882 -31254.778 53342.339 -31249.454 53342.342 -31249.453 53349.637 -31248.86 53356.601 -31246.604 53362.56 -31245.413 53368.415 -31244.029 53375.681 -31243.182 53444.327 -31218.265 53448.455 -31216.848 53510.936 -31196.607 53510.938 -31196.606 53517.899 -31194.351 53524.154 -31190.555 53529.628 -31188.049 53535.058 -31185.33 53541.937 -31182.833 53602.976 -31142.814 53606.68 -31140.477 53669.107 -31102.595 53677.484 -31095.197 53677.508 -31095.224 53680.5 -31092.571 53683.733 -31089.868 53689.852 -31085.856 53743.128 -31029.617 53745.506 -31027.175 54768.911 -30003.77 54783.323 -29991.384 54794.918 -29982.851 54794.923 -29982.846 54800.818 -29978.508 54805.557 -29972.93 54805.56 -29972.927 54835.035 -29938.232 54841.965 -29930.716 54847.661 -29925.02 54849.924 -29922.159 54849.929 -29922.154 54865.285 -29902.744 54868.074 -29899.342 54910.596 -29849.291 54910.597 -29849.29 54915.333 -29843.715 54918.661 -29837.198 54922.027 -29832.15 54925.19 -29827.028 54929.735 -29821.284 54960.664 -29755.105 54962.563 -29751.221 54995.769 -29686.192 54997.51 -29679.077 54999.613 -29673.422 55001.522 -29667.683 55004.622 -29661.05 55019.491 -29589.565 55020.461 -29585.282 55037.808 -29514.39 55038.5 -29503.236 55038.535 -29503.238 55038.775 -29499.266 55039.152 -29495.045 55040.641 -29487.885 55038.546 -29410.458 55038.5 -29407.05 55038.5 -23927.07 55039.933 -23908.12 55042.099 -23893.885 55042.099 -23893.881 55043.199 -23886.651 55038.915 -23833.982 55038.5 -23823.767 55038.5 -23815.707 55035.209 -23787.48 55034.778 -23783.121 55029.454 -23717.662 55029.453 -23717.659 55028.86 -23710.364 55026.604 -23703.4 55025.417 -23697.461 55024.03 -23691.59 55023.182 -23684.319 55020.686 -23677.443 55020.684 -23677.434 54998.275 -23615.702 54996.865 -23611.598 54974.352 -23542.101 54970.556 -23535.846 54968.057 -23530.387 54965.329 -23524.939 54962.833 -23518.063 54922.805 -23457.01 54920.481 -23453.327 54885.5 -23395.68 54885.499 -23395.679 54882.595 -23390.893 54875.198 -23382.517 54875.225 -23382.493 54872.57 -23379.499 54869.868 -23376.268 54865.856 -23370.148 54809.617 -23316.872 54807.175 -23314.494 54013.77 -22521.089 54001.384 -22506.677 53992.851 -22495.082 53992.846 -22495.077 53988.508 -22489.182 53982.93 -22484.443 53982.927 -22484.44 53948.232 -22454.965 53940.716 -22448.035 53935.021 -22442.34 53918.736 -22429.456 53912.749 -22424.719 53909.345 -22421.928 53859.297 -22379.409 53859.295 -22379.408 53853.715 -22374.667 53847.199 -22371.339 53842.15 -22367.972 53837.021 -22364.805 53831.284 -22360.266 53765.125 -22329.345 53761.225 -22327.439 53696.192 -22294.231 53689.084 -22292.492 53683.441 -22290.393 53677.678 -22288.476 53671.05 -22285.378 53599.583 -22270.513 53595.299 -22269.543 53524.39 -22252.192 53518.788 -22251.844 53518.785 -22251.844 53513.236 -22251.5 53513.238 -22251.464 53509.245 -22251.225 53505.053 -22250.851 53497.885 -22249.36 53434.12 -22251.085 53420.479 -22251.454 53417.072 -22251.5 12717.07 -22251.5 12698.12 -22250.067 12683.885 -22247.901 12683.881 -22247.901 12676.651 -22246.801 12669.359 -22247.394 12669.356 -22247.394 12623.982 -22251.085 12613.767 -22251.5 12605.707 -22251.5 12602.073 -22251.924 12602.067 -22251.924 12589.042 -22253.443 12577.48 -22254.791 12573.132 -22255.221 12500.364 -22261.14 12493.403 -22263.395 12487.463 -22264.582 12481.588 -22265.971 12474.319 -22266.818 12405.67 -22291.736 12401.542 -22293.153 12339.064 -22313.393 12339.062 -22313.394 12332.101 -22315.649 12325.846 -22319.445 12320.372 -22321.951 12314.942 -22324.67 12308.063 -22327.167 12301.943 -22331.18 12301.942 -22331.18 12247.024 -22367.186 12243.32 -22369.523 12180.893 -22407.405 12172.516 -22414.803 12172.492 -22414.776 12169.5 -22417.429 12166.267 -22420.132 12160.148 -22424.144 12130.951 -22454.965 12106.872 -22480.383 12104.494 -22482.825 8121.089 -26466.23 8106.677 -26478.616 8095.082 -26487.149 8095.077 -26487.154 8089.182 -26491.492 8084.443 -26497.07 8084.44 -26497.073 8054.965 -26531.768 8048.035 -26539.284 8042.34 -26544.979 8040.06 -26547.861 8024.719 -26567.251 8021.928 -26570.655 7995.732 -26601.49 7974.667 -26626.285 7971.339 -26632.801 7967.972 -26637.85 7964.805 -26642.979 7960.266 -26648.716 7929.345 -26714.875 7927.442 -26718.769 7894.231 -26783.808 7892.492 -26790.916 7890.393 -26796.559 7888.476 -26802.322 7885.378 -26808.95 7883.888 -26816.112 7883.888 -26816.113 7870.514 -26880.412 7869.544 -26884.696 7852.192 -26955.61 7851.5 -26966.764 7851.464 -26966.762 7851.225 -26970.755 7850.851 -26974.947 7849.36 -26982.115 7849.558 -26989.432 7851.454 -27059.521 7851.5 -27062.928 7851.5 -44342.93 7850.067 -44361.88 7848.623 -44371.375 7846.801 -44383.349 7847.394 -44390.641 7847.394 -44390.644 7851.085 -44436.018 7851.5 -44446.233 7851.5 -44454.293 7851.925 -44457.937 7854.789 -44482.507 7855.222 -44486.882 7861.14 -44559.637 7863.396 -44566.601 7864.587 -44572.56 7865.971 -44578.415 7866.818 -44585.681 7891.735 -44654.327 7893.152 -44658.455 7915.649 -44727.899 7919.445 -44734.154 7921.951 -44739.628 7924.67 -44745.058 7927.167 -44751.937 7931.18 -44758.057 7931.18 -44758.058 7967.186 -44812.976 7969.523 -44816.68 8007.405 -44879.107 8011.121 -44883.315 8011.122 -44883.316 8014.803 -44887.484 8014.776 -44887.508 8017.429 -44890.5 8020.132 -44893.733 8024.144 -44899.852 8029.456 -44904.884 8080.383 -44953.128 8082.825 -44955.506 9246.23 -46118.911 9258.616 -46133.323 9267.149 -46144.918 9267.154 -46144.923 9271.492 -46150.818 9277.07 -46155.557 9277.073 -46155.56 9311.768 -46185.035 9319.284 -46191.965 9324.98 -46197.661 9327.841 -46199.924 9327.846 -46199.929 9347.266 -46215.293 9350.667 -46218.082 9370.873 -46235.248 9406.285 -46265.333 9412.805 -46268.662 9417.852 -46272.028 9422.976 -46275.193 9428.717 -46279.735 9435.348 -46282.834 9435.351 -46282.836 9494.83 -46310.634 9498.776 -46312.562 9563.808 -46345.769 9570.914 -46347.508 9576.564 -46349.609 9582.321 -46351.524 9588.95 -46354.622 9660.435 -46369.491 9664.701 -46370.457 9735.61 -46387.808 9741.212 -46388.156 9741.215 -46388.156 9746.764 -46388.5 9746.762 -46388.535 9750.734 -46388.775 9754.954 -46389.152 9762.115 -46390.641 9769.582 -46390.439 9770.22 -46390.422 9770.744 -46390.561 9776.722 -46391.094 9776.631 -46392.118 9838.857 -46408.576 9884.617 -46456.737 9935.025 -46550.551 9937.82 -46554.294 9937.822 -46554.297 10084.171 -46750.282 10084.176 -46750.288 10086.963 -46754.02 10090.272 -46757.3 10090.277 -46757.306 10222.909 -46888.785 10264.664 -46930.177 10267.307 -46932.797 10266.744 -46933.364 10303.333 -46989.424 10303.833 -47060.419 10264.075 -47121.569 10260.148 -47124.144 10255.115 -47129.457 10206.855 -47180.401 10204.477 -47182.843 8371.089 -49016.23 8356.677 -49028.616 8345.082 -49037.149 8345.077 -49037.154 8339.182 -49041.492 8334.443 -49047.07 8334.44 -49047.073 8304.965 -49081.768 8298.035 -49089.284 8292.34 -49094.979 8290.06 -49097.861 8274.719 -49117.251 8271.928 -49120.655 8259.591 -49135.177 8224.667 -49176.285 8221.339 -49182.801 8217.972 -49187.85 8214.805 -49192.979 8210.266 -49198.716 8179.345 -49264.875 8177.442 -49268.769 8144.231 -49333.808 8142.492 -49340.916 8140.393 -49346.559 8138.476 -49352.322 8135.378 -49358.95 8121.594 -49425.222 8120.514 -49430.412 8119.544 -49434.696 8102.192 -49505.61 8101.5 -49516.764 8101.464 -49516.762 8101.225 -49520.755 8100.851 -49524.947 8099.36 -49532.115 8100.585 -49577.405 8101.454 -49609.521 8101.5 -49612.928 8101.5 -52587.725 8081.498 -52655.846 8051.065 -52688.551 7946.739 -52766.739 7859.385 -52883.295 7808.255 -53019.684 7801.5 -53081.866 7801.5 -54978.134 5508.5 -54978.134 5508.5 -17908.918 8826.917 -17908.918 8842.682 -18182.32 8843.507 -18186.525 8843.508 -18186.533 8873.917 -18341.526 8895.405 -18451.053 8896.792 -18455.103 8896.793 -18455.108 8934.394 -18564.93 8984.112 -18710.144 9107.16 -18954.799 9109.586 -18958.328 9109.589 -18958.334 9178.585 -19058.723 9262.274 -19180.49 9265.161 -19183.663 9265.162 -19183.664 9347.316 -19273.951 9446.582 -19383.043 9656.675 -19558.707 9660.316 -19560.991 9885.024 -19701.951 9885.028 -19701.953 9888.664 -19704.234 9956.544 -19734.883 10134.345 -19815.164 10134.349 -19815.166 10138.257 -19816.93 10164.664 -19824.752 10396.723 -19893.491 10396.727 -19893.492 10400.836 -19894.709 10405.07 -19895.357 10405.075 -19895.358 10667.298 -19935.483 10667.3 -19935.483 10671.54 -19936.132 10810.912 -19938.322 10941.071 -19940.367 10941.077 -19940.367 10945.362 -19940.434 11217.235 -19907.534 11482.127 -19838.041 11486.087 -19836.401 11486.092 -19836.399 11680.191 -19756 11735.136 -19733.241 11971.582 -19595.073 12187.089 -19426.094 12228.809 -19383.043 12328.409 -19280.263 12377.669 -19229.431 12380.202 -19225.983 12380.206 -19225.978 12537.257 -19012.178 12539.795 -19008.723 12567.154 -18958.334 12668.418 -18771.83 12668.419 -18771.828 12670.468 -18768.054 12718.869 -18639.965 12765.751 -18515.895 12765.752 -18515.891 12767.269 -18511.877 12812.258 -18315.443 12827.449 -18249.117 12827.45 -18249.113 12828.407 -18244.933 12829.916 -18228.032 12852.531 -17974.627 12852.531 -17974.625 12852.751 -17972.161 12852.89 -17958.918 20876.917 -17958.918 20892.682 -18232.32 20893.507 -18236.525 20893.508 -18236.533 20908.99 -18315.443 20945.405 -18501.053 20946.792 -18505.103 20946.793 -18505.108 21032.723 -18756.088 21034.112 -18760.144 21157.16 -19004.799 21159.586 -19008.328 21159.589 -19008.334 21275.479 -19176.953 21312.274 -19230.49 21315.161 -19233.663 21315.162 -19233.664 21487.453 -19423.01 21496.582 -19433.043 21706.675 -19608.707 21710.316 -19610.991 21935.024 -19751.951 21935.028 -19751.953 21938.664 -19754.234 22006.544 -19784.883 22184.345 -19865.164 22184.349 -19865.166 22188.257 -19866.93 22192.377 -19868.15 22192.376 -19868.15 22446.723 -19943.491 22446.727 -19943.492 22450.836 -19944.709 22455.07 -19945.357 22455.075 -19945.358 22717.298 -19985.483 22717.3 -19985.483 22721.54 -19986.132 22860.912 -19988.322 22991.071 -19990.367 22991.077 -19990.367 22995.362 -19990.434 23267.235 -19957.534 23532.127 -19888.041 23536.087 -19886.401 23536.092 -19886.399 23700.858 -19818.15 23785.136 -19783.241 24021.582 -19645.073 24237.089 -19476.094 24278.809 -19433.043 24424.686 -19282.509 24427.669 -19279.431 24430.202 -19275.983 24430.206 -19275.978 24587.257 -19062.178 24589.795 -19058.723 24618.989 -19004.955 24718.418 -18821.83 24718.419 -18821.828 24720.468 -18818.054 24817.269 -18561.877 24878.407 -18294.933 24882.87 -18244.933 24902.531 -18024.627 24902.531 -18024.625 24902.751 -18022.161 24903.193 -17980 24899.954 -17932.484 24884.859 -17711.055 24884.858 -17711.049 24884.567 -17706.778 24874.213 -17656.778 24829.901 -17442.809 24829.032 -17438.612 24737.617 -17180.465 24612.013 -16937.112 24557.62 -16859.718 24534.816 -16792.486 24551.981 -16723.596 24571.613 -16698.175 25104.383 -16165.405 25166.695 -16131.379 25193.478 -16128.5 27072.44 -16128.5 27140.561 -16148.502 27187.054 -16202.158 27197.158 -16272.432 27167.664 -16337.012 27151.221 -16352.834 27032.317 -16448.094 26843.807 -16646.742 26684.001 -16869.136 26555.856 -17111.161 26554.384 -17115.184 26554.382 -17115.188 26531.888 -17176.656 26461.742 -17368.337 26403.403 -17635.907 26381.916 -17908.918 26397.681 -18182.32 26398.506 -18186.525 26398.507 -18186.533 26428.916 -18341.526 26450.404 -18451.053 26451.791 -18455.103 26451.792 -18455.108 26489.393 -18564.93 26539.111 -18710.144 26662.159 -18954.799 26664.585 -18958.328 26664.588 -18958.334 26733.584 -19058.723 26817.273 -19180.49 26820.16 -19183.663 26820.161 -19183.664 26902.315 -19273.951 27001.581 -19383.043 27211.674 -19558.707 27215.315 -19560.991 27440.023 -19701.951 27440.027 -19701.953 27443.663 -19704.234 27511.543 -19734.883 27689.344 -19815.164 27689.348 -19815.166 27693.256 -19816.93 27719.663 -19824.752 27951.722 -19893.491 27951.726 -19893.492 27955.835 -19894.709 27960.069 -19895.357 27960.074 -19895.358 28222.297 -19935.483 28222.299 -19935.483 28226.539 -19936.132 28365.911 -19938.322 28496.07 -19940.367 28496.076 -19940.367 28500.361 -19940.434 28772.234 -19907.534 29037.126 -19838.041 29041.086 -19836.401 29041.091 -19836.399 29235.19 -19756 29290.135 -19733.241 29526.581 -19595.073 29742.088 -19426.094 29783.808 -19383.043 29883.408 -19280.263 29932.668 -19229.431 29935.201 -19225.983 29935.205 -19225.978 30092.256 -19012.178 30094.794 -19008.723 30122.153 -18958.334 30223.417 -18771.83 30223.418 -18771.828 30225.467 -18768.054 30273.868 -18639.965 30320.75 -18515.895 30320.751 -18515.891 30322.268 -18511.877 30367.257 -18315.443 30382.448 -18249.117 30382.449 -18249.113 30383.406 -18244.933 30384.915 -18228.032 30407.53 -17974.627 30407.53 -17974.625 30407.75 -17972.161 30408.192 -17930 30402.469 -17846.049 30389.858 -17661.055 30389.857 -17661.049 30389.566 -17656.778 30334.031 -17388.612 30242.616 -17130.465 30151.49 -16953.911 30118.977 -16890.919 30118.977 -16890.918 30117.012 -16887.112 30107.039 -16872.921 30034.147 -16769.207 29959.544 -16663.057 29889.465 -16587.643 29776.045 -16465.588 29776.042 -16465.585 29773.124 -16462.445 29769.809 -16459.731 29769.805 -16459.728 29638.192 -16352.004 29598.146 -16293.379 29596.153 -16222.41 29632.844 -16161.63 29696.572 -16130.335 29717.998 -16128.5 39184.85 -16128.5 39252.971 -16148.502 39299.464 -16202.158 39309.568 -16272.432 39280.074 -16337.012 39263.631 -16352.834 39082.317 -16498.094 39065.716 -16515.588 38928.754 -16659.916 38893.807 -16696.742 38734.001 -16919.136 38605.856 -17161.161 38604.384 -17165.184 38604.382 -17165.188 38522.62 -17388.612 38511.742 -17418.337 38453.403 -17685.907 38431.916 -17958.918 38447.681 -18232.32 38448.506 -18236.525 38448.507 -18236.533 38463.989 -18315.443 38500.404 -18501.053 38501.791 -18505.103 38501.792 -18505.108 38587.722 -18756.088 38589.111 -18760.144 38712.159 -19004.799 38714.585 -19008.328 38714.588 -19008.334 38830.478 -19176.953 38867.273 -19230.49 38870.16 -19233.663 38870.161 -19233.664 39042.452 -19423.01 39051.581 -19433.043 39261.674 -19608.707 39265.315 -19610.991 39490.023 -19751.951 39490.027 -19751.953 39493.663 -19754.234 39561.543 -19784.883 39739.344 -19865.164 39739.348 -19865.166 39743.256 -19866.93 39747.376 -19868.15 39747.375 -19868.15 40001.722 -19943.491 40001.726 -19943.492 40005.835 -19944.709 40010.069 -19945.357 40010.074 -19945.358 40272.297 -19985.483 40272.299 -19985.483 40276.539 -19986.132 40415.911 -19988.322 40546.07 -19990.367 40546.076 -19990.367 40550.361 -19990.434 40822.234 -19957.534 41087.126 -19888.041 41091.086 -19886.401 41091.091 -19886.399 41255.857 -19818.15 41340.135 -19783.241 41576.581 -19645.073 41792.088 -19476.094 41833.808 -19433.043 41982.668 -19279.431 41983.527 -19280.263 42038.38 -19244.05 42075.363 -19238.5 49937.371 -19238.5 50005.492 -19258.502 50044.804 -19298.666 50124.516 -19428.745 50155.248 -19478.896 50158.463 -19482.66 50158.465 -19482.663 50263.764 -19605.951 50314.567 -19665.433 50318.323 -19668.641 50491.946 -19816.93 50501.104 -19824.752 50505.327 -19827.34 50505.33 -19827.342 50524.567 -19839.13 50710.268 -19952.927 50854.967 -20012.864 50932.335 -20044.911 50932.337 -20044.912 50936.908 -20046.805 51019.563 -20066.649 51170.63 -20102.917 51170.636 -20102.918 51175.443 -20104.072 51420 -20123.319 51664.557 -20104.072 51669.364 -20102.918 51669.37 -20102.917 51820.437 -20066.649 51903.092 -20046.805 51907.663 -20044.912 51907.665 -20044.911 51985.033 -20012.864 52129.732 -19952.927 52315.433 -19839.13 52334.67 -19827.342 52334.673 -19827.34 52338.896 -19824.752 52348.055 -19816.93 52521.677 -19668.641 52525.433 -19665.433 52576.236 -19605.951 52681.535 -19482.663 52681.537 -19482.66 52684.752 -19478.896 52812.927 -19269.732 52898.899 -19062.178 52904.911 -19047.665 52904.912 -19047.663 52906.805 -19043.092 52928.922 -18950.968 52962.917 -18809.37 52962.918 -18809.364 52964.072 -18804.557 52983.319 -18560 52964.072 -18315.443 52960.153 -18299.117 52907.96 -18081.72 52906.805 -18076.908 52812.927 -17850.268 52684.752 -17641.104 52680.314 -17635.907 52528.641 -17458.323 52525.433 -17454.567 52487.911 -17422.52 52342.663 -17298.465 52342.66 -17298.463 52338.896 -17295.248 52334.673 -17292.66 52334.67 -17292.658 52265.485 -17250.262 52129.732 -17167.073 51985.033 -17107.136 51907.665 -17075.089 51907.663 -17075.088 51903.092 -17073.195 51677.021 -17018.92 51621.635 -16989.595 51603.964 -16973.515 51588.773 -16963.986 51574.907 -16953.911 51565.451 -16946.004 51565.441 -16945.997 51561.146 -16942.406 51488.752 -16901.113 51484.232 -16898.408 51418.404 -16857.114 51418.401 -16857.112 51413.656 -16854.136 51408.451 -16852.043 51408.448 -16852.042 51397.021 -16847.448 51381.589 -16839.988 51370.881 -16833.88 51370.872 -16833.876 51366.007 -16831.101 51360.73 -16829.232 51360.725 -16829.23 51287.458 -16803.285 51282.522 -16801.42 51210.416 -16772.434 51205.217 -16770.344 51199.73 -16769.208 51199.728 -16769.207 51187.651 -16766.706 51171.156 -16762.101 51154.241 -16756.111 51071.99 -16742.641 51066.82 -16741.683 50985.233 -16724.787 50980.621 -16724.521 50980.62 -16724.521 50957.452 -16723.185 50944.347 -16721.738 50938.09 -16720.714 50938.086 -16720.714 50932.543 -16719.806 50926.93 -16719.894 50926.928 -16719.894 50825.736 -16721.484 50823.757 -16721.5 42072.307 -16721.5 42004.186 -16701.498 41980.007 -16681.271 41826.045 -16515.588 41826.042 -16515.585 41823.124 -16512.445 41819.809 -16509.731 41819.805 -16509.728 41627.104 -16352.004 41587.058 -16293.379 41585.065 -16222.41 41621.756 -16161.63 41685.483 -16130.335 41706.91 -16128.5 50018.604 -16128.5 50035.051 -16129.578 50051.516 -16131.746 50051.52 -16131.746 50057.086 -16132.479 50138.489 -16128.64 50144.424 -16128.5 50166.999 -16128.5 50192.989 -16126.181 50198.248 -16125.822 50281.488 -16121.896 50286.947 -16120.646 50286.952 -16120.645 50298.97 -16117.892 50315.899 -16115.211 50333.762 -16113.617 50339.178 -16112.135 50339.18 -16112.135 50414.133 -16091.63 50419.251 -16090.344 50495 -16072.995 50495.002 -16072.994 50500.47 -16071.742 50510.97 -16067.263 50516.967 -16064.706 50533.142 -16059.073 50545.039 -16055.818 50545.043 -16055.817 50550.451 -16054.337 50625.667 -16018.461 50630.476 -16016.29 50701.949 -15985.804 50701.95 -15985.804 50707.109 -15983.603 50722.11 -15973.749 50737.025 -15965.346 50753.218 -15957.622 50757.769 -15954.352 50757.772 -15954.35 50802.495 -15922.213 50820.892 -15908.994 50825.232 -15906.011 50891.01 -15862.804 50891.018 -15862.798 50894.874 -15860.265 50915.662 -15841.743 50925.939 -15833.51 50935.654 -15826.529 51010.063 -15749.745 51011.452 -15748.335 51604.382 -15155.405 51666.694 -15121.379 51693.477 -15118.5 52518.134 -15118.5 52580.316 -15111.745 52716.705 -15060.615 52833.261 -14973.261 52920.615 -14856.705 52971.745 -14720.316 52978.5 -14658.134 52978.5 -12461.866 52971.745 -12399.684 52920.615 -12263.295 52833.261 -12146.739 52716.705 -12059.385 52580.316 -12008.255 52518.134 -12001.5 50321.866 -12001.5 50259.684 -12008.255 50123.295 -12059.385 50006.739 -12146.739 49919.385 -12263.295 49868.255 -12399.684 49861.5 -12461.866 49861.5 -13286.522 49841.498 -13354.643 49824.595 -13375.617 49625.617 -13574.595 49563.305 -13608.621 49536.522 -13611.5 24711.395 -13611.5 24694.948 -13610.422 24678.483 -13608.254 24678.479 -13608.254 24672.913 -13607.521 24591.511 -13611.36 24585.575 -13611.5 24563.001 -13611.5 24538.886 -13613.652 24537.013 -13613.819 24531.75 -13614.178 24515.933 -13614.924 24448.511 -13618.104 24443.048 -13619.355 24443.042 -13619.356 24431.032 -13622.107 24414.1 -13624.789 24396.238 -13626.383 24390.827 -13627.863 24390.823 -13627.864 24344.157 -13640.631 24315.848 -13648.376 24310.75 -13649.656 24229.53 -13668.258 24224.369 -13670.459 24224.37 -13670.459 24213.033 -13675.294 24196.858 -13680.927 24184.961 -13684.182 24184.957 -13684.183 24179.549 -13685.663 24174.483 -13688.079 24174.484 -13688.079 24104.333 -13721.539 24099.524 -13723.71 24022.891 -13756.397 24007.89 -13766.251 23992.975 -13774.654 23976.782 -13782.378 23972.234 -13785.646 23972.229 -13785.649 23909.114 -13831.002 23904.777 -13833.982 23835.125 -13879.735 23814.344 -13898.251 23804.048 -13906.5 23794.346 -13913.471 23790.441 -13917.501 23719.968 -13990.223 23718.579 -13991.633 22064.737 -15645.475 22052.347 -15656.342 22034.708 -15669.877 21980.188 -15729.794 21979.842 -15730.174 21975.743 -15734.469 21959.802 -15750.41 21958.007 -15752.557 21958.005 -15752.559 21943.068 -15770.423 21939.6 -15774.398 21887.288 -15831.888 21887.281 -15831.897 21883.515 -15836.036 21880.538 -15840.782 21880.537 -15840.783 21873.987 -15851.225 21863.911 -15865.093 21856.004 -15874.549 21855.997 -15874.559 21852.406 -15878.854 21811.118 -15951.24 21808.413 -15955.759 21800.082 -15969.041 21769.792 -16017.328 21764.136 -16026.344 21762.043 -16031.549 21762.042 -16031.552 21757.448 -16042.979 21749.988 -16058.411 21743.88 -16069.119 21743.876 -16069.128 21741.101 -16073.993 21739.232 -16079.27 21739.23 -16079.275 21713.285 -16152.542 21711.42 -16157.478 21699.861 -16186.232 21680.344 -16234.783 21679.208 -16240.27 21679.207 -16240.272 21676.706 -16252.349 21672.101 -16268.844 21666.111 -16285.759 21665.204 -16291.298 21654.863 -16354.443 21624.114 -16418.436 21609.3 -16432.414 21527.318 -16498.094 21510.717 -16515.588 21373.755 -16659.916 21338.808 -16696.742 21179.002 -16919.136 21050.857 -17161.161 21049.385 -17165.184 21049.383 -17165.188 20967.621 -17388.612 20956.743 -17418.337 20898.404 -17685.907 20876.917 -17958.918 12852.89 -17958.918 12853.193 -17930 12847.47 -17846.049 12834.859 -17661.055 12834.858 -17661.049 12834.567 -17656.778 12779.032 -17388.612 12687.617 -17130.465 12596.491 -16953.911 12563.978 -16890.919 12563.978 -16890.918 12562.013 -16887.112 12552.04 -16872.921 12479.148 -16769.207 12404.545 -16663.057 12334.466 -16587.643 12221.046 -16465.588 12221.043 -16465.585 12218.125 -16462.445 12214.81 -16459.731 12214.806 -16459.728 12009.523 -16291.706 12006.205 -16288.99 11783.541 -16152.542 11776.366 -16148.145 11776.365 -16148.145 11772.704 -16145.901 11768.768 -16144.173 11525.873 -16037.549 11525.869 -16037.548 11521.945 -16035.825 11258.566 -15960.8 11254.324 -15960.196 11254.318 -15960.195 11053.834 -15931.662 10987.443 -15922.213 10843.589 -15921.46 10717.877 -15920.802 10717.871 -15920.802 10713.591 -15920.78 10709.347 -15921.339 10709.343 -15921.339 10590.302 -15937.011 10442.078 -15956.525 10437.938 -15957.658 10437.936 -15957.658 10396.327 -15969.041 10177.928 -16028.788 10173.98 -16030.472 9929.982 -16134.546 9929.978 -16134.548 9926.03 -16136.232 9842.486 -16186.232 9694.725 -16274.664 9694.721 -16274.667 9691.043 -16276.868 9477.318 -16448.094 9288.808 -16646.742 9129.002 -16869.136 9000.857 -17111.161 8999.385 -17115.184 8999.383 -17115.188 8976.889 -17176.656 8906.743 -17368.337 8848.404 -17635.907 8826.917 -17908.918 5508.5 -17908.918 5508.5 -9500 5786.411 -9500 5806.754 -9888.176 5867.562 -10272.099 5968.167 -10647.562 6107.468 -11010.453 6283.938 -11356.794 6495.643 -11682.793 6740.266 -11984.876 7015.124 -12259.734 7317.207 -12504.357 7643.205 -12716.062 7646.139 -12717.557 7646.146 -12717.561 7986.607 -12891.034 7989.547 -12892.532 8352.438 -13031.833 8727.901 -13132.438 8931.793 -13164.732 9108.576 -13192.732 9108.584 -13192.733 9111.824 -13193.246 9500 -13213.589 9888.176 -13193.246 9891.416 -13192.733 9891.424 -13192.732 10068.207 -13164.732 10272.099 -13132.438 10647.562 -13031.833 11010.453 -12892.532 11013.393 -12891.034 11353.854 -12717.561 11353.861 -12717.557 11356.795 -12716.062 11682.793 -12504.357 11984.876 -12259.734 12259.734 -11984.876 12504.357 -11682.793 12716.062 -11356.794 12892.532 -11010.453 13031.833 -10647.562 13132.438 -10272.099 13193.246 -9888.176 13213.589 -9500 39286.411 -9500 39306.754 -9888.176 39367.562 -10272.099 39468.167 -10647.562 39607.468 -11010.453 39783.938 -11356.794 39995.643 -11682.793 40240.266 -11984.876 40515.124 -12259.734 40817.207 -12504.357 41143.205 -12716.062 41146.139 -12717.557 41146.146 -12717.561 41486.607 -12891.034 41489.547 -12892.532 41852.438 -13031.833 42227.901 -13132.438 42431.793 -13164.732 42608.576 -13192.732 42608.584 -13192.733 42611.824 -13193.246 43000 -13213.589 43388.176 -13193.246 43391.416 -13192.733 43391.424 -13192.732 43568.207 -13164.732 43772.099 -13132.438 44147.562 -13031.833 44510.453 -12892.532 44513.393 -12891.034 44853.854 -12717.561 44853.861 -12717.557 44856.795 -12716.062 45182.793 -12504.357 45484.876 -12259.734 45759.734 -11984.876 46004.357 -11682.793 46216.062 -11356.794 46392.532 -11010.453 46531.833 -10647.562 46632.438 -10272.099 46693.246 -9888.176 46713.589 -9500 46693.246 -9111.824 46632.438 -8727.901 46531.833 -8352.438 46392.532 -7989.547 46216.062 -7643.206 46004.357 -7317.207 45759.734 -7015.124 45484.876 -6740.266 45182.793 -6495.643 44856.795 -6283.938 44853.861 -6282.443 44853.854 -6282.439 44513.393 -6108.966 44510.453 -6107.468 44147.562 -5968.167 43772.099 -5867.562 43568.207 -5835.268 43391.424 -5807.268 43391.416 -5807.267 43388.176 -5806.754 43000 -5786.411 42611.824 -5806.754 42608.584 -5807.267 42608.576 -5807.268 42431.793 -5835.268 42227.901 -5867.562 41852.438 -5968.167 41489.547 -6107.468 41486.607 -6108.966 41146.147 -6282.439 41146.14 -6282.443 41143.206 -6283.938 40817.207 -6495.643 40515.124 -6740.266 40240.266 -7015.124 39995.643 -7317.207 39783.938 -7643.206 39607.468 -7989.547 39468.167 -8352.438 39367.562 -8727.901 39306.754 -9111.824 39286.411 -9500 13213.589 -9500 13193.246 -9111.824 13132.438 -8727.901 13031.833 -8352.438 12892.532 -7989.547 12716.062 -7643.206 12504.357 -7317.207 12259.734 -7015.124 11984.876 -6740.266 11682.793 -6495.643 11356.795 -6283.938 11353.861 -6282.443 11353.854 -6282.439 11013.393 -6108.966 11010.453 -6107.468 10647.562 -5968.167 10272.099 -5867.562 10068.207 -5835.268 9891.424 -5807.268 9891.416 -5807.267 9888.176 -5806.754 9500 -5786.411 9111.824 -5806.754 9108.584 -5807.267 9108.576 -5807.268 8931.793 -5835.268 8727.901 -5867.562 8352.438 -5968.167 7989.547 -6107.468 7986.607 -6108.966 7646.147 -6282.439 7646.14 -6282.443 7643.206 -6283.938 7317.207 -6495.643 7015.124 -6740.266 6740.266 -7015.124 6495.643 -7317.207 6283.938 -7643.206 6107.468 -7989.547 5968.167 -8352.438 5867.562 -8727.901 5806.754 -9111.824 5786.411 -9500 5508.5 -9500 5508.5 -5634.5 5528.502 -5566.379 5582.158 -5519.886 5634.5 -5508.5 59365.5 -5508.5 59433.621 -5528.502"/></g></svg>